<svg width="459" height="311" viewBox="0 0 459 311" fill="none" xmlns="http://www.w3.org/2000/svg">
<path d="M442.132 115.732H18.6304L18.7365 223.351H442.132V115.732Z" fill="#FF9775"/>
<path d="M442.132 106.813C437.229 101.393 425.465 101.69 422.04 109.079C414.774 99.7842 397.058 103.282 393.494 112.557C386.388 107.658 377.803 109.034 373.133 117.676C373.211 110.797 363.937 104.054 357.038 107.516C352.535 94.5837 334.766 88.9546 326.68 94.7551C323.814 78.1781 300.269 80.1578 297.677 90.0976C287.415 81.5743 272.789 86.6319 271.287 98.4575C257.102 96.0328 244.758 111.344 245.848 121.88C230.132 123.505 227.781 144.605 234.781 151.761C226.201 156.304 224.711 166.807 233.263 176.861C226.107 183.098 225.895 198.198 236.173 204.027C231.41 219.824 239.655 237.438 256.69 233.07C259.996 255.525 286.011 253.174 292.82 244.231C304.347 251.109 316.438 239.275 315.801 228.968C322.569 230.319 327.407 227.47 328.888 222.294C334.264 228.964 344.461 233.544 353.054 226.866C358.067 241.606 378.277 244.075 385.42 233.319C392.682 239.928 401.634 239.887 406.957 231.707C416.819 239.777 423.146 236.948 427.514 228.262C431.025 233.315 436.67 235.377 442.128 235.266V106.813H442.132Z" fill="#FA8B46"/>
<g opacity="0.43">
<path d="M298.151 156.638C297.914 151.503 295.285 147.144 291.57 144.903C287.852 142.662 283.047 142.531 278.5 145.833C273.491 149.47 273.708 162.317 280.627 166.407C287.55 170.501 298.624 166.909 298.151 156.638Z" fill="white"/>
<path d="M262.527 187.641C270.846 187.947 277.369 179.571 274.185 170.517C272.989 167.125 270.65 165.076 267.911 164.19C263.343 162.708 257.686 164.484 254.432 168.77C250.607 173.811 254.212 187.335 262.531 187.641H262.527Z" fill="white"/>
<path d="M310.254 144.249C305.694 149.968 316.891 160.876 323.9 162.819C330.917 164.766 336.301 158.026 332.105 151.581C330.097 148.503 326.415 144.429 322.349 142.245C318.271 140.057 313.834 139.759 310.25 144.254L310.254 144.249Z" fill="white"/>
<path d="M326.17 142.641C335.228 149.287 345.461 134.677 344.171 129.999C343.037 125.889 334.056 118.059 326.892 122.231C323.133 124.427 317.112 135.996 326.17 142.641Z" fill="white"/>
<path d="M284.443 140.543C289.999 135.734 293.742 120.272 283.104 116.541C281.586 116.006 279.769 115.716 277.626 115.724C272.487 115.749 265.686 127.321 268.144 133.718C270.601 140.114 278.092 146.037 284.443 140.543Z" fill="white"/>
<path d="M322.965 212.007C320.933 210.877 318.577 210.668 316.455 211.624C311.083 214.044 309.335 223.951 318.242 229.287C322.345 229.507 325.533 228.017 327.427 225.36C327.492 225.021 327.558 224.698 327.627 224.331C328.794 218.326 326.341 213.889 322.961 212.007H322.965Z" fill="white"/>
<path d="M261.527 133.816C255.245 134.02 254.669 143.454 254.947 147.56C255.224 151.671 260.098 162.411 269.425 158.035C274.136 155.822 269.348 138.776 263.87 134.681C263.086 134.098 262.31 133.787 261.527 133.812V133.816Z" fill="white"/>
<path d="M348.021 206.419C346.653 205.827 345.021 205.3 343.159 204.876C328.333 201.508 329.382 220.216 330.815 224.033C330.893 224.237 331.011 224.465 331.15 224.706C336.265 229.429 343.861 232.107 350.805 228.319C350.895 228.172 350.988 228.033 351.074 227.878C356.111 218.787 357.65 210.582 348.017 206.419H348.021Z" fill="white"/>
<path d="M290.766 245.067C293.865 236.295 290.525 229.429 283.868 225.878C281.647 224.694 279.079 223.91 276.242 223.514C266.56 222.159 259.857 230.327 257.502 236.732C258.792 241.095 261.078 244.292 263.907 246.508C268.887 248.806 275.557 250.505 281.063 250.317C284.239 249.794 287.182 248.704 289.497 247.214C290.036 246.598 290.472 245.896 290.766 245.067Z" fill="white"/>
<path d="M442.132 203.463C429.886 203.851 425.171 218.726 429.33 229.747C429.506 230.217 429.751 230.666 430.049 231.098C433.441 234.095 437.846 235.344 442.128 235.254V203.459L442.132 203.463Z" fill="white"/>
<path d="M400.871 220.465C397.854 218.595 393.682 218.795 390.523 220.628C384.677 224.016 386.22 231.348 387.351 234.866C392.67 238.724 398.597 239.181 403.263 235.719C403.683 234.85 404.038 233.838 404.308 232.654C405.761 226.257 403.891 222.334 400.875 220.465H400.871Z" fill="white"/>
<path d="M317.597 182.6C321.133 188.197 333.705 182.041 327.533 173.224C326.892 172.305 326.178 171.673 325.435 171.24C320.263 168.228 313.667 176.363 317.597 182.6Z" fill="white"/>
<path d="M375.044 211.709C372.59 210.856 369.937 210.607 367.337 210.958C357.605 212.281 354.793 224.968 355.426 231.556C362.059 241.132 376.444 242.602 383.649 235.471C383.792 235.107 383.93 234.74 384.053 234.344C387.816 222.094 382.379 214.256 375.044 211.709Z" fill="white"/>
<path d="M421.697 218.771C419.481 217.514 416.68 217.02 413.59 217.502C405.422 218.771 406.422 228.523 408.814 233.123C416.966 238.92 422.542 236.781 426.567 229.997C427.351 224.91 425.318 220.828 421.693 218.771H421.697Z" fill="white"/>
<path d="M396.242 108.544C395.621 116.606 400.209 130.558 409.647 127.921C418.489 125.448 423.681 118.696 420.995 108.826C420.856 108.319 420.664 107.842 420.444 107.385C413.843 101.519 402.022 102.976 396.242 108.544Z" fill="white"/>
<path d="M376.256 113.475C373.733 120.133 377.093 129.95 385.188 128.624C392.074 127.489 396.572 121.382 392.89 112.181C387.298 108.646 380.91 108.916 376.256 113.479V113.475Z" fill="white"/>
<path d="M330.023 93.1429C327.5 101.38 324.459 112.904 334.26 119.496C345.596 127.126 351.111 117.361 355.315 105.022C355.405 104.752 355.466 104.487 355.528 104.221C350.245 95.0777 337.995 90.71 330.023 93.1429Z" fill="white"/>
<path d="M326.113 92.4774C322.169 80.264 305.531 80.3334 299.579 86.7462C298.245 102.152 320.092 112.692 326.113 92.4774Z" fill="white"/>
<path d="M359.581 130.86C372.26 136.098 372.264 122.753 372.497 114.463C370.598 109.642 364.704 105.768 359.373 106.76C355.132 112.814 347.984 126.076 359.581 130.864V130.86Z" fill="white"/>
<path d="M294.452 113.414C302.102 109.855 300.8 96.4615 295.84 88.7424C286.725 82.8235 275.197 86.4483 272.018 95.4165C272.05 95.7961 272.091 96.188 272.148 96.5881C274.504 113.157 286.533 117.096 294.452 113.414Z" fill="white"/>
<path d="M245.889 208.513C242.574 207.08 238.598 207.423 235.21 208.321C233.226 221.192 239.488 233.838 251.763 233.736C255.706 226.327 257.755 213.644 245.889 208.509V208.513Z" fill="white"/>
<path d="M313.111 207.497C320.651 205.154 322.557 192.467 317.463 186.772C316.193 185.352 314.373 184.237 312.319 183.576C306.168 181.592 297.951 183.417 296.514 191.315C295.897 194.695 299.473 197.912 302.735 200.99C306.107 204.166 309.278 208.684 313.107 207.497H313.111Z" fill="white"/>
<path d="M442.132 107.65C442.001 107.242 441.858 106.817 441.699 106.364C437.437 102.254 428.988 101.89 424.342 106.001C423.04 111.565 423.134 122.194 428.212 125.868C434.164 130.179 439.413 127.305 441.462 120.627C441.715 119.802 441.94 119.051 442.136 118.357V107.65H442.132Z" fill="white"/>
<path d="M338.457 148.12C336.922 153.708 339.138 158.137 342.947 160.48C346.755 162.823 352.168 163.088 357.071 160.394C362.72 157.296 367.333 139.78 360.328 134.167C353.332 128.558 341.534 136.947 338.457 148.12Z" fill="white"/>
<path d="M306.547 105.438C300.955 106.013 297.734 110.169 298.975 115.537C300.257 121.088 311.536 125.542 315.454 126.497C319.373 127.452 325.745 120.823 323.255 112.745C322.32 109.716 320.504 107.85 318.328 106.736C314.703 104.878 310.046 105.078 306.547 105.438Z" fill="white"/>
<path d="M247.064 114.218C247.146 114.5 247.236 114.781 247.342 115.059C251.779 126.668 262.458 128.289 266.442 119.925C270.209 112.018 274.732 109.528 267.458 98.2246C258.09 98.6532 250.073 106.356 247.06 114.222L247.064 114.218Z" fill="white"/>
<path d="M442.132 175.567C436.482 178.559 432.09 184.294 433.127 192.368C433.608 196.116 437.584 198.99 442.132 200.496V175.567Z" fill="white"/>
<path d="M232.5 148.225C242.052 152.271 250.991 149.772 253.473 141.045C255.988 132.203 248.175 125.823 243.186 122.378C231.781 125.468 228.928 139.931 232.504 148.225H232.5Z" fill="white"/>
<path d="M409.99 212.264C417.636 216.787 429.869 212.819 429.343 201.475C429.086 195.805 426.183 190.993 422.077 188.515C417.978 186.041 412.664 185.894 407.643 189.544C402.112 193.56 402.352 207.745 409.99 212.264Z" fill="white"/>
<path d="M232.12 175.399C238.018 174.693 238.333 170.648 241.668 170.162C245.174 169.652 255.245 169.925 253.706 158.279C253.399 155.977 252.114 154.487 250.232 153.605C245.664 151.466 237.598 152.793 231.544 154.091C226.319 159.039 225.993 167.26 232.12 175.399Z" fill="white"/>
<path d="M362.042 207.407C366.255 212.819 383.461 203.059 375.811 194.442C374.778 193.279 373.705 192.519 372.623 192.062C365.088 188.866 357.377 201.414 362.042 207.407Z" fill="white"/>
<path d="M274.197 216.019C280.349 204.353 262 185.461 253.338 196.732C242.223 211.203 267.438 228.833 274.197 216.019Z" fill="white"/>
<path d="M233.716 202.284C245.321 205.851 256.563 193.05 251.575 180.424C250.318 177.24 248.628 175.53 246.709 174.799C241.59 172.852 234.826 177.898 230.23 180.751C226.764 187.225 227.446 196.859 233.716 202.28V202.284Z" fill="white"/>
<path d="M315.72 231.417C313.989 229.082 312.201 227.535 310.421 226.649C301.061 221.991 292.15 235.319 295.579 245.52C305.29 248.912 314.642 240.193 315.72 231.421V231.417Z" fill="white"/>
<path d="M295.257 172.938C295.832 180.372 309.989 183.878 316.838 173.604C321.969 165.893 316.671 159.782 311.209 157.72C309.388 157.035 307.576 156.802 306.102 157.108C300.212 158.325 294.799 167.027 295.257 172.938Z" fill="white"/>
<path d="M379.738 212.146C383.783 218.216 399.732 218.048 401.858 207.423C403.459 199.455 399.952 192.817 395.18 190.164C393.584 189.278 391.853 188.825 390.123 188.919C383.187 189.299 374.268 203.941 379.738 212.146Z" fill="white"/>
<path d="M409.141 171.824C412.578 182.02 426.061 191.295 435.205 179.914C444.348 168.533 437.658 158.696 427.036 153.895C418.97 150.25 405.7 161.627 409.141 171.824Z" fill="white"/>
<path d="M352.731 174.215C351.711 169.137 347.519 165.753 343.196 163.941C338.873 162.129 334.419 161.876 332.795 163.051C329.121 165.725 327.766 182.233 337.403 186.102C347.049 189.976 354.789 184.376 352.731 174.215Z" fill="white"/>
<path d="M335.015 187.478C325.378 182.025 316.173 205.255 323.692 209.456C328.701 212.248 344.641 192.932 335.015 187.478Z" fill="white"/>
<path d="M279.5 176.289C277.504 183.788 294.089 191.282 297.853 184.237C299.734 180.714 295.75 176.399 290.999 174.138C286.252 171.877 280.737 171.64 279.5 176.289Z" fill="white"/>
<path d="M305.972 125.158C302.608 123.423 298.596 123.052 296.971 123.778C291.668 126.146 287.599 138.42 293.493 143.719C299.388 149.017 313.393 138.657 312.564 133.171C312.148 130.428 309.335 126.893 305.972 125.158Z" fill="white"/>
<path d="M284.37 197.091C287.182 191.597 285.023 187.384 281.659 185.466C278.3 183.547 273.732 183.914 271.785 187.519C266.87 196.622 278.818 207.937 284.37 197.091Z" fill="white"/>
<path d="M282.68 223.102C289.595 229.209 303.392 227.119 303.461 212.477C303.506 205.162 300.551 201.304 296.979 199.512C293.407 197.724 289.215 197.977 286.811 198.953C282.002 200.904 273.871 215.318 282.68 223.102Z" fill="white"/>
<path d="M442.132 129.146C441.421 129.068 440.678 129.015 439.878 129.019C434.743 129.044 427.943 140.616 430.4 147.013C432.278 151.911 437.119 156.532 442.132 155.948V129.142V129.146Z" fill="white"/>
<path d="M353.495 205.239C358.263 203.929 361.569 196.234 357.328 191.895C356.789 191.348 356.14 190.895 355.426 190.511C350.405 187.825 341.637 189.001 340.298 193.761C338.53 200.1 348.719 206.545 353.495 205.239Z" fill="white"/>
<path d="M367.329 187.976C370.068 182.159 367.496 178.232 363.981 177.097C360.467 175.963 355.993 177.616 354.915 182.91C353.531 189.703 363.59 195.903 367.329 187.976Z" fill="white"/>
<path d="M374.333 190.736C378.926 194.463 390.682 186.319 390.812 178.812C390.902 174.122 387.028 168.995 382.542 166.64C379.848 165.223 376.958 164.803 374.566 166.076C369.031 169.028 366.116 184.07 374.333 190.736Z" fill="white"/>
<path d="M357.181 172.726C361.504 178.673 377.656 166.889 371.252 159.284C368.051 155.479 363.104 156.896 359.699 160.243C356.295 163.59 354.385 168.881 357.181 172.726Z" fill="white"/>
<path d="M386.673 137.151C385.792 135.196 384.351 133.722 382.64 132.828C377.538 130.154 369.921 132.412 366.708 140.408C363.659 148.025 371.337 160.916 380.346 157.843C389.359 154.769 390.225 144.976 386.669 137.151H386.673Z" fill="white"/>
<path d="M398.413 143.201C389.323 143.45 382.412 159.006 388.882 167.297C393.27 172.922 405.614 171.677 408.418 162.023C410.529 154.785 408.965 147.658 404.214 144.658C402.626 143.654 400.679 143.139 398.413 143.205V143.201Z" fill="white"/>
<path d="M424.84 127.338C421.277 125.807 416.55 126.17 412.586 128.93C408.026 132.105 405.928 147.099 412.623 150.989C419.317 154.879 428.636 146.662 430.09 137.081C430.82 132.293 428.404 128.864 424.84 127.333V127.338Z" fill="white"/>
<path d="M399.222 172.701C389.792 175.763 394.037 193.928 404.593 188.739C412.517 184.853 409.471 176.489 404.508 173.509C402.842 172.513 400.977 172.134 399.226 172.701H399.222Z" fill="white"/>
<path d="M402.205 129.754C401.45 128.628 399.944 127.134 398.217 126.26C396.491 125.386 394.535 125.137 392.862 126.493C389.502 129.203 388.029 143.033 400.956 140.58C405.487 139.722 403.712 132.012 402.205 129.758V129.754Z" fill="white"/>
</g>
<path d="M442.132 115.732H18.6304L18.7365 223.351H442.132V115.732Z" fill="#FF9775"/>
<mask id="mask0_33_2799" style="mask-type:luminance" maskUnits="userSpaceOnUse" x="18" y="115" width="425" height="109">
<path d="M442.132 115.732H18.6304L18.7365 223.351H442.132V115.732Z" fill="white"/>
</mask>
<g mask="url(#mask0_33_2799)">
<path d="M244.346 231.09C238.863 237.152 221.311 238.099 217.482 229.837C209.355 240.23 189.544 236.315 185.565 225.947C177.617 231.425 168.016 229.886 162.799 220.224C162.889 227.918 152.516 235.454 144.801 231.584C139.768 246.047 119.897 252.341 110.851 245.855C107.647 264.395 81.3179 262.175 78.4197 251.059C66.9451 260.591 50.5926 254.933 48.9108 241.712C33.048 244.422 19.2467 227.302 20.4632 215.521C2.89007 213.705 0.261249 190.111 8.08648 182.11C-1.50627 177.032 -3.17581 165.284 6.38836 154.042C-1.61648 147.066 -1.85324 130.183 9.64173 123.664C4.31469 106.001 13.536 86.3051 32.5868 91.1872C36.2851 66.0787 65.3776 68.7034 72.9865 78.7043C85.8734 71.0138 99.3972 84.2436 98.6828 95.7672C106.251 94.2568 111.66 97.4449 113.317 103.229C119.33 95.7672 130.731 90.6483 140.34 98.1184C145.944 81.6393 168.547 78.8758 176.531 90.9014C184.65 83.513 194.663 83.5579 200.615 92.7057C211.645 83.6803 218.719 86.8439 223.601 96.5591C227.528 90.9096 233.838 88.5992 239.941 88.7257L244.342 231.086L244.346 231.09Z" fill="#FA8B46"/>
<g opacity="0.43">
<path d="M78.9422 176.661C78.6768 182.404 75.7378 187.274 71.5823 189.784C67.4268 192.291 62.0508 192.438 56.9646 188.743C51.3641 184.678 51.6049 170.313 59.3444 165.737C67.0839 161.161 79.4728 165.178 78.9422 176.661Z" fill="white"/>
<path d="M39.1057 141.992C48.4087 141.649 55.7032 151.017 52.1396 161.141C50.8048 164.937 48.1882 167.223 45.1226 168.215C40.0119 169.868 33.6889 167.888 30.0477 163.092C25.7698 157.455 29.7987 142.335 39.1017 141.992H39.1057Z" fill="white"/>
<path d="M92.4782 190.511C87.3797 184.119 99.8993 171.922 107.741 169.75C115.591 167.574 121.612 175.106 116.917 182.318C114.672 185.76 110.553 190.315 106.006 192.76C101.446 195.205 96.4867 195.54 92.4782 190.515V190.511Z" fill="white"/>
<path d="M110.276 192.307C120.403 184.874 131.845 201.21 130.404 206.443C129.135 211.039 119.093 219.791 111.084 215.129C106.88 212.672 100.148 199.736 110.276 192.307Z" fill="white"/>
<path d="M63.6101 194.654C69.823 200.03 74.0111 217.322 62.1161 221.494C60.418 222.09 58.3892 222.416 55.989 222.404C50.2415 222.375 42.6408 209.435 45.3839 202.284C48.1311 195.132 56.5074 188.507 63.6101 194.65V194.654Z" fill="white"/>
<path d="M106.688 114.744C104.418 116.01 101.781 116.238 99.4054 115.173C93.4008 112.467 91.4455 101.388 101.406 95.4202C105.99 95.1753 109.557 96.8407 111.676 99.8084C111.749 100.188 111.819 100.551 111.9 100.959C113.207 107.67 110.464 112.638 106.684 114.74L106.688 114.744Z" fill="white"/>
<path d="M37.9873 202.177C30.9621 201.949 30.3171 191.401 30.6315 186.808C30.9417 182.212 36.3912 170.203 46.8207 175.097C52.0865 177.571 46.735 196.634 40.6079 201.21C39.7344 201.863 38.8649 202.21 37.9873 202.181V202.177Z" fill="white"/>
<path d="M134.711 120.994C133.18 121.656 131.355 122.243 129.278 122.717C112.7 126.481 113.876 105.564 115.472 101.294C115.558 101.066 115.689 100.809 115.848 100.539C121.567 95.2572 130.061 92.265 137.829 96.5022C137.931 96.6655 138.033 96.8206 138.131 96.9961C143.765 107.16 145.483 116.337 134.711 120.994Z" fill="white"/>
<path d="M239.945 124.296C226.25 123.864 220.98 107.23 225.634 94.9019C225.834 94.3753 226.107 93.8732 226.438 93.3915C230.234 90.0443 235.157 88.6441 239.945 88.7421V124.296Z" fill="white"/>
<path d="M100.687 147.629C104.638 141.371 118.697 148.254 111.794 158.116C111.08 159.144 110.276 159.851 109.447 160.336C103.663 163.704 96.2867 154.609 100.683 147.633L100.687 147.629Z" fill="white"/>
<path d="M164.922 115.079C162.179 116.03 159.211 116.312 156.305 115.92C145.422 114.443 142.279 100.258 142.985 92.8895C150.402 82.1824 166.489 80.5373 174.547 88.5136C174.706 88.9218 174.861 89.33 174.996 89.7709C179.201 103.47 173.127 112.23 164.926 115.083L164.922 115.079Z" fill="white"/>
<path d="M188.626 230.437C187.936 221.424 193.063 205.823 203.615 208.77C213.502 211.537 219.306 219.085 216.306 230.123C216.151 230.69 215.935 231.221 215.69 231.735C208.31 238.295 195.092 236.662 188.626 230.437Z" fill="white"/>
<path d="M166.281 224.923C163.46 217.477 167.216 206.496 176.27 207.982C183.972 209.252 189.002 216.077 184.883 226.368C178.629 230.319 171.486 230.021 166.281 224.914V224.923Z" fill="white"/>
<path d="M114.582 247.659C111.762 238.446 108.361 225.563 119.321 218.191C131.996 209.659 138.164 220.579 142.862 234.376C142.965 234.674 143.03 234.972 143.099 235.27C137.193 245.496 123.493 250.378 114.578 247.659H114.582Z" fill="white"/>
<path d="M147.634 205.484C161.811 199.63 161.815 214.55 162.077 223.82C159.954 229.213 153.361 233.544 147.402 232.433C142.663 225.661 134.666 210.835 147.634 205.48V205.484Z" fill="white"/>
<path d="M74.803 224.992C83.3589 228.972 81.9016 243.949 76.3542 252.578C66.1614 259.199 53.2703 255.146 49.7149 245.116C49.7516 244.692 49.7965 244.255 49.8619 243.806C52.4948 225.277 65.9491 220.873 74.803 224.992Z" fill="white"/>
<path d="M20.4999 118.655C16.7934 120.26 12.3481 119.876 8.56001 118.868C6.33939 104.474 13.3401 90.3343 27.0679 90.4445C31.4765 98.7269 33.7706 112.912 20.4999 118.651V118.655Z" fill="white"/>
<path d="M95.6743 119.79C104.104 122.41 106.234 136.599 100.54 142.963C99.1195 144.551 97.0826 145.796 94.7885 146.535C87.9103 148.752 78.7217 146.711 77.1133 137.881C76.4235 134.101 80.4198 130.505 84.0691 127.064C87.8368 123.513 91.3882 118.459 95.6702 119.79H95.6743Z" fill="white"/>
<path d="M239.945 231.437C239.798 231.894 239.639 232.368 239.459 232.874C234.696 237.471 225.246 237.879 220.049 233.278C218.592 227.057 218.702 215.175 224.376 211.064C231.034 206.243 236.214 210.031 239.19 216.922C239.57 217.799 239.725 218.685 239.945 219.461V231.433V231.437Z" fill="white"/>
<path d="M124.012 186.184C122.293 179.935 124.775 174.983 129.033 172.363C133.29 169.746 139.344 169.444 144.826 172.456C151.145 175.922 156.301 195.508 148.467 201.782C140.642 208.052 127.453 198.671 124.008 186.18L124.012 186.184Z" fill="white"/>
<path d="M88.3308 233.911C82.0772 233.266 78.4768 228.621 79.8647 222.62C81.2975 216.415 93.9109 211.431 98.2909 210.362C102.671 209.292 109.798 216.705 107.014 225.739C105.969 229.127 103.936 231.213 101.504 232.458C97.4501 234.535 92.2414 234.315 88.3308 233.911Z" fill="white"/>
<path d="M21.8184 224.09C21.9082 223.775 22.0103 223.461 22.1287 223.151C27.0883 210.17 39.0323 208.358 43.4899 217.709C47.7025 226.551 52.7601 229.335 44.6287 241.977C34.1543 241.499 25.1861 232.886 21.8225 224.09H21.8184Z" fill="white"/>
<path d="M239.945 155.495C233.626 152.148 228.716 145.739 229.879 136.706C230.418 132.518 234.863 129.301 239.945 127.619V155.495Z" fill="white"/>
<path d="M5.53113 186.066C16.2138 181.543 26.2106 184.335 28.9823 194.095C31.7908 203.986 23.0593 211.113 17.4792 214.971C4.72697 211.513 1.53484 195.344 5.53113 186.066Z" fill="white"/>
<path d="M204.003 114.459C212.555 109.401 226.23 113.838 225.646 126.521C225.36 132.861 222.115 138.241 217.523 141.012C212.939 143.776 206.999 143.943 201.382 139.865C195.198 135.371 195.468 119.512 204.007 114.459H204.003Z" fill="white"/>
<path d="M5.1066 155.679C11.7031 156.471 12.0542 160.99 15.7811 161.533C19.7039 162.104 30.9621 161.794 29.2436 174.824C28.9048 177.4 27.4638 179.065 25.3575 180.053C20.2509 182.445 11.2296 180.963 4.46165 179.51C-1.37972 173.975 -1.74302 164.786 5.1066 155.683V155.679Z" fill="white"/>
<path d="M150.386 119.888C155.096 113.834 174.335 124.75 165.779 134.383C164.624 135.685 163.424 136.534 162.215 137.045C153.79 140.616 145.169 126.591 150.386 119.884V119.888Z" fill="white"/>
<path d="M52.156 110.255C59.0382 123.297 38.5138 144.425 28.8313 131.82C16.4015 115.639 44.5961 95.9226 52.156 110.255Z" fill="white"/>
<path d="M6.89039 125.615C19.8671 121.627 32.4398 135.938 26.8596 150.058C25.4513 153.622 23.5654 155.532 21.4183 156.349C15.6953 158.524 8.13133 152.883 2.99207 149.691C-0.881771 142.449 -0.122516 131.681 6.89039 125.615Z" fill="white"/>
<path d="M75.7051 158.43C76.35 150.115 92.176 146.197 99.838 157.683C105.573 166.305 99.6502 173.142 93.5435 175.444C91.5106 176.212 89.4819 176.473 87.8327 176.13C81.2444 174.771 75.1948 165.039 75.7051 158.426V158.43Z" fill="white"/>
<path d="M170.171 114.589C174.694 107.805 192.529 107.989 194.908 119.871C196.696 128.782 192.778 136.203 187.442 139.171C185.658 140.159 183.724 140.669 181.785 140.563C174.033 140.139 164.052 123.761 170.175 114.589H170.171Z" fill="white"/>
<path d="M203.052 159.679C206.897 148.274 221.972 137.906 232.198 150.633C242.423 163.361 234.937 174.362 223.062 179.73C214.045 183.804 199.203 171.084 203.048 159.683L203.052 159.679Z" fill="white"/>
<path d="M139.972 157.001C138.83 162.68 134.147 166.464 129.31 168.488C124.477 170.513 119.493 170.795 117.681 169.484C113.57 166.492 112.056 148.033 122.832 143.706C133.617 139.375 142.271 145.637 139.972 157.001Z" fill="white"/>
<path d="M120.162 142.172C109.386 148.27 99.091 122.292 107.5 117.598C113.101 114.475 130.927 136.077 120.162 142.172Z" fill="white"/>
<path d="M58.083 154.683C55.8502 146.294 74.3948 137.918 78.6034 145.796C80.7097 149.736 76.2521 154.565 70.9414 157.091C65.6307 159.618 59.4668 159.883 58.083 154.687V154.683Z" fill="white"/>
<path d="M87.6899 211.864C83.9304 213.803 79.4443 214.219 77.6237 213.407C71.6966 210.762 67.1411 197.034 73.7335 191.111C80.3219 185.188 95.9887 196.769 95.0621 202.904C94.5967 205.97 91.4536 209.921 87.694 211.864H87.6899Z" fill="white"/>
<path d="M63.5326 131.424C66.6798 137.567 64.2633 142.278 60.5037 144.425C56.7483 146.572 51.6376 146.16 49.4578 142.127C43.9634 131.946 57.3238 119.296 63.5326 131.424Z" fill="white"/>
<path d="M61.6426 102.339C69.3739 95.51 84.8039 97.849 84.8815 114.222C84.9305 122.402 81.624 126.717 77.6318 128.717C73.6396 130.717 68.9494 130.436 66.2593 129.346C60.8792 127.162 51.7886 111.046 61.6385 102.343L61.6426 102.339Z" fill="white"/>
<path d="M140.83 122.312C146.161 123.778 149.859 132.383 145.116 137.236C144.512 137.849 143.789 138.355 142.989 138.783C137.372 141.788 127.571 140.469 126.073 135.146C124.093 128.06 135.486 120.851 140.834 122.312H140.83Z" fill="white"/>
<path d="M156.296 141.617C159.362 148.124 156.484 152.516 152.553 153.781C148.622 155.047 143.622 153.202 142.413 147.283C140.866 139.686 152.112 132.751 156.296 141.617Z" fill="white"/>
<path d="M164.13 138.53C169.265 134.363 182.413 143.47 182.556 151.866C182.658 157.108 178.323 162.843 173.306 165.476C170.294 167.056 167.065 167.529 164.387 166.104C158.199 162.802 154.941 145.984 164.13 138.53Z" fill="white"/>
<path d="M144.953 158.667C149.786 152.017 167.849 165.194 160.689 173.701C157.109 177.955 151.578 176.375 147.769 172.628C143.961 168.884 141.826 162.97 144.953 158.667Z" fill="white"/>
<path d="M177.927 198.45C176.939 200.638 175.331 202.283 173.421 203.284C167.714 206.272 159.199 203.749 155.607 194.805C152.194 186.286 160.783 171.872 170.857 175.309C180.936 178.746 181.903 189.694 177.927 198.45Z" fill="white"/>
<path d="M191.059 191.686C180.895 191.409 173.163 174.015 180.401 164.741C185.311 158.451 199.113 159.843 202.244 170.64C204.603 178.734 202.856 186.702 197.541 190.058C195.765 191.18 193.59 191.756 191.055 191.682L191.059 191.686Z" fill="white"/>
<path d="M220.605 209.423C216.621 211.133 211.33 210.729 206.901 207.643C201.803 204.092 199.46 187.327 206.942 182.976C214.424 178.624 224.85 187.813 226.475 198.524C227.291 203.875 224.589 207.713 220.605 209.423Z" fill="white"/>
<path d="M191.957 158.695C181.413 155.275 186.161 134.963 197.962 140.759C206.82 145.106 203.415 154.458 197.864 157.789C196.002 158.904 193.916 159.328 191.957 158.691V158.695Z" fill="white"/>
<path d="M195.296 206.721C194.455 207.982 192.769 209.651 190.834 210.631C188.904 211.611 186.72 211.888 184.846 210.37C181.087 207.341 179.442 191.874 193.9 194.617C198.966 195.577 196.982 204.198 195.296 206.721Z" fill="white"/>
</g>
</g>
<mask id="mask1_33_2799" style="mask-type:luminance" maskUnits="userSpaceOnUse" x="18" y="115" width="425" height="109">
<path d="M442.132 115.732H18.6304L18.7365 223.351H442.132V115.732Z" fill="white"/>
</mask>
<g mask="url(#mask1_33_2799)">
<path d="M601.273 118.071C601.118 106.699 586.529 102.895 578.051 107.997C571.119 97.1797 556.82 100.662 551.783 109.254C545.648 102.641 529.605 103.719 524.013 113.994C517.298 105.813 501.182 110.499 497.557 119.766C492.132 113.398 481.233 112.875 475.543 118.831C470.726 104.319 452.357 101.143 443.671 107.719C439.319 101.38 426.461 101.303 422.856 109.083C415.586 99.7881 397.874 103.286 394.311 112.561C387.204 107.662 378.62 109.038 373.954 117.68C374.031 110.801 364.757 104.058 357.858 107.519C353.356 94.5876 335.587 88.9585 327.5 94.7591C324.635 78.182 301.09 80.1618 298.498 90.1015C288.235 81.5782 273.61 86.6358 272.111 98.4614C257.926 96.0367 229.965 99.9269 231.055 110.463C223.466 111.246 226.838 118.349 227.973 126.934C229.189 136.126 227.556 147.927 234.785 151.764C244.493 163.9 237.855 238.107 254.889 233.744C258.196 256.199 286.835 253.186 293.64 244.239C305.164 251.117 317.259 239.283 316.622 228.976C323.39 230.327 328.227 227.478 329.709 222.302C335.085 228.972 345.282 233.552 353.874 226.874C358.887 241.614 379.097 244.083 386.241 233.327C393.503 239.936 402.454 239.895 407.777 231.715C417.64 239.785 423.967 236.956 428.334 228.27C435.605 238.732 452.043 236.413 456.954 228.388C468.783 237.777 481.715 236.201 485.283 227.159C496.116 232.127 510.689 228.086 514.873 218.228C524.784 221.702 539.218 214.256 538.847 203.867C548.807 204.912 555.62 199.516 557.073 185.927C564.604 187.613 572.434 186.355 573.034 168.66C586.407 169.068 593.248 164.725 596.281 147.458C613.817 139.302 610.768 120.966 601.273 118.076V118.071Z" fill="#FA8B46"/>
<g opacity="0.43">
<path d="M298.967 156.639C298.73 151.504 296.102 147.144 292.387 144.903C288.668 142.662 283.864 142.531 279.316 145.834C274.308 149.471 274.524 162.317 281.443 166.407C288.366 170.501 299.441 166.909 298.967 156.639Z" fill="white"/>
<path d="M263.339 187.642C271.658 187.948 278.181 179.572 274.997 170.518C273.801 167.125 271.462 165.076 268.723 164.19C264.156 162.709 258.498 164.484 255.245 168.77C251.42 173.812 255.024 187.336 263.343 187.642H263.339Z" fill="white"/>
<path d="M239.043 204.9C247.362 205.207 253.885 196.83 250.701 187.776C249.505 184.38 247.166 182.335 244.427 181.449C239.859 179.967 234.202 181.743 230.948 186.029C227.124 191.071 230.728 204.594 239.047 204.9H239.043Z" fill="white"/>
<path d="M237.198 133.024C245.517 133.33 252.04 124.954 248.856 115.9C247.66 112.504 245.321 110.459 242.582 109.573C238.014 108.091 232.357 109.867 229.103 114.153C225.278 119.194 228.883 132.718 237.202 133.024H237.198Z" fill="white"/>
<path d="M311.07 144.25C306.511 149.969 317.708 160.876 324.717 162.819C331.734 164.766 337.118 158.027 332.921 151.581C330.913 148.503 327.231 144.43 323.165 142.246C319.087 140.058 314.65 139.76 311.066 144.254L311.07 144.25Z" fill="white"/>
<path d="M326.986 142.641C336.044 149.287 346.278 134.677 344.988 129.999C343.853 125.889 334.873 118.059 327.709 122.231C323.949 124.427 317.928 135.996 326.986 142.641Z" fill="white"/>
<path d="M285.256 140.543C290.811 135.735 294.554 120.272 283.917 116.541C282.398 116.006 280.582 115.717 278.439 115.725C273.299 115.749 266.499 127.322 268.956 133.718C271.413 140.115 278.904 146.038 285.256 140.543Z" fill="white"/>
<path d="M323.778 212.007C321.745 210.877 319.389 210.668 317.267 211.624C311.895 214.044 310.148 223.951 319.055 229.287C323.157 229.507 326.345 228.017 328.239 225.36C328.305 225.021 328.37 224.698 328.439 224.331C329.607 218.326 327.153 213.889 323.774 212.007H323.778Z" fill="white"/>
<path d="M262.339 133.816C256.057 134.02 255.481 143.454 255.759 147.56C256.036 151.671 260.91 162.411 270.238 158.035C274.948 155.822 270.16 138.776 264.682 134.681C263.898 134.098 263.123 133.787 262.339 133.812V133.816Z" fill="white"/>
<path d="M245.476 134.731C239.194 134.935 238.619 144.368 238.896 148.475C239.174 152.585 244.048 163.325 253.375 158.949C258.086 156.737 253.297 139.69 247.819 135.596C247.036 135.012 246.26 134.702 245.476 134.726V134.731Z" fill="white"/>
<path d="M348.837 206.419C347.47 205.827 345.837 205.301 343.975 204.876C329.15 201.509 330.199 220.216 331.631 224.033C331.709 224.237 331.827 224.466 331.966 224.707C337.081 229.43 344.678 232.107 351.621 228.319C351.711 228.172 351.805 228.033 351.89 227.878C356.928 218.788 358.467 210.583 348.833 206.419H348.837Z" fill="white"/>
<path d="M291.583 245.067C294.681 236.295 291.342 229.429 284.684 225.878C282.463 224.694 279.896 223.91 277.059 223.514C267.376 222.159 260.674 230.327 258.318 236.732C259.608 241.095 261.894 244.292 264.723 246.508C269.703 248.806 276.373 250.505 281.88 250.317C285.056 249.794 287.999 248.704 290.313 247.214C290.852 246.598 291.289 245.896 291.583 245.067Z" fill="white"/>
<path d="M447.875 204.247C446.581 203.749 445.165 203.459 443.577 203.447C430.861 203.333 425.922 218.538 430.151 229.751C430.326 230.221 430.571 230.67 430.869 231.103C437.409 236.871 447.691 236.209 453.655 231.866C454.035 231.372 454.374 230.829 454.663 230.241C458.782 221.906 456.925 207.737 447.875 204.247Z" fill="white"/>
<path d="M401.683 220.465C398.666 218.595 394.495 218.795 391.335 220.628C385.49 224.016 387.033 231.348 388.163 234.866C393.482 238.724 399.409 239.181 404.075 235.719C404.496 234.85 404.851 233.838 405.12 232.654C406.573 226.257 404.704 222.334 401.687 220.465H401.683Z" fill="white"/>
<path d="M318.414 182.6C321.949 188.197 334.522 182.041 328.35 173.224C327.709 172.305 326.994 171.673 326.251 171.24C321.079 168.228 314.483 176.363 318.414 182.6Z" fill="white"/>
<path d="M238.933 174.477C242.468 180.074 255.04 173.918 248.868 165.101C248.228 164.182 247.513 163.55 246.77 163.117C241.598 160.104 235.002 168.24 238.933 174.477Z" fill="white"/>
<path d="M375.856 211.709C373.403 210.856 370.75 210.607 368.149 210.958C358.418 212.281 355.605 224.968 356.238 231.556C362.871 241.132 377.256 242.602 384.461 235.471C384.604 235.107 384.743 234.74 384.865 234.344C388.629 222.094 383.192 214.256 375.856 211.709Z" fill="white"/>
<path d="M422.514 218.771C420.297 217.514 417.497 217.02 414.407 217.502C406.238 218.771 407.239 228.523 409.631 233.123C417.782 238.92 423.358 236.781 427.383 229.997C428.167 224.91 426.134 220.828 422.509 218.771H422.514Z" fill="white"/>
<path d="M397.058 108.544C396.437 116.606 401.026 130.559 410.463 127.922C419.305 125.448 424.497 118.696 421.811 108.826C421.673 108.32 421.481 107.842 421.26 107.385C414.66 101.519 402.838 102.977 397.058 108.544Z" fill="white"/>
<path d="M377.072 113.475C374.55 120.133 377.909 129.95 386.004 128.624C392.89 127.489 397.389 121.382 393.707 112.181C388.114 108.646 381.726 108.916 377.072 113.479V113.475Z" fill="white"/>
<path d="M330.84 93.1429C328.317 101.38 325.276 112.904 335.077 119.496C346.412 127.126 351.927 117.361 356.132 105.022C356.222 104.752 356.283 104.487 356.344 104.221C351.062 95.0777 338.812 90.71 330.84 93.1429Z" fill="white"/>
<path d="M360.398 130.861C373.076 136.098 373.08 122.754 373.313 114.463C371.415 109.642 365.52 105.769 360.189 106.761C355.948 112.814 348.8 126.077 360.398 130.865V130.861Z" fill="white"/>
<path d="M295.265 113.414C302.914 109.855 301.612 96.4615 296.653 88.7424C287.537 82.8235 276.01 86.4483 272.83 95.4165C272.863 95.7961 272.903 96.188 272.961 96.5881C275.316 113.157 287.346 117.096 295.265 113.414Z" fill="white"/>
<path d="M313.928 207.497C321.467 205.154 323.373 192.467 318.279 186.772C317.01 185.352 315.189 184.237 313.136 183.576C306.984 181.592 298.767 183.417 297.33 191.315C296.714 194.695 300.29 197.912 303.551 200.99C306.923 204.166 310.095 208.684 313.924 207.497H313.928Z" fill="white"/>
<path d="M425.159 106.005C423.857 111.569 423.95 122.199 429.028 125.873C434.98 130.183 440.23 127.31 442.279 120.631C444.303 114.031 444.552 112.12 442.52 106.369C438.258 102.258 429.808 101.895 425.163 106.005H425.159Z" fill="white"/>
<path d="M339.273 148.12C337.738 153.708 339.955 158.137 343.763 160.48C347.572 162.823 352.984 163.088 357.887 160.394C363.536 157.296 368.149 139.78 361.144 134.167C354.148 128.558 342.351 136.947 339.273 148.12Z" fill="white"/>
<path d="M307.364 105.438C301.771 106.013 298.551 110.169 299.792 115.537C301.073 121.088 312.352 125.542 316.271 126.497C320.189 127.452 326.562 120.823 324.071 112.745C323.137 109.716 321.32 107.85 319.144 106.736C315.52 104.878 310.862 105.078 307.364 105.438Z" fill="white"/>
<path d="M250.281 114.218C250.363 114.5 250.452 114.782 250.558 115.059C254.996 126.669 265.674 128.289 269.662 119.925C273.43 112.018 277.953 109.528 270.679 98.2251C261.31 98.6537 253.293 106.356 250.281 114.223V114.218Z" fill="white"/>
<path d="M454.721 200.757C460.717 197.945 467.253 179.935 458.913 174.836C450.573 169.738 431.919 176.604 433.947 192.364C434.874 199.573 448.724 203.565 454.721 200.753V200.757Z" fill="white"/>
<path d="M410.806 212.264C418.452 216.787 430.686 212.819 430.159 201.475C429.902 195.805 427 190.993 422.893 188.515C418.795 186.041 413.48 185.894 408.459 189.544C402.928 193.56 403.169 207.745 410.806 212.264Z" fill="white"/>
<path d="M362.859 207.407C367.072 212.819 384.277 203.059 376.628 194.442C375.595 193.279 374.521 192.519 373.44 192.062C365.904 188.866 358.193 201.414 362.859 207.407Z" fill="white"/>
<path d="M271.536 210.966C275.63 203.206 263.421 190.633 257.657 198.136C250.26 207.766 267.038 219.493 271.536 210.966Z" fill="white"/>
<path d="M316.536 231.417C314.805 229.082 313.017 227.535 311.238 226.65C301.878 221.992 292.967 235.32 296.395 245.521C306.107 248.913 315.458 240.194 316.536 231.421V231.417Z" fill="white"/>
<path d="M296.073 172.938C296.648 180.372 310.805 183.878 317.655 173.604C322.786 165.893 317.487 159.782 312.025 157.72C310.205 157.035 308.392 156.802 306.919 157.108C301.029 158.325 295.616 167.027 296.073 172.938Z" fill="white"/>
<path d="M380.55 212.146C384.596 218.216 400.544 218.049 402.671 207.423C404.271 199.455 400.765 192.818 395.993 190.164C394.397 189.279 392.666 188.825 390.935 188.919C384 189.299 375.08 203.941 380.55 212.146Z" fill="white"/>
<path d="M409.957 171.824C413.394 182.02 426.877 191.295 436.021 179.914C445.165 168.533 438.474 158.696 427.853 153.895C419.787 150.25 406.516 161.627 409.957 171.824Z" fill="white"/>
<path d="M353.548 174.216C352.527 169.138 348.335 165.754 344.012 163.942C339.689 162.129 335.236 161.876 333.611 163.052C329.937 165.725 328.582 182.233 338.22 186.103C347.866 189.977 355.605 184.376 353.548 174.216Z" fill="white"/>
<path d="M335.832 187.478C326.194 182.025 316.989 205.255 324.508 209.456C329.517 212.248 345.461 192.932 335.832 187.478Z" fill="white"/>
<path d="M280.312 176.29C278.316 183.788 294.901 191.283 298.665 184.237C300.547 180.715 296.563 176.4 291.811 174.138C287.064 171.877 281.549 171.64 280.312 176.29Z" fill="white"/>
<path d="M306.788 125.158C303.425 123.423 299.412 123.052 297.787 123.778C292.485 126.146 288.415 138.42 294.31 143.719C300.204 149.017 314.209 138.657 313.381 133.171C312.964 130.428 310.152 126.893 306.788 125.158Z" fill="white"/>
<path d="M285.186 197.092C287.999 191.597 285.839 187.385 282.476 185.466C279.116 183.547 274.544 183.915 272.601 187.519C267.687 196.622 279.635 207.938 285.186 197.092Z" fill="white"/>
<path d="M283.496 223.102C290.411 229.209 304.208 227.119 304.278 212.477C304.323 205.162 301.367 201.304 297.796 199.512C294.224 197.724 290.032 197.977 287.627 198.953C282.819 200.904 274.687 215.318 283.496 223.102Z" fill="white"/>
<path d="M446.169 129.836C444.65 129.301 442.842 129.012 440.691 129.02C435.556 129.044 428.755 140.617 431.212 147.013C433.661 153.406 441.156 159.333 447.504 153.834C453.063 149.03 456.807 133.563 446.169 129.832V129.836Z" fill="white"/>
<path d="M354.311 205.239C359.079 203.929 362.385 196.234 358.144 191.895C357.605 191.348 356.956 190.895 356.242 190.511C351.221 187.825 342.453 189.001 341.114 193.761C339.346 200.1 349.535 206.545 354.311 205.239Z" fill="white"/>
<path d="M368.145 187.976C370.884 182.16 368.312 178.233 364.798 177.098C361.283 175.963 356.809 177.616 355.732 182.911C354.348 189.703 364.406 195.904 368.145 187.976Z" fill="white"/>
<path d="M375.146 190.736C379.738 194.463 391.494 186.319 391.625 178.812C391.715 174.122 387.841 168.995 383.355 166.64C380.661 165.223 377.77 164.803 375.378 166.076C369.843 169.028 366.929 184.07 375.146 190.736Z" fill="white"/>
<path d="M357.997 172.726C362.32 178.673 378.473 166.889 372.068 159.284C368.868 155.479 363.92 156.896 360.516 160.243C357.111 163.59 355.201 168.881 357.997 172.726Z" fill="white"/>
<path d="M387.486 137.151C386.604 135.196 385.163 133.722 383.453 132.828C378.35 130.154 370.733 132.412 367.521 140.408C364.471 148.025 372.15 160.916 381.159 157.843C390.172 154.769 391.037 144.976 387.482 137.151H387.486Z" fill="white"/>
<path d="M399.23 143.201C390.139 143.45 383.228 159.006 389.698 167.297C394.086 172.922 406.43 171.677 409.231 162.023C411.341 154.785 409.778 147.658 405.026 144.658C403.438 143.654 401.491 143.139 399.226 143.205L399.23 143.201Z" fill="white"/>
<path d="M425.653 127.338C422.089 125.807 417.362 126.171 413.398 128.93C408.839 132.106 406.741 147.099 413.435 150.989C420.13 154.879 429.449 146.662 430.902 137.082C431.633 132.294 429.216 128.865 425.653 127.334V127.338Z" fill="white"/>
<path d="M400.034 172.701C390.604 175.763 394.85 193.928 405.406 188.739C413.329 184.853 410.284 176.489 405.32 173.509C403.655 172.513 401.789 172.134 400.038 172.701H400.034Z" fill="white"/>
<path d="M403.018 129.754C402.263 128.628 400.756 127.134 399.03 126.26C397.303 125.386 395.348 125.137 393.674 126.493C390.315 129.203 388.841 143.033 401.769 140.58C406.3 139.722 404.524 132.012 403.018 129.758V129.754Z" fill="white"/>
</g>
</g>
<path d="M18.5112 239.382C18.503 250.016 18.4703 260.648 18.4376 271.281H442.531C442.543 266.757 442.568 262.232 442.576 257.709C442.621 239.426 443.389 221.106 442.531 202.826C442.469 201.533 442.363 200.809 441.672 200.389C440.679 199.784 438.476 199.82 433.465 199.718C412.909 199.293 392.456 198.602 371.855 198.754C325.099 199.1 278.961 203.176 232.34 203.381C204.635 203.502 177.062 202.151 149.586 200.771C135.158 200.046 120.77 199.13 106.268 198.729C93.5192 198.377 80.7134 198.848 68.0138 199.334C51.4557 199.966 34.8649 200.505 18.36 201.357C18.36 201.357 18.4622 213.73 18.4744 217.286C18.5071 224.651 18.5112 232.015 18.503 239.38L18.5112 239.382Z" fill="#FFDCD1"/>
<path d="M442.132 99.8619H18.6304L52.0254 47.9019H408.737L442.132 99.8619Z" fill="#FFBB75"/>
<path d="M442.132 99.8618H18.6304V115.729H442.136V99.8618H442.132Z" fill="#FFD5AB"/>
<path d="M253.036 91.2688C259.6 98.7511 258.853 110.193 251.367 116.826C243.88 123.456 232.491 122.766 225.927 115.283C219.364 107.801 220.111 96.3591 227.597 89.7258C235.083 83.0966 246.472 83.7864 253.036 91.2688Z" fill="#42210B"/>
<g opacity="0.89">
<path d="M242.472 133.383C248.607 140.38 259.253 141.025 266.25 134.828C273.246 128.632 273.944 117.933 267.809 110.94C261.674 103.944 251.028 103.299 244.031 109.495C237.035 115.692 236.337 126.391 242.472 133.383Z" fill="#42210B"/>
</g>
<g opacity="0.89">
<path d="M246.595 112.169C249.771 115.79 255.277 116.124 258.898 112.916C262.519 109.707 262.878 104.176 259.706 100.555C256.535 96.9347 251.024 96.6 247.403 99.8085C243.782 103.017 243.423 108.548 246.595 112.169Z" fill="#42210B"/>
</g>
<path d="M240.129 85.3339C234.153 78.521 223.784 77.8924 216.968 83.9256C210.155 89.9629 209.473 100.38 215.449 107.193C221.425 114.006 231.793 114.635 238.61 108.601C245.427 102.564 246.105 92.1468 240.129 85.3339Z" fill="#42210B"/>
<path d="M266.462 75.7167C260.486 68.9038 250.118 68.2752 243.301 74.3084C236.484 80.3457 235.806 90.7631 241.782 97.5759C247.758 104.389 258.126 105.017 264.943 98.9842C271.76 92.9469 272.438 82.5296 266.462 75.7167Z" fill="#42210B"/>
<path d="M236.463 104.188C230.487 97.3755 220.119 96.7469 213.302 102.78C206.485 108.817 205.807 119.235 211.783 126.048C217.759 132.861 228.128 133.493 234.945 127.456C241.762 121.419 242.439 111.001 236.463 104.188Z" fill="#42210B"/>
<path d="M243.358 71.9936C239.713 67.834 233.385 67.4503 229.226 71.1364C225.066 74.8184 224.654 81.1781 228.299 85.3336C231.944 89.4932 238.272 89.8769 242.431 86.1909C246.591 82.5089 247.003 76.1491 243.358 71.9936Z" fill="#42210B"/>
<path d="M232.789 76.4554C230.463 73.8021 226.426 73.5572 223.772 75.9084C221.119 78.2597 220.854 82.3172 223.18 84.9664C225.507 87.6156 229.544 87.8646 232.198 85.5134C234.851 83.1622 235.116 79.1046 232.789 76.4554Z" fill="#42210B"/>
<path d="M252.873 110.446C246.897 103.634 236.529 103.001 229.712 109.038C222.899 115.075 222.217 125.493 228.193 132.306C234.169 139.119 244.537 139.747 251.354 133.714C258.167 127.677 258.849 117.259 252.873 110.446Z" fill="#42210B"/>
<path d="M259.016 124.513C255.241 120.207 248.689 119.811 244.382 123.623C240.076 127.436 239.647 134.02 243.423 138.327C247.199 142.633 253.751 143.029 258.057 139.217C262.364 135.4 262.792 128.82 259.016 124.513Z" fill="#42210B"/>
<path d="M251.893 133.726C248.962 130.387 243.88 130.077 240.537 133.036C237.194 135.996 236.863 141.102 239.794 144.446C242.725 147.789 247.807 148.095 251.15 145.135C254.494 142.176 254.824 137.065 251.893 133.726Z" fill="#42210B"/>
<path d="M251.893 143.421C248.962 140.082 243.88 139.772 240.537 142.731C237.194 145.691 236.863 150.797 239.794 154.14C242.725 157.484 247.807 157.79 251.15 154.83C254.494 151.871 254.824 146.76 251.893 143.421Z" fill="#42210B"/>
<path d="M242.635 133.726C239.704 130.387 234.622 130.077 231.279 133.036C227.936 135.996 227.605 141.102 230.536 144.446C233.467 147.785 238.549 148.095 241.892 145.135C245.235 142.176 245.566 137.065 242.635 133.726Z" fill="#42210B"/>
<path d="M243.125 141.956C241.362 139.947 238.304 139.759 236.292 141.539C234.283 143.319 234.079 146.393 235.843 148.401C237.606 150.409 240.664 150.597 242.676 148.817C244.684 147.038 244.889 143.964 243.125 141.956Z" fill="#42210B"/>
<path d="M270.152 95.2568C265.993 90.5135 258.772 90.0767 254.028 94.2771C249.285 98.4816 248.811 105.731 252.971 110.475C257.131 115.218 264.352 115.655 269.095 111.454C273.838 107.25 274.312 100 270.152 95.2568Z" fill="#42210B"/>
<path d="M281.157 106.185C276.998 101.441 269.777 101.004 265.033 105.205C260.29 109.405 259.816 116.659 263.976 121.402C268.136 126.146 275.357 126.582 280.1 122.382C284.843 118.182 285.317 110.928 281.157 106.185Z" fill="#42210B"/>
<path d="M248.334 114.459C244.893 119.439 246.146 126.297 251.13 129.775C256.114 133.257 262.943 132.041 266.385 127.06C269.826 122.08 268.572 115.223 263.588 111.745C258.604 108.267 251.775 109.479 248.334 114.459Z" fill="#42210B"/>
<g opacity="0.73">
<path d="M268.507 110.646C262.217 111.912 256.106 107.813 254.865 101.486C253.624 95.1589 257.718 89.0032 264.009 87.7337C270.299 86.4683 276.41 90.5667 277.651 96.8938C278.892 103.221 274.798 109.377 268.507 110.646Z" fill="#42210B"/>
</g>
<g opacity="0.73">
<path d="M228.058 138.016C221.768 139.282 215.657 135.183 214.416 128.856C213.175 122.529 217.27 116.374 223.56 115.104C229.85 113.835 235.961 117.937 237.202 124.264C238.443 130.591 234.349 136.747 228.058 138.016Z" fill="#42210B"/>
</g>
<path d="M256.767 79.3986C254.767 79.1781 253.322 77.378 253.542 75.3778C253.763 73.3776 255.563 71.9325 257.563 72.1489C259.563 72.3693 261.008 74.1695 260.792 76.1697C260.572 78.1699 258.771 79.6149 256.771 79.3945L256.767 79.3986Z" fill="black"/>
<path d="M216.731 108.556C215.518 108.426 214.645 107.336 214.776 106.123C214.906 104.911 215.996 104.038 217.208 104.168C218.421 104.299 219.294 105.389 219.164 106.601C219.033 107.813 217.943 108.687 216.731 108.556Z" fill="black"/>
<path d="M236.76 87.8623C239.683 85.5171 240.15 81.247 237.805 78.3249C235.46 75.4028 231.19 74.9351 228.268 77.2804C225.345 79.6256 224.878 83.8957 227.223 86.8178C229.568 89.74 233.838 90.2076 236.76 87.8623Z" fill="black"/>
<path d="M259.131 98.5471C257.918 98.4165 257.045 97.3266 257.175 96.1142C257.306 94.9019 258.396 94.0283 259.608 94.1589C260.821 94.2896 261.694 95.3835 261.564 96.5918C261.433 97.8042 260.343 98.6777 259.131 98.5471Z" fill="black"/>
<path d="M266.955 97.2483C268.674 92.5431 266.254 87.3353 261.548 85.6162C256.843 83.8972 251.635 86.3179 249.916 91.023C248.197 95.7282 250.618 100.936 255.323 102.655C260.028 104.374 265.236 101.953 266.955 97.2483Z" fill="black"/>
<path d="M265.945 122.808C269.398 119.178 269.255 113.437 265.625 109.985C261.996 106.532 256.255 106.675 252.802 110.305C249.349 113.934 249.493 119.675 253.122 123.128C256.752 126.581 262.493 126.437 265.945 122.808Z" fill="black"/>
<path d="M247.064 138.408C250.734 138.408 253.71 135.433 253.71 131.763C253.71 128.092 250.734 125.117 247.064 125.117C243.394 125.117 240.419 128.092 240.419 131.763C240.419 135.433 243.394 138.408 247.064 138.408Z" fill="black"/>
<path d="M245.836 83.7745C243.17 83.4806 241.243 81.0844 241.533 78.4148C241.827 75.7492 244.223 73.8225 246.893 74.1123C249.558 74.4063 251.485 76.8024 251.195 79.472C250.901 82.1376 248.505 84.0643 245.836 83.7745Z" fill="black"/>
<path d="M246.903 103.113C248.995 101.434 249.33 98.3763 247.651 96.284C245.972 94.1918 242.914 93.857 240.822 95.5362C238.73 97.2154 238.395 100.273 240.074 102.365C241.753 104.457 244.811 104.792 246.903 103.113Z" fill="black"/>
<path d="M232.867 131.391C230.201 131.097 228.275 128.701 228.565 126.031C228.859 123.366 231.255 121.439 233.924 121.729C236.59 122.023 238.517 124.419 238.227 127.089C237.933 129.754 235.537 131.681 232.867 131.391Z" fill="black"/>
<path d="M232.21 118.451C230.708 118.288 229.622 116.933 229.785 115.431C229.948 113.929 231.304 112.843 232.806 113.006C234.308 113.169 235.394 114.525 235.23 116.027C235.067 117.529 233.712 118.615 232.21 118.451Z" fill="black"/>
<path d="M238.255 143.437C239.768 143.437 240.994 142.211 240.994 140.698C240.994 139.185 239.768 137.959 238.255 137.959C236.742 137.959 235.516 139.185 235.516 140.698C235.516 142.211 236.742 143.437 238.255 143.437Z" fill="black"/>
<path d="M242.901 117.243C240.398 116.969 238.59 114.716 238.864 112.214C239.137 109.712 241.39 107.903 243.893 108.177C246.395 108.45 248.203 110.704 247.93 113.206C247.656 115.708 245.403 117.516 242.901 117.243Z" fill="black"/>
<path d="M245.864 153.316C243.362 153.042 241.554 150.789 241.827 148.287C242.101 145.784 244.354 143.976 246.856 144.25C249.358 144.523 251.167 146.776 250.893 149.279C250.62 151.781 248.366 153.589 245.864 153.316Z" fill="black"/>
<path d="M270.589 108.687C268.087 108.413 266.278 106.16 266.552 103.658C266.825 101.155 269.079 99.3471 271.581 99.6206C274.083 99.8941 275.891 102.147 275.618 104.65C275.344 107.152 273.091 108.96 270.589 108.687Z" fill="black"/>
<path d="M218.829 95.3264C216.327 95.0529 214.518 92.7997 214.792 90.2974C215.065 87.7951 217.319 85.9868 219.821 86.2603C222.323 86.5338 224.131 88.787 223.858 91.2893C223.584 93.7916 221.331 95.5999 218.829 95.3264Z" fill="black"/>
<path d="M236.529 102.105C236.921 98.6189 234.413 95.4754 230.927 95.0838C227.441 94.6922 224.297 97.2006 223.906 100.687C223.514 104.173 226.022 107.316 229.508 107.708C232.994 108.099 236.138 105.591 236.529 102.105Z" fill="black"/>
<path d="M220.724 123.476C224.145 122.701 226.29 119.3 225.516 115.878C224.741 112.457 221.339 110.312 217.918 111.086C214.497 111.861 212.351 115.263 213.126 118.684C213.901 122.105 217.302 124.251 220.724 123.476Z" fill="black"/>
</svg>
