<svg width="459" height="300" viewBox="0 0 459 300" fill="none" xmlns="http://www.w3.org/2000/svg">
<g clip-path="url(#clip0_40_2926)">
<path d="M441.913 68.0942H18.6212L18.7272 175.659H441.913V68.0942Z" fill="#FF9775"/>
<path d="M441.913 59.1798C437.013 53.7616 425.254 54.0594 421.831 61.4442C414.569 52.154 396.862 55.6506 393.3 64.9204C386.196 60.0244 377.616 61.3993 372.949 70.0367C373.026 63.1619 363.756 56.4217 356.861 59.8816C352.361 46.9561 334.601 41.3298 326.518 47.1275C323.654 30.5586 300.121 32.5374 297.53 42.4722C287.273 33.9532 272.654 39.0083 271.153 50.828C256.975 48.4045 244.637 63.7086 245.726 74.2391C230.018 75.8629 227.668 96.9524 234.665 104.105C226.089 108.646 224.6 119.144 233.147 129.193C225.995 135.427 225.783 150.519 236.057 156.345C231.295 172.135 239.537 189.74 256.563 185.374C259.867 207.818 285.869 205.468 292.675 196.529C304.197 203.404 316.282 191.576 315.645 181.274C322.41 182.624 327.244 179.776 328.726 174.603C334.099 181.27 344.291 185.847 352.879 179.173C357.889 193.905 378.089 196.374 385.229 185.623C392.488 192.229 401.435 192.188 406.756 184.011C416.613 192.078 422.937 189.25 427.302 180.568C430.811 185.619 436.454 187.679 441.909 187.569V59.1798H441.913Z" fill="#FA8B46"/>
<g opacity="0.43">
<path d="M298.003 108.98C297.767 103.848 295.139 99.4904 291.426 97.2505C287.709 95.0105 282.907 94.88 278.362 98.1807C273.356 101.816 273.572 114.656 280.488 118.744C287.407 122.836 298.477 119.246 298.003 108.98Z" fill="white"/>
<path d="M262.397 139.968C270.712 140.274 277.232 131.902 274.05 122.852C272.854 119.462 270.516 117.413 267.779 116.528C263.213 115.047 257.558 116.822 254.306 121.106C250.483 126.145 254.086 139.662 262.401 139.968H262.397Z" fill="white"/>
<path d="M310.1 96.5973C305.543 102.313 316.735 113.215 323.74 115.157C330.753 117.103 336.135 110.367 331.941 103.925C329.933 100.849 326.253 96.7768 322.19 94.594C318.114 92.4071 313.679 92.1093 310.096 96.6014L310.1 96.5973Z" fill="white"/>
<path d="M326.008 94.99C335.062 101.632 345.29 87.0299 344.001 82.3542C342.867 78.2457 333.891 70.4202 326.731 74.59C322.973 76.785 316.955 88.3477 326.008 94.99Z" fill="white"/>
<path d="M284.303 92.893C289.856 88.0868 293.597 72.6317 282.964 68.9026C281.447 68.3681 279.631 68.0784 277.489 68.0866C272.352 68.1111 265.555 79.6779 268.011 86.0712C270.467 92.4646 277.954 98.3847 284.303 92.893Z" fill="white"/>
<path d="M322.806 164.321C320.774 163.191 318.42 162.983 316.298 163.938C310.929 166.357 309.182 176.259 318.085 181.592C322.185 181.812 325.372 180.323 327.265 177.667C327.33 177.328 327.396 177.006 327.465 176.639C328.632 170.637 326.18 166.202 322.801 164.321H322.806Z" fill="white"/>
<path d="M261.397 86.169C255.118 86.373 254.543 95.8019 254.821 99.9064C255.098 104.015 259.97 114.749 269.292 110.376C274.001 108.164 269.215 91.1262 263.739 87.034C262.956 86.4505 262.181 86.1404 261.397 86.1649V86.169Z" fill="white"/>
<path d="M347.849 158.736C346.482 158.144 344.85 157.618 342.989 157.194C328.171 153.828 329.219 172.526 330.651 176.341C330.729 176.545 330.847 176.774 330.986 177.014C336.098 181.735 343.691 184.412 350.635 180.625C350.725 180.478 350.819 180.34 350.905 180.185C355.939 171.098 357.477 162.898 347.849 158.736Z" fill="white"/>
<path d="M290.623 197.365C293.719 188.597 290.382 181.735 283.727 178.185C281.508 177.002 278.942 176.219 276.106 175.823C266.428 174.468 259.729 182.632 257.375 189.034C258.664 193.395 260.949 196.59 263.776 198.805C268.754 201.102 275.42 202.8 280.924 202.612C284.099 202.09 287.04 201 289.354 199.511C289.892 198.895 290.329 198.193 290.623 197.365Z" fill="white"/>
<path d="M441.913 155.782C429.673 156.17 424.961 171.037 429.118 182.053C429.294 182.522 429.538 182.971 429.836 183.404C433.227 186.398 437.629 187.647 441.909 187.557V155.778L441.913 155.782Z" fill="white"/>
<path d="M400.672 172.775C397.657 170.907 393.488 171.107 390.33 172.938C384.487 176.325 386.029 183.653 387.159 187.169C392.476 191.025 398.4 191.482 403.063 188.022C403.484 187.153 403.839 186.141 404.108 184.958C405.56 178.565 403.692 174.644 400.676 172.775H400.672Z" fill="white"/>
<path d="M317.44 134.929C320.974 140.523 333.54 134.37 327.371 125.558C326.731 124.64 326.017 124.007 325.274 123.575C320.105 120.564 313.511 128.695 317.44 134.929Z" fill="white"/>
<path d="M374.858 164.024C372.406 163.171 369.754 162.922 367.155 163.273C357.428 164.595 354.617 177.276 355.25 183.861C361.88 193.432 376.258 194.901 383.459 187.773C383.602 187.41 383.74 187.043 383.863 186.647C387.625 174.403 382.19 166.57 374.858 164.024Z" fill="white"/>
<path d="M421.489 171.082C419.273 169.825 416.474 169.332 413.386 169.813C405.222 171.082 406.221 180.829 408.612 185.427C416.76 191.221 422.333 189.083 426.356 182.302C427.139 177.218 425.108 173.138 421.485 171.082H421.489Z" fill="white"/>
<path d="M396.046 60.9097C395.426 68.9677 400.011 82.9131 409.444 80.2774C418.282 77.8049 423.471 71.0566 420.787 61.1912C420.648 60.6853 420.456 60.2079 420.236 59.751C413.639 53.888 401.823 55.3445 396.046 60.9097Z" fill="white"/>
<path d="M376.07 65.8385C373.549 72.493 376.906 82.3054 384.997 80.9794C391.88 79.8452 396.376 73.7415 392.696 64.5452C387.106 61.0119 380.721 61.2812 376.07 65.8426V65.8385Z" fill="white"/>
<path d="M329.86 45.5161C327.338 53.7495 324.299 65.2673 334.095 71.8565C345.425 79.4821 350.937 69.7227 355.14 57.3889C355.229 57.1196 355.291 56.8544 355.352 56.5892C350.072 47.45 337.828 43.0844 329.86 45.5161Z" fill="white"/>
<path d="M325.951 44.8508C322.01 32.6435 305.38 32.7128 299.431 39.1225C298.097 54.5204 319.933 65.055 325.951 44.8508Z" fill="white"/>
<path d="M359.403 83.215C372.076 88.4497 372.08 75.1122 372.312 66.8257C370.415 62.0072 364.524 58.1353 359.195 59.1267C354.956 65.1774 347.812 78.4333 359.403 83.2191V83.215Z" fill="white"/>
<path d="M294.307 65.777C301.953 62.2192 300.651 48.8327 295.694 41.1174C286.583 35.2014 275.061 38.8245 271.883 47.7882C271.916 48.1677 271.956 48.5594 272.014 48.9592C274.368 65.5199 286.392 69.4571 294.307 65.777Z" fill="white"/>
<path d="M245.767 160.829C242.454 159.397 238.48 159.739 235.094 160.637C233.111 173.501 239.37 186.141 251.638 186.039C255.575 178.634 257.628 165.957 245.767 160.825V160.829Z" fill="white"/>
<path d="M312.956 159.813C320.492 157.471 322.398 144.79 317.306 139.099C316.037 137.679 314.217 136.565 312.165 135.904C306.016 133.921 297.803 135.745 296.367 143.64C295.751 147.018 299.325 150.233 302.585 153.31C305.955 156.484 309.125 161 312.952 159.813H312.956Z" fill="white"/>
<path d="M441.913 60.0161C441.782 59.6081 441.64 59.1838 441.481 58.7309C437.221 54.6223 428.775 54.2592 424.132 58.3678C422.831 63.9288 422.925 74.5531 428 78.2251C433.949 82.5336 439.196 79.6613 441.244 72.9864C441.497 72.1623 441.721 71.4115 441.917 70.7179V60.0161H441.913Z" fill="white"/>
<path d="M338.289 100.465C336.755 106.051 338.971 110.478 342.777 112.819C346.584 115.161 351.994 115.427 356.894 112.734C362.541 109.637 367.151 92.1298 360.15 86.5198C353.157 80.9139 341.365 89.2983 338.289 100.465Z" fill="white"/>
<path d="M306.396 57.8048C300.806 58.38 297.587 62.5335 298.827 67.8987C300.109 73.4475 311.382 77.8988 315.298 78.8535C319.215 79.8082 325.584 73.1823 323.095 65.108C322.161 62.0806 320.345 60.216 318.171 59.1022C314.548 57.2458 309.892 57.4457 306.396 57.8048Z" fill="white"/>
<path d="M246.942 66.5807C247.024 66.8622 247.113 67.1437 247.22 67.4211C251.655 79.0247 262.328 80.6444 266.314 72.2845C270.08 64.3815 274.6 61.8927 267.33 50.5952C257.966 51.0236 249.953 58.7226 246.942 66.5847V66.5807Z" fill="white"/>
<path d="M441.913 127.899C436.266 130.89 431.876 136.622 432.913 144.693C433.394 148.438 437.368 151.31 441.913 152.816V127.899Z" fill="white"/>
<path d="M232.385 100.571C241.932 104.615 250.867 102.118 253.348 93.3947C255.861 84.5574 248.052 78.1803 243.066 74.7368C231.667 77.8254 228.815 92.2808 232.389 100.571H232.385Z" fill="white"/>
<path d="M409.787 164.578C417.429 169.099 429.657 165.133 429.13 153.795C428.873 148.128 425.972 143.317 421.868 140.841C417.772 138.368 412.46 138.221 407.441 141.869C401.913 145.884 402.153 160.062 409.787 164.578Z" fill="white"/>
<path d="M232.005 127.732C237.901 127.026 238.215 122.983 241.548 122.497C245.053 121.987 255.118 122.26 253.58 110.62C253.274 108.319 251.989 106.83 250.108 105.949C245.543 103.811 237.481 105.137 231.43 106.434C226.208 111.379 225.881 119.596 232.005 127.732Z" fill="white"/>
<path d="M361.863 159.723C366.074 165.133 383.271 155.378 375.625 146.765C374.593 145.603 373.52 144.844 372.439 144.387C364.907 141.192 357.2 153.734 361.863 159.723Z" fill="white"/>
<path d="M274.062 168.332C280.21 156.671 261.871 137.789 253.213 149.054C242.103 163.517 267.305 181.139 274.062 168.332Z" fill="white"/>
<path d="M233.6 154.603C245.2 158.169 256.436 145.374 251.45 132.754C250.194 129.572 248.505 127.863 246.587 127.132C241.471 125.186 234.71 130.229 230.116 133.081C226.652 139.552 227.334 149.181 233.6 154.599V154.603Z" fill="white"/>
<path d="M315.564 183.722C313.834 181.388 312.047 179.842 310.268 178.956C300.912 174.301 292.006 187.622 295.433 197.818C305.139 201.208 314.487 192.494 315.564 183.726V183.722Z" fill="white"/>
<path d="M295.111 125.272C295.686 132.701 309.835 136.206 316.681 125.937C321.81 118.229 316.514 112.122 311.055 110.061C309.235 109.376 307.424 109.143 305.951 109.449C300.064 110.665 294.654 119.364 295.111 125.272Z" fill="white"/>
<path d="M379.55 164.46C383.593 170.527 399.534 170.36 401.66 159.74C403.259 151.776 399.754 145.141 394.985 142.489C393.389 141.604 391.66 141.151 389.93 141.245C382.998 141.625 374.083 156.259 379.55 164.46Z" fill="white"/>
<path d="M408.938 124.158C412.374 134.35 425.85 143.62 434.989 132.245C444.129 120.87 437.441 111.037 426.825 106.239C418.763 102.595 405.499 113.966 408.938 124.158Z" fill="white"/>
<path d="M352.557 126.549C351.537 121.473 347.347 118.091 343.026 116.28C338.705 114.468 334.254 114.215 332.63 115.39C328.958 118.063 327.604 134.562 337.237 138.43C346.878 142.302 354.613 136.704 352.557 126.549Z" fill="white"/>
<path d="M334.85 139.805C325.217 134.354 316.017 157.573 323.532 161.771C328.538 164.562 344.475 145.255 334.85 139.805Z" fill="white"/>
<path d="M279.362 128.621C277.367 136.116 293.94 143.607 297.705 136.565C299.586 133.044 295.604 128.731 290.855 126.471C286.11 124.211 280.598 123.974 279.362 128.621Z" fill="white"/>
<path d="M305.821 77.5155C302.459 75.7815 298.448 75.4103 296.824 76.1365C291.524 78.5029 287.456 90.7715 293.348 96.0673C299.24 101.363 313.238 91.0081 312.41 85.5246C311.994 82.7828 309.182 79.2495 305.821 77.5155Z" fill="white"/>
<path d="M284.229 149.413C287.04 143.921 284.882 139.711 281.52 137.793C278.162 135.876 273.597 136.243 271.651 139.845C266.738 148.944 278.68 160.254 284.229 149.413Z" fill="white"/>
<path d="M282.54 175.411C289.452 181.515 303.242 179.426 303.311 164.791C303.356 157.479 300.402 153.624 296.832 151.833C293.262 150.046 289.072 150.299 286.669 151.274C281.863 153.224 273.735 167.63 282.54 175.411Z" fill="white"/>
<path d="M441.913 81.5012C441.203 81.4237 440.461 81.3707 439.661 81.3747C434.528 81.3992 427.731 92.966 430.187 99.3594C432.064 104.255 436.903 108.874 441.913 108.29V81.4971V81.5012Z" fill="white"/>
<path d="M353.32 157.557C358.085 156.247 361.39 148.556 357.151 144.219C356.612 143.673 355.964 143.22 355.25 142.836C350.231 140.152 341.468 141.327 340.129 146.084C338.363 152.42 348.546 158.862 353.32 157.557Z" fill="white"/>
<path d="M367.147 140.302C369.885 134.488 367.314 130.563 363.801 129.429C360.289 128.295 355.817 129.947 354.74 135.239C353.357 142.028 363.41 148.226 367.147 140.302Z" fill="white"/>
<path d="M374.148 143.061C378.738 146.786 390.489 138.646 390.619 131.143C390.709 126.455 386.837 121.33 382.353 118.976C379.66 117.561 376.772 117.14 374.381 118.413C368.848 121.363 365.935 136.398 374.148 143.061Z" fill="white"/>
<path d="M357.004 125.06C361.325 131.004 377.469 119.225 371.068 111.624C367.869 107.822 362.924 109.238 359.521 112.583C356.119 115.929 354.209 121.216 357.004 125.06Z" fill="white"/>
<path d="M386.482 89.5023C385.601 87.5479 384.161 86.0751 382.451 85.1815C377.351 82.5091 369.738 84.7654 366.527 92.7581C363.479 100.371 371.153 113.256 380.158 110.184C389.167 107.112 390.032 97.3236 386.478 89.5023H386.482Z" fill="white"/>
<path d="M398.216 95.5488C389.13 95.7977 382.223 111.347 388.689 119.633C393.075 125.255 405.413 124.011 408.212 114.362C410.322 107.128 408.759 100.004 404.01 97.0054C402.423 96.0017 400.477 95.4876 398.212 95.5529L398.216 95.5488Z" fill="white"/>
<path d="M424.63 79.6941C421.068 78.1641 416.344 78.5272 412.382 81.2853C407.825 84.4595 405.728 99.4453 412.419 103.334C419.11 107.222 428.425 99.0088 429.877 89.433C430.607 84.6472 428.192 81.22 424.63 79.69V79.6941Z" fill="white"/>
<path d="M399.024 125.035C389.599 128.095 393.843 146.251 404.393 141.065C412.313 137.181 409.269 128.821 404.308 125.843C402.643 124.847 400.779 124.468 399.028 125.035H399.024Z" fill="white"/>
<path d="M402.006 82.1095C401.252 80.9835 399.746 79.4902 398.02 78.6171C396.294 77.7439 394.34 77.4951 392.667 78.8496C389.31 81.5587 387.837 95.3818 400.758 92.9297C405.287 92.0729 403.512 84.3658 402.006 82.1136V82.1095Z" fill="white"/>
</g>
<path d="M441.913 68.0942H18.6212L18.7272 175.659H441.913V68.0942Z" fill="#FF9775"/>
<mask id="mask0_40_2926" style="mask-type:luminance" maskUnits="userSpaceOnUse" x="18" y="68" width="424" height="108">
<path d="M441.913 68.0942H18.6212L18.7272 175.659H441.913V68.0942Z" fill="white"/>
</mask>
<g mask="url(#mask0_40_2926)">
<path d="M244.225 183.395C238.745 189.454 221.201 190.4 217.374 182.143C209.251 192.53 189.451 188.617 185.473 178.254C177.529 183.73 167.933 182.191 162.719 172.534C162.808 180.225 152.441 187.757 144.73 183.889C139.699 198.344 119.838 204.636 110.797 198.152C107.594 216.684 81.2777 214.464 78.3809 203.354C66.9121 212.881 50.5676 207.226 48.8866 194.011C33.0317 196.72 19.2373 179.609 20.4531 167.834C2.8887 166.018 0.26118 142.436 8.08254 134.439C-1.50546 129.364 -3.17418 117.621 6.38526 106.385C-1.61562 99.4123 -1.85226 82.5374 9.63702 76.0217C4.31262 58.3675 13.5293 38.6815 32.5707 43.5612C36.2672 18.4651 65.3453 21.0886 72.9505 31.0846C85.831 23.3978 99.3481 36.6211 98.6341 48.139C106.198 46.6294 111.604 49.8158 113.261 55.5972C119.271 48.139 130.666 43.0226 140.27 50.489C145.872 34.0181 168.463 31.2559 176.444 43.2756C184.559 35.8908 194.567 35.9357 200.516 45.079C211.54 36.0581 218.611 39.2201 223.49 48.9305C227.415 43.2838 233.723 40.9745 239.822 41.101L244.221 183.391L244.225 183.395Z" fill="#FA8B46"/>
<g opacity="0.43">
<path d="M78.9033 128.992C78.6381 134.733 75.7005 139.6 71.547 142.109C67.3936 144.615 62.0202 144.761 56.9366 141.069C51.3388 137.005 51.5795 122.648 59.3152 118.074C67.0509 113.5 79.4337 117.515 78.9033 128.992Z" fill="white"/>
<path d="M39.0865 94.3407C48.3848 93.9979 55.6758 103.362 52.1139 113.48C50.7798 117.274 48.1645 119.559 45.1004 120.551C39.9923 122.203 33.6723 120.224 30.033 115.43C25.7571 109.796 29.7841 94.6834 39.0824 94.3407H39.0865Z" fill="white"/>
<path d="M92.4325 142.836C87.3366 136.446 99.85 124.255 107.688 122.085C115.533 119.91 121.552 127.438 116.86 134.647C114.616 138.086 110.499 142.64 105.954 145.084C101.396 147.528 96.4391 147.862 92.4325 142.84V142.836Z" fill="white"/>
<path d="M110.221 144.631C120.344 137.201 131.78 153.529 130.34 158.76C129.071 163.354 119.034 172.101 111.029 167.442C106.827 164.986 100.099 152.056 110.221 144.631Z" fill="white"/>
<path d="M63.5788 146.977C69.7886 152.35 73.9746 169.633 62.0855 173.803C60.3882 174.399 58.3605 174.725 55.9614 174.713C50.2168 174.684 42.6198 161.751 45.3616 154.602C48.1074 147.454 56.4796 140.832 63.5788 146.973V146.977Z" fill="white"/>
<path d="M106.635 67.1065C104.367 68.3713 101.731 68.5998 99.3563 67.5349C93.3546 64.8298 91.4003 53.7567 101.356 47.7918C105.937 47.547 109.503 49.2116 111.621 52.1778C111.694 52.5572 111.764 52.9203 111.845 53.3283C113.151 60.0358 110.409 65.0012 106.631 67.1024L106.635 67.1065Z" fill="white"/>
<path d="M37.9686 154.496C30.9469 154.268 30.3022 143.725 30.6164 139.135C30.9265 134.541 36.3733 122.538 46.7977 127.43C52.0609 129.902 46.712 148.956 40.5879 153.529C39.7148 154.182 38.8458 154.529 37.9686 154.5V154.496Z" fill="white"/>
<path d="M134.644 73.3532C133.114 74.0142 131.29 74.6017 129.214 75.075C112.645 78.8368 113.82 57.9308 115.415 53.6632C115.501 53.4347 115.631 53.1776 115.79 52.9084C121.507 47.6288 129.997 44.6382 137.761 48.8732C137.863 49.0364 137.965 49.1915 138.063 49.3669C143.694 59.5261 145.411 68.698 134.644 73.3532Z" fill="white"/>
<path d="M239.827 76.6539C226.138 76.2214 220.871 59.5954 225.522 47.2738C225.722 46.7475 225.995 46.2457 226.326 45.7642C230.12 42.4186 235.041 41.0192 239.827 41.1171V76.6539Z" fill="white"/>
<path d="M100.637 99.9751C104.587 93.7204 118.638 100.599 111.739 110.457C111.025 111.485 110.221 112.191 109.393 112.676C103.612 116.042 96.2391 106.952 100.633 99.9792L100.637 99.9751Z" fill="white"/>
<path d="M164.84 67.4412C162.099 68.3919 159.132 68.6734 156.227 68.2817C145.35 66.8047 142.209 52.6267 142.914 45.2623C150.328 34.5605 166.407 32.9162 174.461 40.8886C174.62 41.2966 174.775 41.7046 174.91 42.1452C179.112 55.8377 173.041 64.5934 164.844 67.4453L164.84 67.4412Z" fill="white"/>
<path d="M188.533 182.742C187.843 173.733 192.968 158.14 203.515 161.085C213.396 163.852 219.198 171.396 216.199 182.428C216.044 182.995 215.828 183.525 215.583 184.04C208.207 190.596 194.996 188.964 188.533 182.742Z" fill="white"/>
<path d="M166.199 177.23C163.38 169.788 167.133 158.813 176.183 160.298C183.882 161.567 188.908 168.389 184.791 178.674C178.541 182.624 171.401 182.326 166.199 177.222V177.23Z" fill="white"/>
<path d="M114.526 199.955C111.706 190.747 108.308 177.87 119.263 170.502C131.931 161.975 138.096 172.889 142.792 186.679C142.894 186.977 142.959 187.275 143.029 187.573C137.125 197.793 123.432 202.673 114.522 199.955H114.526Z" fill="white"/>
<path d="M147.561 157.801C161.731 151.95 161.735 166.863 161.996 176.128C159.875 181.518 153.286 185.847 147.329 184.737C142.592 177.968 134.599 163.15 147.561 157.797V157.801Z" fill="white"/>
<path d="M74.7661 177.299C83.3178 181.277 81.8612 196.247 76.3165 204.872C66.1287 211.49 53.2441 207.438 49.6904 197.414C49.7271 196.989 49.772 196.553 49.8373 196.104C52.4689 177.585 65.9166 173.182 74.7661 177.299Z" fill="white"/>
<path d="M20.4899 71.0154C16.7853 72.6188 12.3421 72.2353 8.5559 71.2276C6.33638 56.8415 13.3336 42.7084 27.0546 42.8185C31.461 51.0968 33.754 65.2748 20.4899 71.0113V71.0154Z" fill="white"/>
<path d="M95.6271 72.1495C104.052 74.7688 106.182 88.9509 100.49 95.3116C99.0706 96.8988 97.0347 98.1432 94.7417 98.8816C87.8669 101.097 78.6829 99.0571 77.0753 90.232C76.3858 86.454 80.3801 82.8595 84.0277 79.42C87.7935 75.8704 91.3431 70.8194 95.623 72.1495H95.6271Z" fill="white"/>
<path d="M239.827 183.742C239.68 184.199 239.521 184.672 239.341 185.178C234.58 189.772 225.135 190.18 219.941 185.582C218.484 179.364 218.594 167.487 224.265 163.378C230.92 158.56 236.098 162.346 239.072 169.233C239.451 170.11 239.606 170.996 239.827 171.771V183.737V183.742Z" fill="white"/>
<path d="M123.951 138.511C122.233 132.264 124.714 127.315 128.969 124.696C133.224 122.081 139.275 121.779 144.754 124.79C151.07 128.254 156.223 147.83 148.394 154.101C140.572 160.367 127.39 150.992 123.946 138.507L123.951 138.511Z" fill="white"/>
<path d="M88.2873 186.214C82.0367 185.569 78.4382 180.926 79.8254 174.929C81.2575 168.727 93.8647 163.746 98.2425 162.677C102.62 161.608 109.744 169.017 106.961 178.046C105.917 181.432 103.885 183.517 101.453 184.762C97.402 186.838 92.1959 186.618 88.2873 186.214Z" fill="white"/>
<path d="M21.8077 176.398C21.8974 176.083 21.9994 175.769 22.1178 175.459C27.075 162.485 39.013 160.673 43.4684 170.021C47.679 178.858 52.7341 181.64 44.6067 194.276C34.1374 193.799 25.1737 185.19 21.8118 176.398H21.8077Z" fill="white"/>
<path d="M239.827 107.837C233.511 104.492 228.603 98.0862 229.765 89.0572C230.304 84.8711 234.747 81.6561 239.827 79.9751V107.837Z" fill="white"/>
<path d="M5.5285 138.392C16.2059 133.872 26.1978 136.662 28.9681 146.418C31.7751 156.304 23.048 163.427 17.4707 167.283C4.72474 163.827 1.53418 147.666 5.5285 138.392Z" fill="white"/>
<path d="M203.902 66.8211C212.45 61.766 226.118 66.201 225.534 78.8775C225.249 85.2138 222.005 90.5912 217.415 93.3615C212.833 96.1237 206.897 96.291 201.283 92.215C195.102 87.723 195.371 71.8722 203.906 66.8211H203.902Z" fill="white"/>
<path d="M5.10421 108.021C11.6975 108.813 12.0484 113.329 15.7734 113.872C19.6943 114.443 30.9469 114.133 29.2293 127.156C28.8906 129.731 27.4504 131.395 25.3451 132.383C20.241 134.774 11.2242 133.293 4.45957 131.84C-1.37891 126.308 -1.74203 117.123 5.10421 108.025V108.021Z" fill="white"/>
<path d="M150.311 72.2474C155.02 66.1968 174.249 77.1067 165.697 86.7355C164.542 88.037 163.343 88.8856 162.135 89.3956C153.714 92.9656 145.097 78.9468 150.311 72.2433V72.2474Z" fill="white"/>
<path d="M52.1303 62.6188C59.0092 75.6544 38.4949 96.7725 28.8172 84.1735C16.3936 68.0004 44.5741 48.294 52.1303 62.6188Z" fill="white"/>
<path d="M6.88713 77.9716C19.8575 73.9855 32.4239 88.2899 26.8465 102.403C25.4389 105.965 23.5539 107.874 21.4079 108.69C15.6877 110.865 8.12745 105.226 2.99073 102.035C-0.881186 94.7975 -0.122307 84.0345 6.88713 77.9716Z" fill="white"/>
<path d="M75.6678 110.771C76.3125 102.46 92.1306 98.543 99.7888 110.024C105.521 118.641 99.6011 125.475 93.4974 127.776C91.4656 128.543 89.4378 128.804 87.7895 128.462C81.2044 127.103 75.1578 117.376 75.6678 110.767V110.771Z" fill="white"/>
<path d="M170.087 66.9517C174.608 60.1707 192.433 60.3543 194.812 72.2312C196.599 81.1378 192.682 88.5553 187.35 91.5214C185.567 92.5088 183.633 93.0188 181.695 92.9127C173.947 92.4884 163.971 76.1194 170.091 66.9517H170.087Z" fill="white"/>
<path d="M202.951 112.02C206.795 100.62 221.862 90.2568 232.083 102.978C242.303 115.7 234.82 126.695 222.952 132.06C213.939 136.132 199.104 123.419 202.947 112.024L202.951 112.02Z" fill="white"/>
<path d="M139.903 109.343C138.761 115.018 134.081 118.8 129.246 120.824C124.416 122.848 119.434 123.129 117.622 121.819C113.514 118.829 112 100.379 122.771 96.0543C133.551 91.7254 142.2 97.9841 139.903 109.343Z" fill="white"/>
<path d="M120.103 94.5201C109.332 100.616 99.0421 74.6505 107.447 69.9585C113.045 66.8373 130.862 88.4287 120.103 94.5201Z" fill="white"/>
<path d="M58.0544 107.026C55.8227 98.6412 74.3581 90.2691 78.5646 98.1435C80.6699 102.081 76.2145 106.907 70.9064 109.433C65.5984 111.958 59.4376 112.224 58.0544 107.03V107.026Z" fill="white"/>
<path d="M87.6467 164.178C83.889 166.116 79.4051 166.532 77.5854 165.72C71.6613 163.077 67.108 149.356 73.6972 143.435C80.2823 137.515 95.9413 149.09 95.0152 155.223C94.5501 158.287 91.4085 162.236 87.6508 164.178H87.6467Z" fill="white"/>
<path d="M63.5013 83.7777C66.6469 89.9181 64.2316 94.6265 60.4739 96.7725C56.7203 98.9186 51.6121 98.5065 49.4334 94.4755C43.9417 84.3 57.2956 71.6561 63.5013 83.7777Z" fill="white"/>
<path d="M61.6122 54.7076C69.3397 47.8817 84.7621 50.2196 84.8396 66.5845C84.8886 74.7608 81.5838 79.0733 77.5935 81.0725C73.6033 83.0717 68.9154 82.7902 66.2267 81.7009C60.8492 79.5181 51.7631 63.4102 61.6081 54.7117L61.6122 54.7076Z" fill="white"/>
<path d="M140.76 74.6707C146.089 76.1355 149.785 84.7361 145.044 89.5872C144.44 90.1992 143.718 90.7051 142.919 91.1335C137.304 94.1364 127.508 92.8186 126.011 87.4983C124.032 80.4154 135.419 73.2101 140.764 74.6707H140.76Z" fill="white"/>
<path d="M156.219 93.9653C159.283 100.469 156.407 104.859 152.478 106.124C148.549 107.389 143.551 105.544 142.343 99.6283C140.797 92.0355 152.037 85.1035 156.219 93.9653Z" fill="white"/>
<path d="M164.049 90.8809C169.181 86.7153 182.323 95.8177 182.466 104.21C182.568 109.449 178.235 115.181 173.221 117.813C170.21 119.392 166.982 119.865 164.306 118.441C158.121 115.141 154.865 98.331 164.049 90.8809Z" fill="white"/>
<path d="M144.881 111.007C149.712 104.361 167.761 117.531 160.609 126.034C157.031 130.285 151.503 128.707 147.696 124.961C143.889 121.22 141.756 115.308 144.881 111.007Z" fill="white"/>
<path d="M177.839 150.771C176.852 152.958 175.244 154.602 173.335 155.602C167.631 158.588 159.12 156.067 155.53 147.128C152.119 138.613 160.703 124.206 170.773 127.642C180.846 131.077 181.813 142.02 177.839 150.771Z" fill="white"/>
<path d="M190.964 144.011C180.805 143.733 173.078 126.348 180.312 117.079C185.22 110.791 199.014 112.182 202.144 122.974C204.502 131.065 202.756 139.029 197.443 142.383C195.669 143.505 193.494 144.08 190.96 144.007L190.964 144.011Z" fill="white"/>
<path d="M220.496 161.738C216.513 163.448 211.226 163.044 206.799 159.96C201.703 156.41 199.361 139.653 206.84 135.304C214.318 130.955 224.739 140.139 226.363 150.845C227.179 156.194 224.478 160.029 220.496 161.738Z" fill="white"/>
<path d="M191.862 111.036C181.324 107.617 186.069 87.315 197.864 93.1086C206.717 97.4538 203.315 106.801 197.766 110.13C195.905 111.244 193.821 111.669 191.862 111.032V111.036Z" fill="white"/>
<path d="M195.2 159.037C194.359 160.298 192.674 161.967 190.74 162.946C188.81 163.925 186.627 164.202 184.755 162.685C180.997 159.657 179.353 144.198 193.804 146.94C198.867 147.899 196.885 156.516 195.2 159.037Z" fill="white"/>
</g>
</g>
<mask id="mask1_40_2926" style="mask-type:luminance" maskUnits="userSpaceOnUse" x="18" y="68" width="424" height="108">
<path d="M441.913 68.0942H18.6212L18.7272 175.659H441.913V68.0942Z" fill="white"/>
</mask>
<g mask="url(#mask1_40_2926)">
<path d="M600.976 70.4323C600.821 59.0654 586.239 55.2628 577.765 60.3628C570.837 49.5508 556.545 53.0311 551.51 61.6195C545.378 55.0099 529.343 56.087 523.754 66.3563C517.042 58.18 500.934 62.8639 497.311 72.1255C491.889 65.7607 480.995 65.2384 475.308 71.1911C470.493 56.6867 452.133 53.5125 443.451 60.0854C439.102 53.7491 426.25 53.6716 422.647 61.4481C415.381 52.1579 397.678 55.6545 394.116 64.9243C387.013 60.0283 378.432 61.4032 373.769 70.0406C373.846 63.1658 364.577 56.4256 357.681 59.8855C353.181 46.96 335.421 41.3337 327.338 47.1314C324.474 30.5625 300.941 32.5413 298.35 42.4761C288.093 33.9571 273.474 39.0122 271.977 50.8319C257.799 48.4084 229.851 52.2967 230.94 62.8271C223.356 63.6105 226.726 70.7097 227.86 79.2899C229.076 88.4781 227.444 100.273 234.669 104.109C244.372 116.238 237.738 190.409 254.763 186.047C258.068 208.491 286.694 205.48 293.495 196.537C305.013 203.412 317.102 191.584 316.465 181.282C323.23 182.632 328.065 179.784 329.546 174.611C334.919 181.278 345.111 185.855 353.699 179.181C358.71 193.913 378.91 196.382 386.05 185.631C393.308 192.237 402.255 192.196 407.576 184.019C417.433 192.086 423.757 189.258 428.123 180.576C435.389 191.033 451.819 188.716 456.728 180.694C468.551 190.078 481.477 188.503 485.043 179.466C495.871 184.432 510.437 180.392 514.619 170.539C524.525 174.011 538.952 166.569 538.581 156.186C548.536 157.23 555.345 151.836 556.798 138.254C564.325 139.939 572.151 138.682 572.751 120.996C586.117 121.404 592.955 117.063 595.986 99.8042C613.514 91.6523 610.466 73.325 600.976 70.4363V70.4323Z" fill="#FA8B46"/>
<g opacity="0.43">
<path d="M298.82 108.98C298.583 103.847 295.955 99.4899 292.243 97.25C288.526 95.01 283.724 94.8795 279.178 98.1802C274.172 101.815 274.388 114.655 281.304 118.743C288.224 122.836 299.293 119.245 298.82 108.98Z" fill="white"/>
<path d="M263.209 139.968C271.524 140.274 278.044 131.902 274.862 122.852C273.666 119.462 271.329 117.413 268.591 116.528C264.025 115.047 258.37 116.822 255.119 121.106C251.296 126.145 254.898 139.662 263.213 139.968H263.209Z" fill="white"/>
<path d="M238.925 157.218C247.24 157.524 253.76 149.152 250.578 140.103C249.382 136.708 247.044 134.664 244.307 133.779C239.741 132.298 234.086 134.072 230.835 138.356C227.012 143.395 230.614 156.912 238.929 157.218H238.925Z" fill="white"/>
<path d="M237.081 85.3774C245.396 85.6834 251.916 77.3112 248.734 68.2618C247.538 64.8672 245.2 62.8231 242.463 61.9378C237.897 60.4567 232.242 62.2315 228.99 66.5155C225.167 71.5543 228.77 85.0714 237.085 85.3774H237.081Z" fill="white"/>
<path d="M310.917 96.5973C306.359 102.313 317.551 113.215 324.556 115.157C331.57 117.103 336.951 110.367 332.757 103.925C330.75 100.849 327.07 96.7768 323.006 94.594C318.93 92.4071 314.495 92.1093 310.913 96.6014L310.917 96.5973Z" fill="white"/>
<path d="M326.825 94.99C335.878 101.632 346.107 87.0299 344.817 82.3542C343.683 78.2457 334.707 70.4202 327.547 74.59C323.789 76.785 317.771 88.3477 326.825 94.99Z" fill="white"/>
<path d="M285.115 92.8925C290.668 88.0863 294.409 72.6312 283.777 68.9021C282.259 68.3676 280.443 68.0779 278.301 68.0861C273.165 68.1106 266.367 79.6774 268.823 86.0707C271.28 92.4641 278.766 98.3842 285.115 92.8925Z" fill="white"/>
<path d="M323.618 164.321C321.586 163.191 319.232 162.983 317.11 163.938C311.741 166.357 309.995 176.259 318.897 181.592C322.998 181.812 326.184 180.323 328.077 177.667C328.142 177.328 328.208 177.006 328.277 176.639C329.444 170.637 326.992 166.202 323.614 164.321H323.618Z" fill="white"/>
<path d="M262.21 86.169C255.931 86.373 255.355 95.8019 255.633 99.9064C255.91 104.015 260.782 114.749 270.105 110.376C274.813 108.164 270.027 91.1262 264.552 87.034C263.768 86.4505 262.993 86.1404 262.21 86.1649V86.169Z" fill="white"/>
<path d="M245.355 87.0826C239.076 87.2866 238.501 96.7155 238.778 100.82C239.056 104.928 243.927 115.663 253.25 111.289C257.958 109.078 253.173 92.0398 247.697 87.9475C246.914 87.3641 246.139 87.054 245.355 87.0785V87.0826Z" fill="white"/>
<path d="M348.665 158.736C347.298 158.144 345.666 157.618 343.806 157.193C328.987 153.827 330.036 172.526 331.468 176.341C331.545 176.545 331.664 176.773 331.802 177.014C336.915 181.735 344.507 184.411 351.452 180.625C351.541 180.478 351.635 180.339 351.721 180.184C356.756 171.098 358.294 162.897 348.665 158.736Z" fill="white"/>
<path d="M291.439 197.365C294.536 188.597 291.198 181.735 284.544 178.185C282.324 177.002 279.758 176.219 276.922 175.823C267.244 174.468 260.545 182.632 258.191 189.034C259.48 193.395 261.765 196.59 264.592 198.805C269.57 201.102 276.237 202.8 281.741 202.612C284.915 202.09 287.857 201 290.17 199.511C290.709 198.895 291.145 198.193 291.439 197.365Z" fill="white"/>
<path d="M447.654 156.565C446.361 156.068 444.945 155.778 443.358 155.766C430.648 155.652 425.712 170.85 429.939 182.057C430.114 182.527 430.359 182.975 430.657 183.408C437.193 189.173 447.47 188.512 453.431 184.171C453.811 183.677 454.149 183.134 454.439 182.547C458.556 174.216 456.699 160.054 447.654 156.565Z" fill="white"/>
<path d="M401.485 172.775C398.469 170.907 394.3 171.107 391.142 172.938C385.299 176.325 386.841 183.653 387.972 187.169C393.288 191.025 399.212 191.482 403.875 188.022C404.296 187.153 404.651 186.141 404.92 184.958C406.372 178.565 404.504 174.644 401.489 172.775H401.485Z" fill="white"/>
<path d="M318.257 134.929C321.79 140.523 334.356 134.37 328.187 125.557C327.547 124.639 326.833 124.007 326.09 123.574C320.921 120.563 314.328 128.695 318.257 134.929Z" fill="white"/>
<path d="M238.815 126.81C242.348 132.403 254.915 126.251 248.746 117.438C248.105 116.52 247.391 115.888 246.649 115.455C241.479 112.444 234.886 120.575 238.815 126.81Z" fill="white"/>
<path d="M375.67 164.023C373.218 163.171 370.566 162.922 367.967 163.273C358.241 164.594 355.43 177.275 356.062 183.86C362.692 193.432 377.07 194.901 384.271 187.773C384.414 187.41 384.553 187.043 384.675 186.647C388.437 174.403 383.002 166.569 375.67 164.023Z" fill="white"/>
<path d="M422.305 171.082C420.09 169.825 417.291 169.332 414.202 169.813C406.038 171.082 407.038 180.829 409.428 185.427C417.576 191.221 423.15 189.083 427.172 182.302C427.956 177.218 425.924 173.138 422.301 171.082H422.305Z" fill="white"/>
<path d="M396.862 60.9097C396.242 68.9677 400.828 82.9131 410.261 80.2774C419.098 77.8049 424.288 71.0566 421.603 61.1912C421.464 60.6853 421.273 60.2079 421.052 59.751C414.455 53.888 402.639 55.3445 396.862 60.9097Z" fill="white"/>
<path d="M376.886 65.838C374.365 72.4925 377.723 82.3049 385.813 80.9789C392.696 79.8447 397.192 73.741 393.512 64.5447C387.923 61.0114 381.537 61.2807 376.886 65.8421V65.838Z" fill="white"/>
<path d="M330.676 45.5156C328.155 53.749 325.115 65.2669 334.911 71.8561C346.242 79.4816 351.754 69.7222 355.956 57.3884C356.046 57.1191 356.107 56.8539 356.168 56.5887C350.889 47.4495 338.645 43.0839 330.676 45.5156Z" fill="white"/>
<path d="M360.219 83.215C372.892 88.4497 372.896 75.1122 373.129 66.8257C371.231 62.0072 365.34 58.1353 360.011 59.1267C355.772 65.1774 348.628 78.4333 360.219 83.2191V83.215Z" fill="white"/>
<path d="M295.119 65.777C302.765 62.2192 301.463 48.8327 296.506 41.1174C287.396 35.2014 275.874 38.8245 272.695 47.7882C272.728 48.1677 272.769 48.5594 272.826 48.9592C275.18 65.5199 287.204 69.4571 295.119 65.777Z" fill="white"/>
<path d="M313.773 159.813C321.309 157.471 323.214 144.79 318.122 139.099C316.853 137.679 315.033 136.565 312.981 135.904C306.833 133.921 298.62 135.745 297.183 143.64C296.567 147.018 300.141 150.233 303.401 153.31C306.771 156.484 309.942 161 313.769 159.813H313.773Z" fill="white"/>
<path d="M424.949 58.3717C423.647 63.9327 423.741 74.557 428.817 78.229C434.765 82.5375 440.012 79.6652 442.06 72.9903C444.084 66.393 444.333 64.4835 442.301 58.7348C438.041 54.6262 429.596 54.2631 424.953 58.3717H424.949Z" fill="white"/>
<path d="M339.106 100.465C337.571 106.051 339.787 110.478 343.594 112.819C347.4 115.161 352.81 115.427 357.71 112.734C363.357 109.637 367.967 92.1298 360.966 86.5198C353.973 80.9139 342.182 89.2983 339.106 100.465Z" fill="white"/>
<path d="M307.212 57.8048C301.623 58.38 298.403 62.5335 299.644 67.8987C300.925 73.4475 312.198 77.8988 316.115 78.8535C320.032 79.8082 326.4 73.1823 323.912 65.108C322.977 62.0806 321.162 60.216 318.987 59.1022C315.364 57.2458 310.709 57.4457 307.212 57.8048Z" fill="white"/>
<path d="M250.157 66.5807C250.239 66.8622 250.329 67.1437 250.435 67.4211C254.87 79.0247 265.543 80.6444 269.525 72.2845C273.291 64.3815 277.812 61.8927 270.541 50.5952C261.177 51.0236 253.164 58.7226 250.153 66.5847L250.157 66.5807Z" fill="white"/>
<path d="M454.492 153.077C460.486 150.266 467.018 132.265 458.682 127.169C450.347 122.073 431.701 128.936 433.729 144.688C434.655 151.894 448.499 155.884 454.492 153.073V153.077Z" fill="white"/>
<path d="M410.603 164.578C418.245 169.099 430.473 165.133 429.947 153.795C429.69 148.128 426.789 143.317 422.684 140.841C418.588 138.368 413.276 138.221 408.257 141.869C402.729 145.884 402.97 160.062 410.603 164.578Z" fill="white"/>
<path d="M362.68 159.723C366.89 165.133 384.088 155.378 376.442 146.765C375.409 145.602 374.336 144.843 373.255 144.386C365.723 141.192 358.016 153.733 362.68 159.723Z" fill="white"/>
<path d="M271.402 163.281C275.494 155.525 263.291 142.958 257.53 150.457C250.137 160.082 266.906 171.804 271.402 163.281Z" fill="white"/>
<path d="M316.38 183.722C314.65 181.388 312.863 179.842 311.084 178.956C301.729 174.301 292.822 187.622 296.249 197.818C305.956 201.208 315.303 192.494 316.38 183.726V183.722Z" fill="white"/>
<path d="M295.927 125.272C296.502 132.701 310.652 136.206 317.498 125.937C322.626 118.229 317.331 112.122 311.872 110.061C310.052 109.376 308.24 109.143 306.767 109.449C300.88 110.665 295.47 119.364 295.927 125.272Z" fill="white"/>
<path d="M380.363 164.46C384.406 170.527 400.346 170.36 402.472 159.74C404.071 151.776 400.567 145.141 395.797 142.489C394.202 141.604 392.472 141.151 390.742 141.245C383.81 141.625 374.895 156.259 380.363 164.46Z" fill="white"/>
<path d="M409.755 124.158C413.19 134.349 426.666 143.619 435.806 132.244C444.945 120.869 438.258 111.036 427.642 106.238C419.579 102.595 406.315 113.966 409.755 124.158Z" fill="white"/>
<path d="M353.373 126.548C352.353 121.473 348.163 118.091 343.842 116.279C339.522 114.468 335.07 114.215 333.447 115.39C329.775 118.062 328.42 134.562 338.053 138.429C347.694 142.301 355.43 136.704 353.373 126.548Z" fill="white"/>
<path d="M335.666 139.805C326.033 134.354 316.833 157.573 324.348 161.771C329.354 164.562 345.287 145.255 335.666 139.805Z" fill="white"/>
<path d="M280.174 128.621C278.179 136.116 294.756 143.607 298.518 136.565C300.399 133.044 296.417 128.731 291.667 126.471C286.922 124.211 281.41 123.974 280.174 128.621Z" fill="white"/>
<path d="M306.637 77.5151C303.275 75.7811 299.264 75.4098 297.64 76.136C292.341 78.5024 288.273 90.771 294.164 96.0668C300.056 101.363 314.054 91.0076 313.226 85.5241C312.81 82.7823 309.999 79.2491 306.637 77.5151Z" fill="white"/>
<path d="M285.045 149.413C287.857 143.921 285.698 139.711 282.336 137.793C278.979 135.876 274.413 136.243 272.467 139.845C267.555 148.944 279.497 160.254 285.045 149.413Z" fill="white"/>
<path d="M283.356 175.41C290.268 181.514 304.058 179.425 304.128 164.79C304.173 157.479 301.219 153.623 297.649 151.832C294.079 150.045 289.889 150.298 287.485 151.273C282.679 153.223 274.552 167.63 283.356 175.41Z" fill="white"/>
<path d="M445.949 82.1907C444.431 81.6562 442.623 81.3665 440.473 81.3747C435.34 81.3992 428.543 92.966 430.999 99.3593C433.447 105.749 440.938 111.673 447.283 106.177C452.84 101.375 456.581 85.9157 445.949 82.1866V82.1907Z" fill="white"/>
<path d="M354.136 157.557C358.902 156.247 362.207 148.556 357.967 144.219C357.429 143.673 356.78 143.22 356.066 142.836C351.048 140.152 342.284 141.327 340.946 146.084C339.179 152.42 349.363 158.862 354.136 157.557Z" fill="white"/>
<path d="M367.963 140.302C370.701 134.488 368.131 130.563 364.618 129.429C361.105 128.295 356.633 129.947 355.556 135.239C354.173 142.028 364.226 148.226 367.963 140.302Z" fill="white"/>
<path d="M374.961 143.061C379.551 146.786 391.301 138.646 391.432 131.143C391.521 126.455 387.649 121.33 383.165 118.976C380.473 117.561 377.584 117.14 375.193 118.413C369.661 121.363 366.748 136.398 374.961 143.061Z" fill="white"/>
<path d="M357.821 125.059C362.141 131.004 378.286 119.225 371.884 111.624C368.686 107.821 363.741 109.237 360.338 112.583C356.935 115.928 355.026 121.216 357.821 125.059Z" fill="white"/>
<path d="M387.294 89.5023C386.413 87.5479 384.973 86.0751 383.263 85.1815C378.163 82.5091 370.55 84.7654 367.339 92.7581C364.291 100.371 371.966 113.256 380.97 110.184C389.979 107.112 390.844 97.3236 387.29 89.5023H387.294Z" fill="white"/>
<path d="M399.033 95.5488C389.946 95.7977 383.039 111.347 389.506 119.633C393.892 125.255 406.23 124.011 409.033 114.362C411.142 107.128 409.579 100.004 404.83 97.0054C403.243 96.0017 401.297 95.4876 399.033 95.5529V95.5488Z" fill="white"/>
<path d="M425.442 79.6941C421.881 78.1641 417.156 78.5272 413.194 81.2853C408.637 84.4595 406.54 99.4453 413.231 103.334C419.922 107.222 429.237 99.0088 430.689 89.433C431.42 84.6472 429.004 81.22 425.442 79.69V79.6941Z" fill="white"/>
<path d="M399.836 125.035C390.412 128.095 394.655 146.251 405.206 141.065C413.125 137.181 410.081 128.821 405.12 125.843C403.455 124.847 401.591 124.468 399.84 125.035H399.836Z" fill="white"/>
<path d="M402.819 82.1091C402.064 80.983 400.558 79.4897 398.833 78.6166C397.107 77.7435 395.152 77.4946 393.48 78.8491C390.122 81.5583 388.649 95.3813 401.57 92.9292C406.099 92.0724 404.324 84.3653 402.819 82.1131V82.1091Z" fill="white"/>
</g>
</g>
<path d="M18.9148 228.172C18.9066 248.231 18.874 268.286 18.8414 288.345H441.869C441.881 279.81 441.905 271.276 441.914 262.744C441.958 228.255 442.725 193.698 441.869 159.216C441.808 156.778 441.702 155.411 441.013 154.619C440.022 153.478 437.828 153.546 432.826 153.353C412.322 152.552 391.92 151.248 371.371 151.535C324.733 152.188 278.71 159.877 232.206 160.263C204.571 160.491 177.067 157.944 149.66 155.34C135.268 153.973 120.917 152.244 106.451 151.488C93.7343 150.823 80.9606 151.713 68.2971 152.629C51.7806 153.822 35.2315 154.839 18.768 156.446C18.768 156.446 18.8699 179.784 18.8862 186.492C18.9189 200.386 18.9229 214.276 18.9148 228.169V228.172Z" fill="#FFDCD1"/>
<path d="M441.913 52.2312H18.6212L51.9996 0.296875H408.535L441.913 52.2312Z" fill="#FFBB75"/>
<path d="M441.913 52.2314H18.6212V68.0904H441.917V52.2314H441.913Z" fill="#FFD5AB"/>
<path d="M219.932 60.6443C210.259 71.8602 211.36 89.0084 222.393 98.9473C233.425 108.886 250.21 107.85 259.884 96.634C269.557 85.418 268.456 68.2698 257.423 58.3309C246.391 48.392 229.606 49.4284 219.936 60.6443H219.932Z" fill="#42210B"/>
<g opacity="0.89">
<path d="M235.506 123.762C226.464 134.247 210.773 135.214 200.463 125.924C190.152 116.634 189.12 100.608 198.166 90.1221C207.207 79.6365 222.899 78.6695 233.209 87.9597C243.519 97.2499 244.551 113.276 235.506 123.762Z" fill="#42210B"/>
</g>
<g opacity="0.89">
<path d="M229.422 91.9665C224.743 97.3888 216.628 97.8906 211.291 93.0844C205.954 88.2782 205.424 79.9876 210.104 74.5612C214.783 69.1348 222.899 68.637 228.235 73.4433C233.572 78.2495 234.102 86.5401 229.422 91.9665Z" fill="#42210B"/>
</g>
<g opacity="0.89">
<path d="M208.778 157.846C204.098 163.268 195.983 163.77 190.646 158.964C185.31 154.158 184.779 145.863 189.459 140.441C194.139 135.018 202.254 134.517 207.59 139.323C212.927 144.129 213.457 152.42 208.778 157.846Z" fill="#42210B"/>
</g>
<g opacity="0.89">
<path d="M220.406 243.42C215.726 248.842 207.611 249.344 202.274 244.538C196.937 239.732 196.407 231.441 201.087 226.015C205.767 220.588 213.882 220.091 219.218 224.897C224.555 229.703 225.085 237.994 220.406 243.42Z" fill="#42210B"/>
</g>
<g opacity="0.89">
<path d="M250.851 201.053C246.171 206.476 238.056 206.978 232.719 202.171C227.383 197.365 226.852 189.075 231.532 183.648C236.212 178.226 244.327 177.724 249.663 182.53C255 187.337 255.53 195.627 250.851 201.053Z" fill="#42210B"/>
</g>
<g opacity="0.89">
<path d="M281.185 139.213C276.506 144.635 268.391 145.137 263.054 140.331C257.717 135.524 257.187 127.234 261.867 121.807C266.546 116.381 274.661 115.883 279.998 120.689C285.335 125.496 285.865 133.786 281.185 139.213Z" fill="#42210B"/>
</g>
<path d="M225.241 111.432C234.049 101.22 249.329 100.277 259.374 109.323C269.419 118.372 270.418 133.982 261.614 144.194C252.809 154.407 237.525 155.349 227.48 146.304C217.435 137.254 216.436 121.644 225.241 111.432Z" fill="#42210B"/>
<path d="M238.953 51.7498C247.762 41.5376 263.042 40.5951 273.087 49.6404C283.132 58.6899 284.131 74.3 275.326 84.5122C266.518 94.7244 251.238 95.6669 241.193 86.6216C231.148 77.5721 230.149 61.962 238.953 51.7498Z" fill="#42210B"/>
<path d="M200.148 37.3392C208.957 27.1269 224.237 26.1844 234.282 35.2298C244.327 44.2792 245.326 59.8893 236.522 70.1016C227.713 80.3138 212.433 81.2563 202.388 72.2109C192.343 63.1615 191.344 47.5514 200.148 37.3392Z" fill="#42210B"/>
<path d="M198.802 194.284C207.611 184.072 222.89 183.13 232.935 192.175C242.98 201.225 243.98 216.835 235.175 227.047C226.371 237.259 211.087 238.202 201.042 229.156C190.997 220.111 189.997 204.497 198.802 194.284Z" fill="#42210B"/>
<path d="M200.083 157.748C208.892 147.536 224.171 146.594 234.216 155.639C244.261 164.684 245.261 180.298 236.456 190.511C227.648 200.723 212.368 201.665 202.323 192.62C192.278 183.571 191.279 167.961 200.083 157.748Z" fill="#42210B"/>
<path d="M244.359 80.0037C253.168 69.7915 268.448 68.849 278.493 77.8943C288.538 86.9438 289.537 102.554 280.733 112.766C271.924 122.978 256.644 123.921 246.599 114.875C236.554 105.826 235.555 90.2159 244.359 80.0037Z" fill="#42210B"/>
<path d="M218.541 149.299C227.35 139.086 242.629 138.144 252.674 147.189C262.719 156.239 263.719 171.849 254.914 182.061C246.106 192.273 230.826 193.216 220.781 184.17C210.736 175.121 209.736 159.511 218.541 149.299Z" fill="#42210B"/>
<path d="M203.115 226.353C209.618 218.81 220.908 218.112 228.325 224.795C235.742 231.478 236.485 243.012 229.977 250.552C223.474 258.096 212.185 258.794 204.767 252.111C197.35 245.427 196.607 233.893 203.115 226.353Z" fill="#42210B"/>
<path d="M256.518 137.915C261.891 131.685 271.218 131.11 277.346 136.63C283.474 142.15 284.086 151.677 278.713 157.907C273.34 164.138 264.013 164.713 257.885 159.193C251.756 153.672 251.144 144.146 256.518 137.915Z" fill="#42210B"/>
<path d="M252.65 153.872C258.023 147.642 267.35 147.067 273.478 152.587C279.607 158.107 280.219 167.634 274.845 173.864C269.472 180.094 260.145 180.669 254.017 175.149C247.889 169.629 247.277 160.102 252.65 153.872Z" fill="#42210B"/>
<path d="M193.829 193.84C199.202 187.61 208.529 187.034 214.657 192.555C220.785 198.075 221.397 207.602 216.024 213.832C210.65 220.062 201.324 220.637 195.195 215.117C189.067 209.597 188.455 200.07 193.829 193.84Z" fill="#42210B"/>
<path d="M234.2 31.7577C239.573 25.5276 248.9 24.9523 255.029 30.4725C261.157 35.9928 261.769 45.5196 256.395 51.7497C251.022 57.9799 241.695 58.5552 235.567 53.0349C229.439 47.5147 228.827 37.9879 234.2 31.7577Z" fill="#42210B"/>
<path d="M250.218 168.589C253.645 164.611 259.598 164.244 263.507 167.769C267.415 171.29 267.807 177.369 264.38 181.347C260.953 185.325 255 185.692 251.091 182.167C247.183 178.646 246.791 172.567 250.218 168.589Z" fill="#42210B"/>
<path d="M249.774 38.4488C253.201 34.4708 259.153 34.1036 263.062 37.6287C266.971 41.1498 267.362 47.229 263.935 51.207C260.504 55.185 254.555 55.5522 250.647 52.0271C246.738 48.506 246.346 42.4268 249.774 38.4488Z" fill="#42210B"/>
<path d="M249.092 140.27C252.519 136.292 258.472 135.924 262.381 139.45C266.289 142.971 266.681 149.05 263.254 153.028C259.823 157.006 253.874 157.373 249.965 153.848C246.057 150.327 245.665 144.248 249.092 140.27Z" fill="#42210B"/>
<path d="M193.543 108.854C202.352 98.6416 217.631 97.6991 227.676 106.744C237.721 115.794 238.721 131.404 229.916 141.616C221.107 151.828 205.828 152.771 195.783 143.726C185.738 134.676 184.738 119.066 193.543 108.854Z" fill="#42210B"/>
<path d="M220.173 89.388C228.982 79.1757 244.261 78.2333 254.306 87.2786C264.351 96.3281 265.351 111.938 256.546 122.15C247.738 132.363 232.458 133.305 222.413 124.26C212.368 115.21 211.368 99.6002 220.173 89.388Z" fill="#42210B"/>
<path d="M194.706 66.6255C200.838 59.5182 211.475 58.8613 218.468 65.1567C225.461 71.4562 226.159 82.3254 220.026 89.4327C213.894 96.5401 203.257 97.197 196.264 90.9015C189.271 84.602 188.574 73.7329 194.706 66.6255Z" fill="#42210B"/>
<path d="M178.488 82.9986C184.62 75.8912 195.257 75.2343 202.25 81.5298C209.243 87.8293 209.94 98.6984 203.808 105.806C197.676 112.913 187.039 113.57 180.046 107.275C173.053 100.975 172.356 90.1059 178.488 82.9986Z" fill="#42210B"/>
<path d="M210.193 140.196C216.326 133.089 226.962 132.432 233.955 138.728C240.948 145.027 241.646 155.896 235.514 163.004C229.382 170.111 218.745 170.768 211.752 164.472C204.759 158.173 204.061 147.304 210.193 140.196Z" fill="#42210B"/>
<path d="M226.868 95.4017C231.936 102.864 230.092 113.141 222.744 118.356C215.395 123.57 205.33 121.75 200.263 114.288C195.195 106.826 197.04 96.5481 204.388 91.3339C211.736 86.1197 221.801 87.9393 226.868 95.4017Z" fill="#42210B"/>
<g opacity="0.89">
<path d="M213.111 132.412C217.847 139.388 227.256 141.09 234.127 136.214C240.997 131.338 242.719 121.73 237.982 114.757C233.245 107.781 223.837 106.079 216.966 110.955C210.1 115.83 208.374 125.439 213.111 132.412Z" fill="#42210B"/>
</g>
<path d="M220.161 125.696C215.546 118.903 206.383 117.242 199.692 121.991C193.004 126.74 191.323 136.096 195.938 142.893C200.552 149.686 209.716 151.347 216.407 146.598C223.094 141.848 224.775 132.493 220.161 125.696Z" fill="#42210B"/>
<path d="M212.56 106.903C207.945 100.11 198.782 98.4495 192.09 103.199C185.403 107.948 183.722 117.303 188.337 124.1C192.951 130.894 202.115 132.554 208.806 127.805C215.493 123.056 217.174 113.701 212.56 106.903Z" fill="#42210B"/>
<path d="M230.659 124.19C234.645 130.062 233.192 138.144 227.415 142.249C221.638 146.349 213.719 144.917 209.732 139.046C205.746 133.175 207.199 125.092 212.976 120.988C218.753 116.887 226.673 118.319 230.659 124.19Z" fill="#42210B"/>
<g opacity="0.89">
<path d="M219.839 153.301C223.568 158.789 230.965 160.127 236.367 156.292C241.769 152.456 243.127 144.9 239.398 139.413C235.669 133.925 228.272 132.587 222.87 136.422C217.468 140.257 216.109 147.813 219.839 153.301Z" fill="#42210B"/>
</g>
<path d="M236.309 154.399C232.678 149.054 225.469 147.748 220.21 151.485C214.947 155.219 213.625 162.583 217.256 167.924C220.887 173.269 228.096 174.574 233.356 170.837C238.619 167.104 239.941 159.739 236.309 154.399Z" fill="#42210B"/>
<path d="M219.402 133.235C215.771 127.891 208.561 126.585 203.302 130.322C198.043 134.06 196.717 141.42 200.348 146.761C203.98 152.105 211.189 153.411 216.448 149.674C221.711 145.941 223.033 138.576 219.402 133.235Z" fill="#42210B"/>
<g opacity="0.73">
<path d="M197.133 89.6855C206.407 91.5827 215.408 85.4382 217.236 75.9563C219.063 66.4744 213.033 57.2495 203.759 55.3482C194.485 53.451 185.485 59.5955 183.657 69.0774C181.825 78.5594 187.86 87.7842 197.133 89.6855Z" fill="#42210B"/>
</g>
<g opacity="0.73">
<path d="M190.022 132.668C199.296 134.566 208.296 128.421 210.124 118.939C211.952 109.457 205.922 100.232 196.648 98.3311C187.374 96.4339 178.373 102.578 176.546 112.06C174.718 121.542 180.748 130.767 190.022 132.668Z" fill="#42210B"/>
</g>
<g opacity="0.73">
<path d="M262.34 135.937C271.328 138.932 280.977 133.901 283.89 124.701C286.804 115.504 281.875 105.618 272.887 102.628C263.898 99.633 254.249 104.664 251.336 113.864C248.423 123.06 253.352 132.946 262.34 135.937Z" fill="#42210B"/>
</g>
<g opacity="0.73">
<path d="M227.223 220.258C236.497 222.155 245.498 216.011 247.325 206.529C249.153 197.047 243.123 187.822 233.849 185.921C224.575 184.023 215.575 190.168 213.747 199.65C211.919 209.132 217.949 218.357 227.223 220.258Z" fill="#42210B"/>
</g>
<g opacity="0.73">
<path d="M204.167 237.773C213.441 239.671 222.442 233.526 224.269 224.044C226.097 214.562 220.067 205.337 210.793 203.436C201.519 201.539 192.519 207.683 190.691 217.165C188.863 226.647 194.893 235.872 204.167 237.773Z" fill="#42210B"/>
</g>
<path d="M201.475 158.446C204.442 158.446 206.848 156 206.848 152.983C206.848 149.965 204.442 147.52 201.475 147.52C198.507 147.52 196.101 149.965 196.101 152.983C196.101 156 198.507 158.446 201.475 158.446Z" fill="black"/>
<path d="M210.414 47.2783C213.381 47.2783 215.787 44.8324 215.787 41.8152C215.787 38.798 213.381 36.3521 210.414 36.3521C207.446 36.3521 205.04 38.798 205.04 41.8152C205.04 44.8324 207.446 47.2783 210.414 47.2783Z" fill="black"/>
<path d="M237.015 129.768C238.811 129.768 240.267 128.286 240.267 126.459C240.267 124.631 238.811 123.15 237.015 123.15C235.219 123.15 233.764 124.631 233.764 126.459C233.764 128.286 235.219 129.768 237.015 129.768Z" fill="black"/>
<path d="M246.754 62.1497C252.275 62.1497 256.75 57.5976 256.75 51.9823C256.75 46.367 252.275 41.8149 246.754 41.8149C241.234 41.8149 236.758 46.367 236.758 51.9823C236.758 57.5976 241.234 62.1497 246.754 62.1497Z" fill="black"/>
<path d="M207.517 75.9403C209.304 75.7404 210.593 74.1084 210.397 72.2928C210.202 70.4772 208.594 69.1634 206.811 69.3634C205.024 69.5633 203.735 71.1953 203.931 73.0109C204.126 74.8265 205.734 76.1362 207.517 75.9403Z" fill="black"/>
<path d="M208.17 232.894C209.966 232.894 211.421 231.412 211.421 229.585C211.421 227.757 209.966 226.276 208.17 226.276C206.374 226.276 204.918 227.757 204.918 229.585C204.918 231.412 206.374 232.894 208.17 232.894Z" fill="black"/>
<path d="M208.235 249.014C210.757 251.07 214.441 250.662 216.464 248.096C218.488 245.533 218.084 241.784 215.563 239.728C213.041 237.671 209.357 238.079 207.333 240.646C205.31 243.208 205.714 246.957 208.235 249.014Z" fill="black"/>
<path d="M208.517 82.9334C215.898 82.9334 221.883 76.8487 221.883 69.3429C221.883 61.8371 215.898 55.7524 208.517 55.7524C201.135 55.7524 195.151 61.8371 195.151 69.3429C195.151 76.8487 201.135 82.9334 208.517 82.9334Z" fill="black"/>
<path d="M255.955 143.064C263.337 143.064 269.321 136.98 269.321 129.474C269.321 121.968 263.337 115.883 255.955 115.883C248.573 115.883 242.589 121.968 242.589 129.474C242.589 136.98 248.573 143.064 255.955 143.064Z" fill="black"/>
<path d="M210.451 192.534C217.832 192.534 223.817 186.45 223.817 178.944C223.817 171.438 217.832 165.354 210.451 165.354C203.069 165.354 197.084 171.438 197.084 178.944C197.084 186.45 203.069 192.534 210.451 192.534Z" fill="black"/>
<path d="M206.468 121.355C213.85 121.355 219.834 115.27 219.834 107.764C219.834 100.258 213.85 94.1738 206.468 94.1738C199.086 94.1738 193.102 100.258 193.102 107.764C193.102 115.27 199.086 121.355 206.468 121.355Z" fill="black"/>
<path d="M224.983 239.099C228.912 238.663 231.752 235.068 231.324 231.07C230.895 227.071 227.358 224.187 223.429 224.623C219.5 225.06 216.66 228.654 217.089 232.653C217.517 236.651 221.054 239.536 224.983 239.099Z" fill="black"/>
<path d="M267.819 160.266C271.774 160.266 274.98 157.005 274.98 152.983C274.98 148.961 271.774 145.7 267.819 145.7C263.865 145.7 260.659 148.961 260.659 152.983C260.659 157.005 263.865 160.266 267.819 160.266Z" fill="black"/>
<path d="M246.754 187.292C250.709 187.292 253.915 184.031 253.915 180.009C253.915 175.987 250.709 172.726 246.754 172.726C242.8 172.726 239.594 175.987 239.594 180.009C239.594 184.031 242.8 187.292 246.754 187.292Z" fill="black"/>
<path d="M246.754 167.026C250.709 167.026 253.915 163.765 253.915 159.743C253.915 155.721 250.709 152.46 246.754 152.46C242.8 152.46 239.594 155.721 239.594 159.743C239.594 163.765 242.8 167.026 246.754 167.026Z" fill="black"/>
<path d="M227.113 53.8022C231.042 53.3657 233.882 49.7712 233.454 45.7728C233.025 41.7744 229.488 38.8898 225.559 39.3264C221.63 39.763 218.79 43.3574 219.218 47.3558C219.647 51.3542 223.184 54.2388 227.113 53.8022Z" fill="black"/>
<path d="M230.034 84.3654C233.989 84.3654 237.195 81.1048 237.195 77.0826C237.195 73.0604 233.989 69.7998 230.034 69.7998C226.08 69.7998 222.874 73.0604 222.874 77.0826C222.874 81.1048 226.08 84.3654 230.034 84.3654Z" fill="black"/>
<path d="M225.938 127.577C229.893 127.577 233.099 124.316 233.099 120.294C233.099 116.272 229.893 113.011 225.938 113.011C221.984 113.011 218.778 116.272 218.778 120.294C218.778 124.316 221.984 127.577 225.938 127.577Z" fill="black"/>
<path d="M221.503 146.573C225.432 146.137 228.272 142.542 227.844 138.544C227.415 134.545 223.878 131.661 219.949 132.097C216.02 132.534 213.18 136.128 213.608 140.127C214.037 144.125 217.574 147.01 221.503 146.573Z" fill="black"/>
<path d="M226.334 167.026C230.288 167.026 233.494 163.765 233.494 159.743C233.494 155.721 230.288 152.46 226.334 152.46C222.379 152.46 219.173 155.721 219.173 159.743C219.173 163.765 222.379 167.026 226.334 167.026Z" fill="black"/>
<path d="M241.503 119.029C243.719 118.784 245.318 116.757 245.077 114.5C244.837 112.248 242.842 110.62 240.626 110.865C238.411 111.11 236.811 113.138 237.052 115.394C237.293 117.646 239.288 119.274 241.503 119.029Z" fill="black"/>
<path d="M186.709 113.741C188.924 113.496 190.524 111.469 190.283 109.212C190.042 106.96 188.047 105.332 185.832 105.577C183.616 105.822 182.017 107.85 182.258 110.106C182.498 112.358 184.494 113.986 186.709 113.741Z" fill="black"/>
<path d="M237.423 203.697C241.137 203.697 244.147 200.638 244.147 196.863C244.147 193.089 241.137 190.029 237.423 190.029C233.71 190.029 230.699 193.089 230.699 196.863C230.699 200.638 233.71 203.697 237.423 203.697Z" fill="black"/>
<path d="M230.704 104.002C234.417 104.002 237.427 100.943 237.427 97.1685C237.427 93.3942 234.417 90.3345 230.704 90.3345C226.99 90.3345 223.98 93.3942 223.98 97.1685C223.98 100.943 226.99 104.002 230.704 104.002Z" fill="black"/>
<path d="M187.374 95.6587C191.085 95.6587 194.094 92.599 194.094 88.8247C194.094 85.0504 191.085 81.9907 187.374 81.9907C183.663 81.9907 180.654 85.0504 180.654 88.8247C180.654 92.599 183.663 95.6587 187.374 95.6587Z" fill="black"/>
<path d="M266.183 71.1504C269.897 71.1504 272.907 68.0907 272.907 64.3164C272.907 60.5421 269.897 57.4824 266.183 57.4824C262.47 57.4824 259.459 60.5421 259.459 64.3164C259.459 68.0907 262.47 71.1504 266.183 71.1504Z" fill="black"/>
<path d="M252.854 96.6258C258.023 96.6258 262.213 92.366 262.213 87.1112C262.213 81.8565 258.023 77.5967 252.854 77.5967C247.685 77.5967 243.494 81.8565 243.494 87.1112C243.494 92.366 247.685 96.6258 252.854 96.6258Z" fill="black"/>
<path d="M203.906 143.75C209.075 143.75 213.266 139.49 213.266 134.235C213.266 128.981 209.075 124.721 203.906 124.721C198.737 124.721 194.547 128.981 194.547 134.235C194.547 139.49 198.737 143.75 203.906 143.75Z" fill="black"/>
<path d="M270.28 117.279C275.449 117.279 279.639 113.019 279.639 107.764C279.639 102.509 275.449 98.2495 270.28 98.2495C265.11 98.2495 260.92 102.509 260.92 107.764C260.92 113.019 265.11 117.279 270.28 117.279Z" fill="black"/>
<path d="M216.55 221.963C223.364 221.963 228.888 216.345 228.888 209.413C228.888 202.482 223.364 196.863 216.55 196.863C209.736 196.863 204.212 202.482 204.212 209.413C204.212 216.345 209.736 221.963 216.55 221.963Z" fill="black"/>
</g>
<defs>
<clipPath id="clip0_40_2926">
<rect width="459" height="299.472" fill="white" transform="translate(0 0.296875)"/>
</clipPath>
</defs>
</svg>
