<svg width="459" height="311" viewBox="0 0 459 311" fill="none" xmlns="http://www.w3.org/2000/svg">
<path d="M442.132 115.908H18.6304L18.7365 223.526H442.132V115.908Z" fill="#FF9775"/>
<path d="M442.132 106.989C437.229 101.568 425.465 101.866 422.04 109.254C414.774 99.9595 397.058 103.458 393.494 112.732C386.388 107.834 377.803 109.209 373.133 117.851C373.211 110.973 363.937 104.229 357.038 107.691C352.535 94.759 334.766 89.1299 326.68 94.9304C323.814 78.3534 300.269 80.3331 297.677 90.2729C287.415 81.7496 272.789 86.8072 271.287 98.6328C257.102 96.2081 244.758 111.52 245.848 122.055C230.132 123.68 227.781 144.78 234.781 151.936C226.201 156.479 224.711 166.982 233.263 177.036C226.107 183.274 225.895 198.373 236.173 204.202C231.41 219.999 239.655 237.613 256.69 233.246C259.996 255.701 286.011 253.35 292.82 244.406C304.347 251.284 316.438 239.45 315.801 229.143C322.569 230.494 327.407 227.645 328.888 222.469C334.264 229.139 344.461 233.719 353.054 227.041C358.067 241.781 378.277 244.251 385.42 233.495C392.682 240.103 401.634 240.063 406.957 231.882C416.819 239.952 423.146 237.124 427.514 228.437C431.025 233.491 436.67 235.552 442.128 235.442V106.989H442.132Z" fill="#FA8B46"/>
<g opacity="0.43">
<path d="M298.151 156.814C297.914 151.679 295.285 147.319 291.57 145.078C287.852 142.837 283.047 142.706 278.5 146.009C273.491 149.646 273.708 162.492 280.627 166.582C287.55 170.676 298.624 167.084 298.151 156.814Z" fill="white"/>
<path d="M262.527 187.816C270.846 188.123 277.369 179.746 274.185 170.692C272.989 167.3 270.65 165.251 267.911 164.365C263.343 162.883 257.686 164.659 254.432 168.945C250.607 173.987 254.212 187.51 262.531 187.816H262.527Z" fill="white"/>
<path d="M310.254 144.425C305.694 150.144 316.891 161.051 323.9 162.994C330.917 164.941 336.301 158.202 332.105 151.756C330.097 148.678 326.415 144.604 322.349 142.42C318.271 140.232 313.834 139.935 310.25 144.429L310.254 144.425Z" fill="white"/>
<path d="M326.17 142.817C335.228 149.462 345.461 134.853 344.171 130.175C343.037 126.064 334.056 118.235 326.892 122.406C323.133 124.603 317.112 136.171 326.17 142.817Z" fill="white"/>
<path d="M284.443 140.718C289.999 135.91 293.742 120.447 283.104 116.716C281.586 116.181 279.769 115.891 277.626 115.9C272.487 115.924 265.686 127.497 268.144 133.893C270.601 140.29 278.092 146.213 284.443 140.718Z" fill="white"/>
<path d="M322.965 212.182C320.933 211.051 318.577 210.843 316.455 211.798C311.083 214.219 309.335 224.126 318.242 229.461C322.345 229.682 325.533 228.192 327.427 225.534C327.492 225.196 327.558 224.873 327.627 224.506C328.794 218.501 326.341 214.064 322.961 212.182H322.965Z" fill="white"/>
<path d="M261.527 133.991C255.245 134.195 254.669 143.629 254.947 147.735C255.224 151.846 260.098 162.586 269.425 158.21C274.136 155.997 269.348 138.951 263.87 134.857C263.086 134.273 262.31 133.963 261.527 133.987V133.991Z" fill="white"/>
<path d="M348.021 206.594C346.653 206.002 345.021 205.476 343.159 205.051C328.333 201.683 329.382 220.391 330.815 224.208C330.893 224.412 331.011 224.641 331.15 224.881C336.265 229.604 343.861 232.282 350.805 228.494C350.895 228.347 350.988 228.208 351.074 228.053C356.111 218.963 357.65 210.758 348.017 206.594H348.021Z" fill="white"/>
<path d="M290.766 245.243C293.865 236.47 290.525 229.604 283.868 226.053C281.647 224.869 279.079 224.085 276.242 223.69C266.56 222.334 259.857 230.502 257.502 236.907C258.792 241.271 261.078 244.467 263.907 246.684C268.887 248.982 275.557 250.68 281.063 250.492C284.239 249.97 287.182 248.88 289.497 247.39C290.036 246.773 290.472 246.071 290.766 245.243Z" fill="white"/>
<path d="M442.132 203.639C429.886 204.027 425.171 218.902 429.33 229.923C429.506 230.392 429.751 230.841 430.049 231.274C433.441 234.27 437.846 235.519 442.128 235.43V203.635L442.132 203.639Z" fill="white"/>
<path d="M400.871 220.64C397.854 218.771 393.682 218.971 390.523 220.803C384.677 224.192 386.22 231.523 387.351 235.042C392.67 238.899 398.597 239.356 403.263 235.895C403.683 235.025 404.038 234.013 404.308 232.829C405.761 226.433 403.891 222.51 400.875 220.64H400.871Z" fill="white"/>
<path d="M317.597 182.776C321.133 188.372 333.705 182.216 327.533 173.399C326.892 172.481 326.178 171.848 325.435 171.415C320.263 168.403 313.667 176.538 317.597 182.776Z" fill="white"/>
<path d="M375.044 211.885C372.59 211.031 369.937 210.782 367.337 211.133C357.605 212.456 354.793 225.143 355.426 231.731C362.059 241.308 376.444 242.777 383.649 235.646C383.792 235.283 383.93 234.915 384.053 234.519C387.816 222.269 382.379 214.432 375.044 211.885Z" fill="white"/>
<path d="M421.697 218.946C419.481 217.689 416.68 217.195 413.59 217.677C405.422 218.946 406.422 228.698 408.814 233.299C416.966 239.095 422.542 236.956 426.567 230.172C427.351 225.086 425.318 221.004 421.693 218.946H421.697Z" fill="white"/>
<path d="M396.242 108.719C395.621 116.781 400.209 130.734 409.647 128.097C418.489 125.623 423.681 118.871 420.995 109.001C420.856 108.495 420.664 108.017 420.444 107.56C413.843 101.694 402.022 103.151 396.242 108.719Z" fill="white"/>
<path d="M376.256 113.65C373.733 120.308 377.093 130.125 385.188 128.799C392.074 127.664 396.572 121.557 392.89 112.356C387.298 108.821 380.91 109.091 376.256 113.655V113.65Z" fill="white"/>
<path d="M330.023 93.3182C327.5 101.556 324.459 113.079 334.26 119.672C345.596 127.301 351.111 117.537 355.315 105.197C355.405 104.927 355.466 104.662 355.528 104.397C350.245 95.253 337.995 90.8853 330.023 93.3182Z" fill="white"/>
<path d="M326.113 92.6527C322.169 80.4393 305.531 80.5086 299.579 86.9215C298.245 102.327 320.092 112.867 326.113 92.6527Z" fill="white"/>
<path d="M359.581 131.036C372.26 136.273 372.264 122.929 372.497 114.638C370.598 109.817 364.704 105.943 359.373 106.935C355.132 112.989 347.984 126.252 359.581 131.04V131.036Z" fill="white"/>
<path d="M294.452 113.589C302.102 110.03 300.8 96.6368 295.84 88.9177C286.725 82.9988 275.197 86.6236 272.018 95.5918C272.05 95.9714 272.091 96.3633 272.148 96.7633C274.504 113.332 286.533 117.271 294.452 113.589Z" fill="white"/>
<path d="M245.889 208.688C242.574 207.255 238.598 207.598 235.21 208.496C233.226 221.367 239.488 234.013 251.763 233.911C255.706 226.502 257.755 213.819 245.889 208.684V208.688Z" fill="white"/>
<path d="M313.111 207.672C320.651 205.329 322.557 192.642 317.463 186.947C316.193 185.527 314.373 184.413 312.319 183.751C306.168 181.767 297.951 183.592 296.514 191.491C295.897 194.871 299.473 198.087 302.735 201.165C306.107 204.341 309.278 208.86 313.107 207.672H313.111Z" fill="white"/>
<path d="M442.132 107.825C442.001 107.417 441.858 106.993 441.699 106.54C437.437 102.429 428.988 102.066 424.342 106.176C423.04 111.74 423.134 122.37 428.212 126.044C434.164 130.354 439.413 127.48 441.462 120.802C441.715 119.978 441.94 119.227 442.136 118.533V107.825H442.132Z" fill="white"/>
<path d="M338.457 148.295C336.922 153.883 339.138 158.312 342.947 160.655C346.755 162.998 352.168 163.264 357.071 160.569C362.72 157.471 367.333 139.955 360.328 134.342C353.332 128.734 341.534 137.122 338.457 148.295Z" fill="white"/>
<path d="M306.547 105.613C300.955 106.189 297.734 110.344 298.975 115.712C300.257 121.263 311.536 125.717 315.454 126.672C319.373 127.627 325.745 120.998 323.255 112.92C322.32 109.891 320.504 108.025 318.328 106.911C314.703 105.054 310.046 105.254 306.547 105.613Z" fill="white"/>
<path d="M247.064 114.393C247.146 114.675 247.236 114.957 247.342 115.234C251.779 126.843 262.458 128.464 266.442 120.1C270.209 112.193 274.732 109.703 267.458 98.3999C258.09 98.8285 250.073 106.531 247.06 114.397L247.064 114.393Z" fill="white"/>
<path d="M442.132 175.742C436.482 178.734 432.09 184.47 433.127 192.544C433.608 196.291 437.584 199.165 442.132 200.671V175.742Z" fill="white"/>
<path d="M232.5 148.401C242.052 152.446 250.991 149.948 253.473 141.22C255.988 132.379 248.175 125.998 243.186 122.553C231.781 125.643 228.928 140.106 232.504 148.401H232.5Z" fill="white"/>
<path d="M409.99 212.439C417.636 216.962 429.869 212.995 429.343 201.651C429.086 195.981 426.183 191.168 422.077 188.69C417.978 186.217 412.664 186.07 407.643 189.719C402.112 193.736 402.352 207.921 409.99 212.439Z" fill="white"/>
<path d="M232.12 175.575C238.018 174.868 238.333 170.823 241.668 170.337C245.174 169.827 255.245 170.101 253.706 158.455C253.399 156.152 252.114 154.662 250.232 153.781C245.664 151.642 237.598 152.968 231.544 154.267C226.319 159.214 225.993 167.435 232.12 175.575Z" fill="white"/>
<path d="M362.042 207.582C366.255 212.995 383.461 203.234 375.811 194.617C374.778 193.454 373.705 192.695 372.623 192.238C365.088 189.041 357.377 201.589 362.042 207.582Z" fill="white"/>
<path d="M274.197 216.195C280.349 204.528 262 185.637 253.338 196.907C242.223 211.378 267.438 229.008 274.197 216.195Z" fill="white"/>
<path d="M233.716 202.459C245.321 206.027 256.563 193.225 251.575 180.6C250.318 177.416 248.628 175.705 246.709 174.975C241.59 173.028 234.826 178.073 230.23 180.926C226.764 187.4 227.446 197.034 233.716 202.455V202.459Z" fill="white"/>
<path d="M315.72 231.592C313.989 229.257 312.201 227.71 310.421 226.824C301.061 222.167 292.15 235.495 295.579 245.695C305.29 249.088 314.642 240.368 315.72 231.596V231.592Z" fill="white"/>
<path d="M295.257 173.113C295.832 180.547 309.989 184.053 316.838 173.779C321.969 166.068 316.671 159.957 311.209 157.896C309.388 157.21 307.576 156.977 306.102 157.283C300.212 158.5 294.799 167.203 295.257 173.113Z" fill="white"/>
<path d="M379.738 212.321C383.783 218.391 399.732 218.223 401.858 207.598C403.459 199.63 399.952 192.993 395.18 190.339C393.584 189.453 391.853 189 390.123 189.094C383.187 189.474 374.268 204.116 379.738 212.321Z" fill="white"/>
<path d="M409.141 171.999C412.578 182.196 426.061 191.47 435.205 180.089C444.348 168.709 437.658 158.871 427.036 154.071C418.97 150.425 405.7 161.802 409.141 171.999Z" fill="white"/>
<path d="M352.731 174.391C351.711 169.313 347.519 165.929 343.196 164.116C338.873 162.304 334.419 162.051 332.795 163.226C329.121 165.9 327.766 182.408 337.403 186.278C347.049 190.151 354.789 184.551 352.731 174.391Z" fill="white"/>
<path d="M335.015 187.654C325.378 182.2 316.173 205.431 323.692 209.631C328.701 212.423 344.641 193.107 335.015 187.654Z" fill="white"/>
<path d="M279.5 176.464C277.504 183.963 294.089 191.458 297.853 184.412C299.734 180.889 295.75 176.575 290.999 174.313C286.252 172.052 280.737 171.815 279.5 176.464Z" fill="white"/>
<path d="M305.972 125.333C302.608 123.598 298.596 123.227 296.971 123.954C291.668 126.321 287.599 138.596 293.493 143.894C299.388 149.193 313.393 138.833 312.564 133.346C312.148 130.603 309.335 127.068 305.972 125.333Z" fill="white"/>
<path d="M284.37 197.266C287.182 191.772 285.023 187.559 281.659 185.641C278.3 183.722 273.732 184.09 271.785 187.694C266.87 196.797 278.818 208.112 284.37 197.266Z" fill="white"/>
<path d="M282.68 223.277C289.595 229.384 303.392 227.294 303.461 212.652C303.506 205.337 300.551 201.479 296.979 199.687C293.407 197.899 289.215 198.152 286.811 199.128C282.002 201.079 273.871 215.493 282.68 223.277Z" fill="white"/>
<path d="M442.132 129.321C441.421 129.244 440.678 129.19 439.878 129.195C434.743 129.219 427.943 140.792 430.4 147.188C432.278 152.087 437.119 156.707 442.132 156.124V129.317V129.321Z" fill="white"/>
<path d="M353.495 205.414C358.263 204.104 361.569 196.41 357.328 192.07C356.789 191.523 356.14 191.07 355.426 190.687C350.405 188.001 341.637 189.176 340.298 193.936C338.53 200.275 348.719 206.721 353.495 205.414Z" fill="white"/>
<path d="M367.329 188.151C370.068 182.334 367.496 178.407 363.981 177.273C360.467 176.138 355.993 177.791 354.915 183.085C353.531 189.878 363.59 196.079 367.329 188.151Z" fill="white"/>
<path d="M374.333 190.911C378.926 194.638 390.682 186.494 390.812 178.987C390.902 174.297 387.028 169.17 382.542 166.815C379.848 165.398 376.958 164.978 374.566 166.252C369.031 169.203 366.116 184.245 374.333 190.911Z" fill="white"/>
<path d="M357.181 172.901C361.504 178.849 377.656 167.064 371.252 159.459C368.051 155.655 363.104 157.071 359.699 160.418C356.295 163.766 354.385 169.056 357.181 172.901Z" fill="white"/>
<path d="M386.673 137.326C385.792 135.371 384.351 133.897 382.64 133.003C377.538 130.33 369.921 132.587 366.708 140.584C363.659 148.201 371.337 161.092 380.346 158.018C389.359 154.944 390.225 145.151 386.669 137.326H386.673Z" fill="white"/>
<path d="M398.413 143.376C389.323 143.625 382.412 159.182 388.882 167.472C393.27 173.097 405.614 171.852 408.418 162.198C410.529 154.961 408.965 147.834 404.214 144.833C402.626 143.829 400.679 143.315 398.413 143.38V143.376Z" fill="white"/>
<path d="M424.84 127.513C421.277 125.982 416.55 126.345 412.586 129.105C408.026 132.281 405.928 147.274 412.623 151.164C419.317 155.054 428.636 146.837 430.09 137.257C430.82 132.468 428.404 129.04 424.84 127.509V127.513Z" fill="white"/>
<path d="M399.222 172.876C389.792 175.938 394.037 194.103 404.593 188.915C412.517 185.029 409.471 176.665 404.508 173.685C402.842 172.689 400.977 172.309 399.226 172.876H399.222Z" fill="white"/>
<path d="M402.205 129.929C401.45 128.803 399.944 127.309 398.217 126.435C396.491 125.562 394.535 125.313 392.862 126.668C389.502 129.378 388.029 143.208 400.956 140.755C405.487 139.898 403.712 132.187 402.205 129.934V129.929Z" fill="white"/>
</g>
<path d="M442.132 115.908H18.6304L18.7365 223.526H442.132V115.908Z" fill="#FF9775"/>
<mask id="mask0_33_2287" style="mask-type:luminance" maskUnits="userSpaceOnUse" x="18" y="115" width="425" height="109">
<path d="M442.132 115.908H18.6304L18.7365 223.526H442.132V115.908Z" fill="white"/>
</mask>
<g mask="url(#mask0_33_2287)">
<path d="M244.346 231.266C238.863 237.327 221.311 238.274 217.482 230.012C209.355 240.405 189.544 236.491 185.565 226.122C177.617 231.6 168.016 230.061 162.799 220.399C162.889 228.094 152.516 235.629 144.801 231.759C139.768 246.222 119.897 252.517 110.851 246.03C107.647 264.571 81.3179 262.35 78.4197 251.235C66.9451 260.766 50.5926 255.109 48.9108 241.887C33.048 244.597 19.2467 227.477 20.4632 215.697C2.89007 213.88 0.261249 190.286 8.08648 182.285C-1.50627 177.207 -3.17581 165.459 6.38836 154.217C-1.61648 147.241 -1.85324 130.358 9.64173 123.839C4.31469 106.176 13.536 86.4804 32.5868 91.3624C36.2851 66.2539 65.3776 68.8787 72.9865 78.8796C85.8734 71.1891 99.3972 84.4189 98.6828 95.9425C106.251 94.4321 111.66 97.6202 113.317 103.404C119.33 95.9425 130.731 90.8236 140.34 98.2937C145.944 81.8146 168.547 79.0511 176.531 91.0767C184.65 83.6882 194.663 83.7332 200.615 92.881C211.645 83.8556 218.719 87.0192 223.601 96.7344C227.528 91.0849 233.838 88.7744 239.941 88.901L244.342 231.261L244.346 231.266Z" fill="#FA8B46"/>
<g opacity="0.43">
<path d="M78.9422 176.836C78.6768 182.579 75.7378 187.449 71.5823 189.96C67.4268 192.466 62.0508 192.613 56.9646 188.919C51.3641 184.853 51.6049 170.488 59.3444 165.912C67.0839 161.337 79.4728 165.353 78.9422 176.836Z" fill="white"/>
<path d="M39.1057 142.167C48.4087 141.824 55.7032 151.193 52.1396 161.316C50.8048 165.112 48.1882 167.398 45.1226 168.39C40.0119 170.043 33.6889 168.064 30.0477 163.267C25.7698 157.63 29.7987 142.51 39.1017 142.167H39.1057Z" fill="white"/>
<path d="M92.4782 190.686C87.3797 184.294 99.8993 172.097 107.741 169.925C115.591 167.749 121.612 175.281 116.917 182.494C114.672 185.935 110.553 190.49 106.006 192.936C101.446 195.381 96.4867 195.715 92.4782 190.69V190.686Z" fill="white"/>
<path d="M110.276 192.482C120.403 185.049 131.845 201.385 130.404 206.618C129.135 211.215 119.093 219.966 111.084 215.305C106.88 212.847 100.148 199.911 110.276 192.482Z" fill="white"/>
<path d="M63.6101 194.83C69.823 200.206 74.0111 217.497 62.1161 221.669C60.418 222.265 58.3892 222.592 55.989 222.579C50.2415 222.551 42.6408 209.611 45.3839 202.459C48.1311 195.307 56.5074 188.682 63.6101 194.826V194.83Z" fill="white"/>
<path d="M106.688 114.92C104.418 116.185 101.781 116.414 99.4054 115.348C93.4008 112.642 91.4455 101.563 101.406 95.5955C105.99 95.3506 109.557 97.016 111.676 99.9837C111.749 100.363 111.819 100.727 111.9 101.135C113.207 107.846 110.464 112.813 106.684 114.916L106.688 114.92Z" fill="white"/>
<path d="M37.9873 202.353C30.9621 202.124 30.3171 191.576 30.6315 186.984C30.9417 182.387 36.3912 170.378 46.8207 175.272C52.0865 177.746 46.735 196.809 40.6079 201.385C39.7344 202.038 38.8649 202.385 37.9873 202.357V202.353Z" fill="white"/>
<path d="M134.711 121.17C133.18 121.831 131.355 122.419 129.278 122.892C112.7 126.656 113.876 105.74 115.472 101.47C115.558 101.241 115.689 100.984 115.848 100.715C121.567 95.4324 130.061 92.4403 137.829 96.6775C137.931 96.8407 138.033 96.9959 138.131 97.1714C143.765 107.336 145.483 116.512 134.711 121.17Z" fill="white"/>
<path d="M239.945 124.472C226.25 124.039 220.98 107.405 225.634 95.0772C225.834 94.5506 226.107 94.0485 226.438 93.5668C230.234 90.2196 235.157 88.8194 239.945 88.9174V124.472Z" fill="white"/>
<path d="M100.687 147.804C104.638 141.547 118.697 148.429 111.794 158.291C111.08 159.32 110.276 160.026 109.447 160.512C103.663 163.879 96.2867 154.785 100.683 147.808L100.687 147.804Z" fill="white"/>
<path d="M164.922 115.255C162.179 116.206 159.211 116.487 156.305 116.096C145.422 114.618 142.279 100.433 142.985 93.0648C150.402 82.3577 166.489 80.7126 174.547 88.6889C174.706 89.0971 174.861 89.5053 174.996 89.9462C179.201 103.645 173.127 112.405 164.926 115.259L164.922 115.255Z" fill="white"/>
<path d="M188.626 230.612C187.936 221.599 193.063 205.998 203.615 208.945C213.502 211.713 219.306 219.26 216.306 230.298C216.151 230.865 215.935 231.396 215.69 231.91C208.31 238.47 195.092 236.837 188.626 230.612Z" fill="white"/>
<path d="M166.281 225.098C163.46 217.652 167.216 206.672 176.27 208.157C183.972 209.427 189.002 216.252 184.883 226.543C178.629 230.494 171.486 230.196 166.281 225.09V225.098Z" fill="white"/>
<path d="M114.582 247.834C111.762 238.621 108.361 225.738 119.321 218.366C131.996 209.835 138.164 220.754 142.862 234.551C142.965 234.849 143.03 235.147 143.099 235.445C137.193 245.671 123.493 250.553 114.578 247.834H114.582Z" fill="white"/>
<path d="M147.634 205.659C161.811 199.806 161.815 214.725 162.077 223.996C159.954 229.388 153.361 233.719 147.402 232.609C142.663 225.837 134.666 211.011 147.634 205.655V205.659Z" fill="white"/>
<path d="M74.803 225.167C83.3589 229.147 81.9016 244.124 76.3542 252.753C66.1614 259.374 53.2703 255.321 49.7149 245.291C49.7516 244.867 49.7965 244.43 49.8619 243.981C52.4948 225.453 65.9491 221.048 74.803 225.167Z" fill="white"/>
<path d="M20.4999 118.831C16.7934 120.435 12.3481 120.051 8.56001 119.043C6.33939 104.65 13.3401 90.5096 27.0679 90.6198C31.4765 98.9022 33.7706 113.087 20.4999 118.827V118.831Z" fill="white"/>
<path d="M95.6743 119.965C104.104 122.586 106.234 136.775 100.54 143.139C99.1195 144.727 97.0826 145.972 94.7885 146.71C87.9103 148.927 78.7217 146.886 77.1133 138.057C76.4235 134.277 80.4198 130.68 84.0691 127.239C87.8368 123.688 91.3882 118.634 95.6702 119.965H95.6743Z" fill="white"/>
<path d="M239.945 231.613C239.798 232.07 239.639 232.543 239.459 233.049C234.696 237.646 225.246 238.054 220.049 233.454C218.592 227.233 218.702 215.35 224.376 211.239C231.034 206.418 236.214 210.206 239.19 217.097C239.57 217.975 239.725 218.86 239.945 219.636V231.609V231.613Z" fill="white"/>
<path d="M124.012 186.36C122.293 180.11 124.775 175.158 129.033 172.538C133.29 169.921 139.344 169.619 144.826 172.632C151.145 176.097 156.301 195.683 148.467 201.957C140.642 208.227 127.453 198.846 124.008 186.355L124.012 186.36Z" fill="white"/>
<path d="M88.3308 234.086C82.0772 233.441 78.4768 228.796 79.8647 222.795C81.2975 216.591 93.9109 211.606 98.2909 210.537C102.671 209.468 109.798 216.88 107.014 225.914C105.969 229.302 103.936 231.388 101.504 232.633C97.4501 234.711 92.2414 234.49 88.3308 234.086Z" fill="white"/>
<path d="M21.8184 224.265C21.9082 223.951 22.0103 223.636 22.1287 223.326C27.0883 210.345 39.0323 208.533 43.4899 217.885C47.7025 226.726 52.7601 229.51 44.6287 242.152C34.1543 241.675 25.1861 233.062 21.8225 224.265H21.8184Z" fill="white"/>
<path d="M239.945 155.671C233.626 152.323 228.716 145.915 229.879 136.881C230.418 132.693 234.863 129.476 239.945 127.794V155.671Z" fill="white"/>
<path d="M5.53113 186.241C16.2138 181.718 26.2106 184.51 28.9823 194.27C31.7908 204.161 23.0593 211.288 17.4792 215.146C4.72697 211.688 1.53484 195.519 5.53113 186.241Z" fill="white"/>
<path d="M204.003 114.634C212.555 109.577 226.23 114.014 225.646 126.697C225.36 133.036 222.115 138.416 217.523 141.188C212.939 143.951 206.999 144.119 201.382 140.041C195.198 135.546 195.468 119.688 204.007 114.634H204.003Z" fill="white"/>
<path d="M5.1066 155.854C11.7031 156.646 12.0542 161.165 15.7811 161.708C19.7039 162.28 30.9621 161.969 29.2436 174.999C28.9048 177.575 27.4638 179.24 25.3575 180.228C20.2509 182.62 11.2296 181.139 4.46165 179.685C-1.37972 174.15 -1.74302 164.961 5.1066 155.859V155.854Z" fill="white"/>
<path d="M150.386 120.063C155.096 114.01 174.335 124.925 165.779 134.558C164.624 135.861 163.424 136.71 162.215 137.22C153.79 140.792 145.169 126.766 150.386 120.059V120.063Z" fill="white"/>
<path d="M52.156 110.43C59.0382 123.472 38.5138 144.6 28.8313 131.995C16.4015 115.814 44.5961 96.0979 52.156 110.43Z" fill="white"/>
<path d="M6.89039 125.79C19.8671 121.802 32.4398 136.114 26.8596 150.233C25.4513 153.797 23.5654 155.707 21.4183 156.524C15.6953 158.7 8.13133 153.058 2.99207 149.866C-0.881771 142.625 -0.122516 131.856 6.89039 125.79Z" fill="white"/>
<path d="M75.7051 158.606C76.35 150.291 92.176 146.372 99.838 157.859C105.573 166.48 99.6502 173.317 93.5435 175.62C91.5106 176.387 89.4819 176.648 87.8327 176.305C81.2444 174.946 75.1948 165.214 75.7051 158.602V158.606Z" fill="white"/>
<path d="M170.171 114.765C174.694 107.981 192.529 108.164 194.908 120.047C196.696 128.958 192.778 136.379 187.442 139.347C185.658 140.335 183.724 140.845 181.785 140.739C174.033 140.314 164.052 123.937 170.175 114.765H170.171Z" fill="white"/>
<path d="M203.052 159.855C206.897 148.449 221.972 138.081 232.198 150.809C242.423 163.537 234.937 174.538 223.062 179.905C214.045 183.979 199.203 171.26 203.048 159.859L203.052 159.855Z" fill="white"/>
<path d="M139.972 157.177C138.83 162.855 134.147 166.639 129.31 168.664C124.477 170.688 119.493 170.97 117.681 169.66C113.57 166.667 112.056 148.209 122.832 143.882C133.617 139.551 142.271 145.812 139.972 157.177Z" fill="white"/>
<path d="M120.162 142.347C109.386 148.445 99.091 122.467 107.5 117.773C113.101 114.65 130.927 136.252 120.162 142.347Z" fill="white"/>
<path d="M58.083 154.858C55.8502 146.47 74.3948 138.093 78.6034 145.972C80.7097 149.911 76.2521 154.74 70.9414 157.267C65.6307 159.793 59.4668 160.059 58.083 154.862V154.858Z" fill="white"/>
<path d="M87.6899 212.039C83.9304 213.978 79.4443 214.395 77.6237 213.582C71.6966 210.937 67.1411 197.209 73.7335 191.286C80.3219 185.363 95.9887 196.944 95.0621 203.079C94.5967 206.145 91.4536 210.096 87.694 212.039H87.6899Z" fill="white"/>
<path d="M63.5326 131.599C66.6798 137.742 64.2633 142.453 60.5037 144.6C56.7483 146.747 51.6376 146.335 49.4578 142.302C43.9634 132.122 57.3238 119.471 63.5326 131.599Z" fill="white"/>
<path d="M61.6426 102.515C69.3739 95.6853 84.8039 98.0243 84.8815 114.397C84.9305 122.578 81.624 126.892 77.6318 128.893C73.6396 130.893 68.9494 130.611 66.2593 129.521C60.8792 127.337 51.7886 111.221 61.6385 102.519L61.6426 102.515Z" fill="white"/>
<path d="M140.83 122.488C146.161 123.953 149.859 132.558 145.116 137.412C144.512 138.024 143.789 138.53 142.989 138.959C137.372 141.963 127.571 140.645 126.073 135.322C124.093 128.235 135.486 121.026 140.834 122.488H140.83Z" fill="white"/>
<path d="M156.296 141.792C159.362 148.299 156.484 152.691 152.553 153.956C148.622 155.222 143.622 153.377 142.413 147.458C140.866 139.861 152.112 132.926 156.296 141.792Z" fill="white"/>
<path d="M164.13 138.706C169.265 134.538 182.413 143.645 182.556 152.042C182.658 157.283 178.323 163.018 173.306 165.651C170.294 167.231 167.065 167.704 164.387 166.28C158.199 162.977 154.941 146.159 164.13 138.706Z" fill="white"/>
<path d="M144.953 158.842C149.786 152.193 167.849 165.369 160.689 173.876C157.109 178.13 151.578 176.55 147.769 172.803C143.961 169.06 141.826 163.145 144.953 158.842Z" fill="white"/>
<path d="M177.927 198.626C176.939 200.814 175.331 202.459 173.421 203.459C167.714 206.447 159.199 203.924 155.607 194.98C152.194 186.461 160.783 172.048 170.857 175.485C180.936 178.922 181.903 189.87 177.927 198.626Z" fill="white"/>
<path d="M191.059 191.862C180.895 191.584 173.163 174.191 180.401 164.916C185.311 158.626 199.113 160.018 202.244 170.815C204.603 178.909 202.856 186.878 197.541 190.233C195.765 191.356 193.59 191.931 191.055 191.858L191.059 191.862Z" fill="white"/>
<path d="M220.605 209.598C216.621 211.309 211.33 210.904 206.901 207.818C201.803 204.267 199.46 187.502 206.942 183.151C214.424 178.799 224.85 187.988 226.475 198.699C227.291 204.051 224.589 207.888 220.605 209.598Z" fill="white"/>
<path d="M191.957 158.871C181.413 155.45 186.161 135.138 197.962 140.934C206.82 145.282 203.415 154.634 197.864 157.965C196.002 159.079 193.916 159.503 191.957 158.867V158.871Z" fill="white"/>
<path d="M195.296 206.896C194.455 208.157 192.769 209.827 190.834 210.806C188.904 211.786 186.72 212.064 184.846 210.545C181.087 207.516 179.442 192.05 193.9 194.793C198.966 195.752 196.982 204.373 195.296 206.896Z" fill="white"/>
</g>
</g>
<mask id="mask1_33_2287" style="mask-type:luminance" maskUnits="userSpaceOnUse" x="18" y="115" width="425" height="109">
<path d="M442.132 115.908H18.6304L18.7365 223.526H442.132V115.908Z" fill="white"/>
</mask>
<g mask="url(#mask1_33_2287)">
<path d="M601.273 118.247C601.118 106.874 586.529 103.07 578.051 108.172C571.119 97.355 556.82 100.837 551.783 109.43C545.648 102.817 529.605 103.894 524.013 114.169C517.298 105.988 501.182 110.675 497.557 119.941C492.132 113.573 481.233 113.05 475.543 119.006C470.726 104.494 452.357 101.319 443.671 107.895C439.319 101.555 426.461 101.478 422.856 109.258C415.586 99.9634 397.874 103.462 394.311 112.736C387.204 107.838 378.62 109.213 373.954 117.855C374.031 110.977 364.757 104.233 357.858 107.695C353.356 94.7629 335.587 89.1338 327.5 94.9343C324.635 78.3573 301.09 80.337 298.498 90.2768C288.235 81.7535 273.61 86.8111 272.111 98.6367C257.926 96.212 229.965 100.102 231.055 110.638C223.466 111.422 226.838 118.524 227.973 127.109C229.189 136.302 227.556 148.103 234.785 151.94C244.493 164.076 237.855 238.283 254.889 233.919C258.196 256.374 286.835 253.362 293.64 244.414C305.164 251.292 317.259 239.458 316.622 229.151C323.39 230.502 328.227 227.653 329.709 222.477C335.085 229.147 345.282 233.727 353.874 227.049C358.887 241.789 379.097 244.259 386.241 233.503C393.503 240.111 402.454 240.071 407.777 231.89C417.64 239.96 423.967 237.132 428.334 228.445C435.605 238.907 452.043 236.589 456.954 228.563C468.783 237.952 481.715 236.376 485.283 227.335C496.116 232.302 510.689 228.261 514.873 218.403C524.784 221.877 539.218 214.431 538.847 204.043C548.807 205.088 555.62 199.691 557.073 186.102C564.604 187.788 572.434 186.531 573.034 168.835C586.407 169.243 593.248 164.9 596.281 147.633C613.817 139.477 610.768 121.141 601.273 118.251V118.247Z" fill="#FA8B46"/>
<g opacity="0.43">
<path d="M298.967 156.814C298.73 151.679 296.102 147.319 292.387 145.078C288.668 142.837 283.864 142.707 279.316 146.009C274.308 149.646 274.524 162.492 281.443 166.582C288.366 170.677 299.441 167.085 298.967 156.814Z" fill="white"/>
<path d="M263.339 187.817C271.658 188.123 278.181 179.747 274.997 170.693C273.801 167.301 271.462 165.252 268.723 164.366C264.156 162.884 258.498 164.66 255.245 168.946C251.42 173.987 255.024 187.511 263.343 187.817H263.339Z" fill="white"/>
<path d="M239.043 205.076C247.362 205.382 253.885 197.006 250.701 187.952C249.505 184.555 247.166 182.51 244.427 181.625C239.859 180.143 234.202 181.918 230.948 186.205C227.124 191.246 230.728 204.77 239.047 205.076H239.043Z" fill="white"/>
<path d="M237.198 133.199C245.517 133.505 252.04 125.129 248.856 116.075C247.66 112.679 245.321 110.634 242.582 109.748C238.014 108.266 232.357 110.042 229.103 114.328C225.278 119.369 228.883 132.893 237.202 133.199H237.198Z" fill="white"/>
<path d="M311.07 144.425C306.511 150.144 317.708 161.051 324.717 162.994C331.734 164.941 337.118 158.202 332.921 151.757C330.913 148.679 327.231 144.605 323.165 142.421C319.087 140.233 314.65 139.935 311.066 144.429L311.07 144.425Z" fill="white"/>
<path d="M326.986 142.817C336.044 149.462 346.278 134.853 344.988 130.175C343.853 126.064 334.873 118.235 327.709 122.406C323.949 124.603 317.928 136.171 326.986 142.817Z" fill="white"/>
<path d="M285.256 140.719C290.811 135.91 294.554 120.447 283.917 116.716C282.398 116.182 280.582 115.892 278.439 115.9C273.299 115.925 266.499 127.497 268.956 133.894C271.413 140.29 278.904 146.213 285.256 140.719Z" fill="white"/>
<path d="M323.778 212.183C321.745 211.052 319.389 210.844 317.267 211.799C311.895 214.22 310.148 224.127 319.055 229.462C323.157 229.682 326.345 228.192 328.239 225.535C328.305 225.196 328.37 224.874 328.439 224.506C329.607 218.502 327.153 214.064 323.774 212.183H323.778Z" fill="white"/>
<path d="M262.339 133.991C256.057 134.195 255.481 143.629 255.759 147.735C256.036 151.846 260.91 162.586 270.238 158.21C274.948 155.997 270.16 138.951 264.682 134.857C263.898 134.273 263.123 133.963 262.339 133.987V133.991Z" fill="white"/>
<path d="M245.476 134.906C239.194 135.11 238.619 144.543 238.896 148.65C239.174 152.761 244.048 163.5 253.375 159.124C258.086 156.912 253.297 139.865 247.819 135.771C247.036 135.187 246.26 134.877 245.476 134.902V134.906Z" fill="white"/>
<path d="M348.837 206.594C347.47 206.003 345.837 205.476 343.975 205.051C329.15 201.684 330.199 220.392 331.631 224.208C331.709 224.412 331.827 224.641 331.966 224.882C337.081 229.605 344.678 232.283 351.621 228.495C351.711 228.348 351.805 228.209 351.89 228.054C356.928 218.963 358.467 210.758 348.833 206.594H348.837Z" fill="white"/>
<path d="M291.583 245.243C294.681 236.47 291.342 229.604 284.684 226.053C282.463 224.869 279.896 224.085 277.059 223.69C267.376 222.334 260.674 230.502 258.318 236.907C259.608 241.271 261.894 244.467 264.723 246.684C269.703 248.982 276.373 250.68 281.88 250.492C285.056 249.97 287.999 248.88 290.313 247.39C290.852 246.773 291.289 246.071 291.583 245.243Z" fill="white"/>
<path d="M447.875 204.422C446.581 203.924 445.165 203.634 443.577 203.622C430.861 203.508 425.922 218.713 430.151 229.927C430.326 230.396 430.571 230.845 430.869 231.278C437.409 237.046 447.691 236.385 453.655 232.041C454.035 231.547 454.374 231.004 454.663 230.417C458.782 222.081 456.925 207.912 447.875 204.422Z" fill="white"/>
<path d="M401.683 220.64C398.666 218.771 394.495 218.971 391.335 220.803C385.49 224.192 387.033 231.523 388.163 235.042C393.482 238.899 399.409 239.356 404.075 235.895C404.496 235.025 404.851 234.013 405.12 232.829C406.573 226.433 404.704 222.51 401.687 220.64H401.683Z" fill="white"/>
<path d="M318.414 182.776C321.949 188.372 334.522 182.216 328.35 173.399C327.709 172.481 326.994 171.848 326.251 171.415C321.079 168.403 314.483 176.538 318.414 182.776Z" fill="white"/>
<path d="M238.933 174.653C242.468 180.249 255.04 174.093 248.868 165.276C248.228 164.358 247.513 163.725 246.77 163.292C241.598 160.28 235.002 168.415 238.933 174.653Z" fill="white"/>
<path d="M375.856 211.885C373.403 211.031 370.75 210.782 368.149 211.133C358.418 212.456 355.605 225.143 356.238 231.731C362.871 241.308 377.256 242.777 384.461 235.646C384.604 235.283 384.743 234.915 384.865 234.519C388.629 222.269 383.192 214.432 375.856 211.885Z" fill="white"/>
<path d="M422.514 218.946C420.297 217.689 417.497 217.195 414.407 217.677C406.238 218.946 407.239 228.698 409.631 233.299C417.782 239.095 423.358 236.956 427.383 230.172C428.167 225.086 426.134 221.004 422.509 218.946H422.514Z" fill="white"/>
<path d="M397.058 108.72C396.437 116.782 401.026 130.734 410.463 128.097C419.305 125.623 424.497 118.872 421.811 109.001C421.673 108.495 421.481 108.018 421.26 107.56C414.66 101.695 402.838 103.152 397.058 108.72Z" fill="white"/>
<path d="M377.072 113.65C374.55 120.308 377.909 130.125 386.004 128.799C392.89 127.664 397.389 121.557 393.707 112.356C388.114 108.821 381.726 109.091 377.072 113.655V113.65Z" fill="white"/>
<path d="M330.84 93.3182C328.317 101.556 325.276 113.079 335.077 119.672C346.412 127.301 351.927 117.537 356.132 105.197C356.222 104.927 356.283 104.662 356.344 104.397C351.062 95.253 338.812 90.8853 330.84 93.3182Z" fill="white"/>
<path d="M360.398 131.036C373.076 136.273 373.08 122.929 373.313 114.639C371.415 109.818 365.52 105.944 360.189 106.936C355.948 112.99 348.8 126.252 360.398 131.04V131.036Z" fill="white"/>
<path d="M295.265 113.589C302.914 110.03 301.612 96.6368 296.653 88.9177C287.537 82.9988 276.01 86.6236 272.83 95.5918C272.863 95.9714 272.903 96.3633 272.961 96.7633C275.316 113.332 287.346 117.271 295.265 113.589Z" fill="white"/>
<path d="M313.928 207.672C321.467 205.329 323.373 192.642 318.279 186.947C317.01 185.527 315.189 184.413 313.136 183.751C306.984 181.767 298.767 183.592 297.33 191.491C296.714 194.871 300.29 198.087 303.551 201.165C306.923 204.341 310.095 208.86 313.924 207.672H313.928Z" fill="white"/>
<path d="M425.159 106.181C423.857 111.745 423.95 122.374 429.028 126.048C434.98 130.359 440.23 127.485 442.279 120.807C444.303 114.206 444.552 112.296 442.52 106.544C438.258 102.433 429.808 102.07 425.163 106.181H425.159Z" fill="white"/>
<path d="M339.273 148.295C337.738 153.883 339.955 158.312 343.763 160.655C347.572 162.998 352.984 163.264 357.887 160.569C363.536 157.471 368.149 139.955 361.144 134.342C354.148 128.734 342.351 137.122 339.273 148.295Z" fill="white"/>
<path d="M307.364 105.613C301.771 106.189 298.551 110.344 299.792 115.712C301.073 121.263 312.352 125.717 316.271 126.672C320.189 127.627 326.562 120.998 324.071 112.92C323.137 109.891 321.32 108.025 319.144 106.911C315.52 105.054 310.862 105.254 307.364 105.613Z" fill="white"/>
<path d="M250.281 114.394C250.363 114.675 250.452 114.957 250.558 115.235C254.996 126.844 265.674 128.464 269.662 120.1C273.43 112.194 277.953 109.704 270.679 98.4004C261.31 98.829 253.293 106.532 250.281 114.398V114.394Z" fill="white"/>
<path d="M454.721 200.932C460.717 198.12 467.253 180.11 458.913 175.012C450.573 169.913 431.919 176.779 433.947 192.54C434.874 199.749 448.724 203.741 454.721 200.928V200.932Z" fill="white"/>
<path d="M410.806 212.439C418.452 216.962 430.686 212.995 430.159 201.651C429.902 195.981 427 191.168 422.893 188.69C418.795 186.217 413.48 186.07 408.459 189.719C402.928 193.736 403.169 207.921 410.806 212.439Z" fill="white"/>
<path d="M362.859 207.582C367.072 212.995 384.277 203.234 376.628 194.617C375.595 193.454 374.521 192.695 373.44 192.238C365.904 189.041 358.193 201.589 362.859 207.582Z" fill="white"/>
<path d="M271.536 211.141C275.63 203.381 263.421 190.809 257.657 198.311C250.26 207.941 267.038 219.669 271.536 211.141Z" fill="white"/>
<path d="M316.536 231.593C314.805 229.258 313.017 227.711 311.238 226.825C301.878 222.167 292.967 235.495 296.395 245.696C306.107 249.088 315.458 240.369 316.536 231.597V231.593Z" fill="white"/>
<path d="M296.073 173.113C296.648 180.547 310.805 184.053 317.655 173.779C322.786 166.068 317.487 159.957 312.025 157.896C310.205 157.21 308.392 156.977 306.919 157.283C301.029 158.5 295.616 167.203 296.073 173.113Z" fill="white"/>
<path d="M380.55 212.321C384.596 218.391 400.544 218.224 402.671 207.598C404.271 199.63 400.765 192.993 395.993 190.34C394.397 189.454 392.666 189.001 390.935 189.095C384 189.474 375.08 204.117 380.55 212.321Z" fill="white"/>
<path d="M409.957 171.999C413.394 182.196 426.877 191.47 436.021 180.089C445.165 168.709 438.474 158.871 427.853 154.071C419.787 150.425 406.516 161.802 409.957 171.999Z" fill="white"/>
<path d="M353.548 174.391C352.527 169.313 348.335 165.929 344.012 164.117C339.689 162.304 335.236 162.051 333.611 163.227C329.937 165.901 328.582 182.408 338.22 186.278C347.866 190.152 355.605 184.551 353.548 174.391Z" fill="white"/>
<path d="M335.832 187.654C326.194 182.2 316.989 205.431 324.508 209.631C329.517 212.423 345.461 193.107 335.832 187.654Z" fill="white"/>
<path d="M280.312 176.465C278.316 183.964 294.901 191.458 298.665 184.413C300.547 180.89 296.563 176.575 291.811 174.314C287.064 172.052 281.549 171.816 280.312 176.465Z" fill="white"/>
<path d="M306.788 125.333C303.425 123.598 299.412 123.227 297.787 123.954C292.485 126.321 288.415 138.596 294.31 143.894C300.204 149.193 314.209 138.833 313.381 133.346C312.964 130.603 310.152 127.068 306.788 125.333Z" fill="white"/>
<path d="M285.186 197.267C287.999 191.773 285.839 187.56 282.476 185.641C279.116 183.723 274.544 184.09 272.601 187.695C267.687 196.797 279.635 208.113 285.186 197.267Z" fill="white"/>
<path d="M283.496 223.277C290.411 229.384 304.208 227.294 304.278 212.652C304.323 205.337 301.367 201.479 297.796 199.687C294.224 197.899 290.032 198.152 287.627 199.128C282.819 201.079 274.687 215.493 283.496 223.277Z" fill="white"/>
<path d="M446.169 130.011C444.65 129.477 442.842 129.187 440.691 129.195C435.556 129.219 428.755 140.792 431.212 147.189C433.661 153.581 441.156 159.508 447.504 154.01C453.063 149.205 456.807 133.738 446.169 130.007V130.011Z" fill="white"/>
<path d="M354.311 205.414C359.079 204.104 362.385 196.41 358.144 192.07C357.605 191.523 356.956 191.07 356.242 190.687C351.221 188.001 342.453 189.176 341.114 193.936C339.346 200.275 349.535 206.721 354.311 205.414Z" fill="white"/>
<path d="M368.145 188.152C370.884 182.335 368.312 178.408 364.798 177.273C361.283 176.138 356.809 177.792 355.732 183.086C354.348 189.878 364.406 196.079 368.145 188.152Z" fill="white"/>
<path d="M375.146 190.911C379.738 194.638 391.494 186.494 391.625 178.987C391.715 174.297 387.841 169.17 383.355 166.815C380.661 165.398 377.77 164.978 375.378 166.252C369.843 169.203 366.929 184.245 375.146 190.911Z" fill="white"/>
<path d="M357.997 172.901C362.32 178.849 378.473 167.064 372.068 159.459C368.868 155.655 363.92 157.071 360.516 160.418C357.111 163.766 355.201 169.056 357.997 172.901Z" fill="white"/>
<path d="M387.486 137.326C386.604 135.371 385.163 133.897 383.453 133.003C378.35 130.33 370.733 132.587 367.521 140.584C364.471 148.201 372.15 161.092 381.159 158.018C390.172 154.944 391.037 145.151 387.482 137.326H387.486Z" fill="white"/>
<path d="M399.23 143.376C390.139 143.625 383.228 159.182 389.698 167.472C394.086 173.097 406.43 171.852 409.231 162.198C411.341 154.961 409.778 147.834 405.026 144.833C403.438 143.829 401.491 143.315 399.226 143.38L399.23 143.376Z" fill="white"/>
<path d="M425.653 127.513C422.089 125.983 417.362 126.346 413.398 129.105C408.839 132.281 406.741 147.274 413.435 151.165C420.13 155.055 429.449 146.838 430.902 137.257C431.633 132.469 429.216 129.04 425.653 127.509V127.513Z" fill="white"/>
<path d="M400.034 172.876C390.604 175.938 394.85 194.103 405.406 188.915C413.329 185.029 410.284 176.665 405.32 173.685C403.655 172.689 401.789 172.309 400.038 172.876H400.034Z" fill="white"/>
<path d="M403.018 129.929C402.263 128.803 400.756 127.309 399.03 126.435C397.303 125.562 395.348 125.313 393.674 126.668C390.315 129.378 388.841 143.208 401.769 140.755C406.3 139.898 404.524 132.187 403.018 129.934V129.929Z" fill="white"/>
</g>
</g>
<path d="M18.5112 239.557C18.503 250.191 18.4703 260.823 18.4376 271.457H442.531C442.543 266.932 442.568 262.408 442.576 257.885C442.621 239.601 443.389 221.281 442.531 203.001C442.469 201.709 442.363 200.984 441.672 200.564C440.679 199.959 438.476 199.995 433.465 199.893C412.909 199.469 392.456 198.777 371.855 198.929C325.099 199.275 278.961 203.352 232.34 203.556C204.635 203.677 177.062 202.327 149.586 200.946C135.158 200.222 120.77 199.305 106.268 198.904C93.5192 198.552 80.7134 199.024 68.0138 199.509C51.4557 200.141 34.8649 200.681 18.36 201.533C18.36 201.533 18.4622 213.905 18.4744 217.461C18.5071 224.827 18.5112 232.19 18.503 239.556L18.5112 239.557Z" fill="#FFDCD1"/>
<path d="M442.132 100.037H18.6304L52.0254 48.0771H408.737L442.132 100.037Z" fill="#FFBB75"/>
<path d="M442.132 100.037H18.6304V115.904H442.136V100.037H442.132Z" fill="#FFD5AB"/>
<path d="M253.036 91.4441C259.6 98.9264 258.853 110.368 251.367 117.002C243.88 123.631 232.491 122.941 225.927 115.459C219.364 107.976 220.111 96.5344 227.597 89.9011C235.083 83.2719 246.472 83.9617 253.036 91.4441Z" fill="#42210B"/>
<g opacity="0.89">
<path d="M242.472 133.558C248.607 140.555 259.253 141.2 266.25 135.003C273.246 128.807 273.944 118.108 267.809 111.115C261.674 104.119 251.028 103.474 244.031 109.67C237.035 115.867 236.337 126.566 242.472 133.558Z" fill="#42210B"/>
</g>
<g opacity="0.89">
<path d="M246.595 112.344C249.771 115.965 255.277 116.3 258.898 113.091C262.519 109.883 262.878 104.352 259.706 100.731C256.535 97.11 251.024 96.7753 247.403 99.9838C243.782 103.192 243.423 108.723 246.595 112.344Z" fill="#42210B"/>
</g>
<path d="M240.129 85.5092C234.153 78.6963 223.784 78.0677 216.968 84.1009C210.155 90.1382 209.473 100.556 215.449 107.368C221.425 114.181 231.793 114.81 238.61 108.777C245.427 102.739 246.105 92.3221 240.129 85.5092Z" fill="#42210B"/>
<path d="M266.462 75.892C260.486 69.0791 250.118 68.4505 243.301 74.4837C236.484 80.521 235.806 90.9383 241.782 97.7512C247.758 104.564 258.126 105.193 264.943 99.1595C271.76 93.1222 272.438 82.7049 266.462 75.892Z" fill="#42210B"/>
<path d="M236.463 104.364C230.487 97.5508 220.119 96.9222 213.302 102.955C206.485 108.993 205.807 119.41 211.783 126.223C217.759 133.036 228.128 133.669 234.945 127.631C241.762 121.594 242.439 111.177 236.463 104.364Z" fill="#42210B"/>
<path d="M243.358 72.1689C239.713 68.0093 233.385 67.6256 229.226 71.3117C225.066 74.9937 224.654 81.3534 228.299 85.5089C231.944 89.6685 238.272 90.0522 242.431 86.3662C246.591 82.6842 247.003 76.3244 243.358 72.1689Z" fill="#42210B"/>
<path d="M232.789 76.6307C230.463 73.9774 226.426 73.7325 223.772 76.0837C221.119 78.4349 220.854 82.4925 223.18 85.1417C225.507 87.7909 229.544 88.0399 232.198 85.6887C234.851 83.3374 235.116 79.2799 232.789 76.6307Z" fill="#42210B"/>
<path d="M252.873 110.622C246.897 103.809 236.529 103.176 229.712 109.213C222.899 115.251 222.217 125.668 228.193 132.481C234.169 139.294 244.537 139.922 251.354 133.889C258.167 127.852 258.849 117.435 252.873 110.622Z" fill="#42210B"/>
<path d="M259.016 124.688C255.241 120.382 248.689 119.986 244.382 123.798C240.076 127.611 239.647 134.195 243.423 138.502C247.199 142.808 253.751 143.204 258.057 139.392C262.364 135.575 262.792 128.995 259.016 124.688Z" fill="#42210B"/>
<path d="M251.893 133.901C248.962 130.562 243.88 130.252 240.537 133.212C237.194 136.171 236.863 141.278 239.794 144.621C242.725 147.964 247.807 148.27 251.15 145.311C254.494 142.351 254.824 137.241 251.893 133.901Z" fill="#42210B"/>
<path d="M251.893 143.596C248.962 140.257 243.88 139.947 240.537 142.906C237.194 145.866 236.863 150.972 239.794 154.316C242.725 157.659 247.807 157.965 251.15 155.006C254.494 152.046 254.824 146.935 251.893 143.596Z" fill="#42210B"/>
<path d="M242.635 133.901C239.704 130.562 234.622 130.252 231.279 133.212C227.936 136.171 227.605 141.278 230.536 144.621C233.467 147.96 238.549 148.27 241.892 145.311C245.235 142.351 245.566 137.241 242.635 133.901Z" fill="#42210B"/>
<path d="M243.125 142.131C241.362 140.123 238.304 139.935 236.292 141.715C234.283 143.494 234.079 146.568 235.843 148.576C237.606 150.585 240.664 150.773 242.676 148.993C244.684 147.213 244.889 144.139 243.125 142.131Z" fill="#42210B"/>
<path d="M270.152 95.4321C265.993 90.6888 258.772 90.252 254.028 94.4524C249.285 98.6569 248.811 105.907 252.971 110.65C257.131 115.393 264.352 115.83 269.095 111.63C273.838 107.425 274.312 100.175 270.152 95.4321Z" fill="#42210B"/>
<path d="M281.157 106.36C276.998 101.617 269.777 101.18 265.033 105.38C260.29 109.581 259.816 116.834 263.976 121.578C268.136 126.321 275.357 126.758 280.1 122.557C284.843 118.357 285.317 111.103 281.157 106.36Z" fill="#42210B"/>
<path d="M248.334 114.635C244.893 119.615 246.146 126.472 251.13 129.95C256.114 133.432 262.943 132.216 266.385 127.236C269.826 122.256 268.572 115.398 263.588 111.92C258.604 108.442 251.775 109.654 248.334 114.635Z" fill="#42210B"/>
<g opacity="0.73">
<path d="M268.507 110.821C262.217 112.087 256.106 107.988 254.865 101.661C253.624 95.3342 257.718 89.1785 264.009 87.909C270.299 86.6436 276.41 90.7419 277.651 97.0691C278.892 103.396 274.798 109.552 268.507 110.821Z" fill="#42210B"/>
</g>
<g opacity="0.73">
<path d="M228.058 138.192C221.768 139.457 215.657 135.359 214.416 129.032C213.175 122.705 217.27 116.549 223.56 115.279C229.85 114.01 235.961 118.112 237.202 124.439C238.443 130.767 234.349 136.922 228.058 138.192Z" fill="#42210B"/>
</g>
<path d="M256.767 79.5738C254.767 79.3534 253.322 77.5532 253.542 75.5531C253.763 73.5529 255.563 72.1078 257.563 72.3242C259.563 72.5446 261.008 74.3448 260.792 76.345C260.572 78.3452 258.771 79.7902 256.771 79.5698L256.767 79.5738Z" fill="black"/>
<path d="M216.731 108.732C215.518 108.601 214.645 107.511 214.776 106.299C214.906 105.086 215.996 104.213 217.208 104.343C218.421 104.474 219.294 105.564 219.164 106.776C219.033 107.989 217.943 108.862 216.731 108.732Z" fill="black"/>
<path d="M236.76 88.0376C239.683 85.6924 240.15 81.4223 237.805 78.5002C235.46 75.5781 231.19 75.1104 228.268 77.4557C225.345 79.8009 224.878 84.071 227.223 86.9931C229.568 89.9153 233.838 90.3829 236.76 88.0376Z" fill="black"/>
<path d="M259.131 98.7224C257.918 98.5918 257.045 97.5019 257.175 96.2895C257.306 95.0772 258.396 94.2036 259.608 94.3342C260.821 94.4648 261.694 95.5588 261.564 96.7671C261.433 97.9795 260.343 98.853 259.131 98.7224Z" fill="black"/>
<path d="M266.955 97.4235C268.674 92.7184 266.254 87.5105 261.548 85.7915C256.843 84.0724 251.635 86.4932 249.916 91.1983C248.197 95.9035 250.618 101.111 255.323 102.83C260.028 104.549 265.236 102.129 266.955 97.4235Z" fill="black"/>
<path d="M265.945 122.983C269.398 119.354 269.255 113.613 265.625 110.16C261.996 106.707 256.255 106.851 252.802 110.48C249.349 114.11 249.493 119.851 253.122 123.303C256.752 126.756 262.493 126.613 265.945 122.983Z" fill="black"/>
<path d="M247.064 138.584C250.734 138.584 253.71 135.608 253.71 131.938C253.71 128.268 250.734 125.292 247.064 125.292C243.394 125.292 240.419 128.268 240.419 131.938C240.419 135.608 243.394 138.584 247.064 138.584Z" fill="black"/>
<path d="M245.836 83.9498C243.17 83.6559 241.243 81.2597 241.533 78.5901C241.827 75.9245 244.223 73.9978 246.893 74.2876C249.558 74.5815 251.485 76.9777 251.195 79.6473C250.901 82.3129 248.505 84.2396 245.836 83.9498Z" fill="black"/>
<path d="M246.903 103.288C248.995 101.609 249.33 98.5516 247.651 96.4593C245.972 94.3671 242.914 94.0322 240.822 95.7115C238.73 97.3907 238.395 100.448 240.074 102.54C241.753 104.633 244.811 104.967 246.903 103.288Z" fill="black"/>
<path d="M232.867 131.566C230.201 131.273 228.275 128.876 228.565 126.207C228.859 123.541 231.255 121.615 233.924 121.904C236.59 122.198 238.517 124.594 238.227 127.264C237.933 129.93 235.537 131.856 232.867 131.566Z" fill="black"/>
<path d="M232.21 118.627C230.708 118.463 229.622 117.108 229.785 115.606C229.948 114.104 231.304 113.018 232.806 113.181C234.308 113.345 235.394 114.7 235.23 116.202C235.067 117.704 233.712 118.79 232.21 118.627Z" fill="black"/>
<path d="M238.255 143.612C239.768 143.612 240.994 142.386 240.994 140.873C240.994 139.361 239.768 138.134 238.255 138.134C236.742 138.134 235.516 139.361 235.516 140.873C235.516 142.386 236.742 143.612 238.255 143.612Z" fill="black"/>
<path d="M242.901 117.418C240.398 117.145 238.59 114.891 238.864 112.389C239.137 109.887 241.39 108.079 243.893 108.352C246.395 108.626 248.203 110.879 247.93 113.381C247.656 115.883 245.403 117.692 242.901 117.418Z" fill="black"/>
<path d="M245.864 153.491C243.362 153.217 241.554 150.964 241.827 148.462C242.101 145.96 244.354 144.151 246.856 144.425C249.358 144.698 251.167 146.952 250.893 149.454C250.62 151.956 248.366 153.764 245.864 153.491Z" fill="black"/>
<path d="M270.589 108.862C268.087 108.589 266.278 106.335 266.552 103.833C266.825 101.331 269.079 99.5224 271.581 99.7959C274.083 100.069 275.891 102.323 275.618 104.825C275.344 107.327 273.091 109.136 270.589 108.862Z" fill="black"/>
<path d="M218.829 95.5017C216.327 95.2282 214.518 92.975 214.792 90.4727C215.065 87.9704 217.319 86.1621 219.821 86.4356C222.323 86.7091 224.131 88.9623 223.858 91.4646C223.584 93.9669 221.331 95.7752 218.829 95.5017Z" fill="black"/>
<path d="M236.529 102.28C236.921 98.7942 234.413 95.6507 230.927 95.2591C227.441 94.8675 224.297 97.3759 223.906 100.862C223.514 104.348 226.022 107.491 229.508 107.883C232.994 108.275 236.138 105.766 236.529 102.28Z" fill="black"/>
<path d="M220.724 123.651C224.145 122.876 226.29 119.475 225.516 116.054C224.741 112.632 221.339 110.487 217.918 111.262C214.497 112.036 212.351 115.438 213.126 118.859C213.901 122.281 217.302 124.426 220.724 123.651Z" fill="black"/>
<path d="M278 99.147C278 94.7477 277.133 90.3915 275.45 86.3271C273.766 82.2627 271.299 78.5697 268.188 75.4589C265.077 72.3481 261.384 69.8805 257.32 68.197C253.255 66.5135 248.899 65.647 244.5 65.647C240.101 65.647 235.745 66.5135 231.68 68.197C227.616 69.8805 223.923 72.3481 220.812 75.4589C217.701 78.5697 215.234 82.2627 213.55 86.3271C211.867 90.3915 211 94.7477 211 99.147L244.5 99.147H278Z" fill="#FFB3B3"/>
</svg>
