<svg width="986" height="767" viewBox="0 0 986 767" fill="none" xmlns="http://www.w3.org/2000/svg">
<g clip-path="url(#clip0_33_2268)">
<path d="M578.45 512.315H24.8534L24.9921 652.993H578.45V512.315Z" fill="#FF9775"/>
<path d="M578.45 500.656C572.041 493.57 556.663 493.959 552.186 503.617C542.688 491.467 519.53 496.04 514.872 508.164C505.582 501.76 494.36 503.559 488.256 514.855C488.357 505.864 476.234 497.049 467.216 501.574C461.331 484.669 438.103 477.311 427.533 484.893C423.787 463.224 393.009 465.812 389.62 478.805C376.206 467.663 357.087 474.275 355.123 489.733C336.581 486.564 320.445 506.579 321.87 520.351C301.326 522.475 298.253 550.056 307.404 559.41C296.188 565.349 294.24 579.079 305.419 592.221C296.065 600.374 295.787 620.112 309.223 627.732C302.996 648.382 313.775 671.407 336.042 665.697C340.364 695.051 374.37 691.977 383.271 680.286C398.339 689.277 414.145 673.808 413.312 660.335C422.159 662.101 428.482 658.377 430.419 651.61C437.447 660.329 450.776 666.316 462.008 657.587C468.561 676.855 494.979 680.083 504.317 666.023C513.81 674.662 525.512 674.609 532.47 663.915C545.362 674.464 553.632 670.767 559.342 659.412C563.931 666.018 571.31 668.712 578.445 668.568V500.656H578.45Z" fill="#FA8B46"/>
<g opacity="0.43">
<path d="M390.239 565.787C389.93 559.074 386.494 553.375 381.638 550.446C376.777 547.517 370.496 547.346 364.552 551.663C358.005 556.417 358.288 573.209 367.332 578.556C376.382 583.908 390.858 579.212 390.239 565.787Z" fill="white"/>
<path d="M343.672 606.314C354.547 606.714 363.074 595.765 358.912 583.929C357.349 579.495 354.291 576.817 350.711 575.659C344.74 573.722 337.344 576.043 333.091 581.646C328.091 588.236 332.803 605.914 343.678 606.314H343.672Z" fill="white"/>
<path d="M406.061 549.592C400.1 557.068 414.737 571.326 423.899 573.866C433.071 576.411 440.109 567.601 434.624 559.176C431.999 555.152 427.186 549.827 421.871 546.972C416.54 544.112 410.74 543.723 406.055 549.598L406.061 549.592Z" fill="white"/>
<path d="M426.866 547.49C438.706 556.177 452.083 537.08 450.397 530.965C448.914 525.591 437.175 515.357 427.81 520.81C422.896 523.681 415.025 538.803 426.866 547.49Z" fill="white"/>
<path d="M372.321 544.747C379.584 538.461 384.477 518.249 370.571 513.372C368.586 512.673 366.212 512.294 363.41 512.304C356.692 512.336 347.802 527.464 351.015 535.825C354.227 544.187 364.018 551.929 372.321 544.747Z" fill="white"/>
<path d="M422.677 638.164C420.02 636.686 416.941 636.414 414.166 637.662C407.144 640.827 404.86 653.777 416.503 660.751C421.866 661.039 426.033 659.092 428.509 655.618C428.594 655.175 428.68 654.753 428.771 654.273C430.297 646.424 427.09 640.624 422.672 638.164H422.677Z" fill="white"/>
<path d="M342.365 535.953C334.153 536.22 333.401 548.552 333.764 553.92C334.126 559.293 340.498 573.332 352.69 567.612C358.848 564.72 352.589 542.437 345.428 537.085C344.403 536.322 343.39 535.916 342.365 535.948V535.953Z" fill="white"/>
<path d="M455.429 630.859C453.642 630.085 451.507 629.397 449.074 628.842C429.694 624.44 431.065 648.895 432.938 653.884C433.039 654.15 433.194 654.449 433.376 654.764C440.061 660.938 449.992 664.438 459.068 659.486C459.186 659.294 459.308 659.113 459.42 658.91C466.005 647.027 468.017 636.302 455.424 630.859H455.429Z" fill="white"/>
<path d="M380.587 681.38C384.637 669.913 380.272 660.938 371.569 656.296C368.666 654.748 365.31 653.724 361.601 653.206C348.944 651.434 340.183 662.112 337.104 670.484C338.79 676.188 341.778 680.366 345.476 683.264C351.986 686.268 360.705 688.487 367.903 688.242C372.054 687.559 375.902 686.134 378.927 684.187C379.632 683.381 380.203 682.463 380.587 681.38Z" fill="white"/>
<path d="M578.45 626.996C562.442 627.503 556.279 646.947 561.716 661.354C561.946 661.968 562.266 662.555 562.655 663.121C567.09 667.037 572.847 668.67 578.445 668.553V626.991L578.45 626.996Z" fill="white"/>
<path d="M524.514 649.22C520.571 646.776 515.117 647.038 510.987 649.434C503.346 653.863 505.363 663.446 506.841 668.046C513.794 673.088 521.542 673.686 527.641 669.161C528.19 668.024 528.655 666.701 529.007 665.154C530.906 656.792 528.463 651.664 524.519 649.22H524.514Z" fill="white"/>
<path d="M415.66 599.724C420.281 607.039 436.716 598.992 428.648 587.467C427.81 586.266 426.876 585.439 425.905 584.873C419.144 580.936 410.522 591.57 415.66 599.724Z" fill="white"/>
<path d="M490.753 637.774C487.546 636.659 484.078 636.334 480.679 636.793C467.958 638.521 464.281 655.106 465.109 663.718C473.78 676.236 492.583 678.157 502.001 668.835C502.188 668.36 502.37 667.88 502.53 667.362C507.45 651.349 500.342 641.104 490.753 637.774Z" fill="white"/>
<path d="M551.738 647.006C548.841 645.362 545.18 644.717 541.141 645.346C530.464 647.006 531.771 659.754 534.898 665.767C545.554 673.344 552.843 670.548 558.104 661.68C559.128 655.031 556.471 649.695 551.733 647.006H551.738Z" fill="white"/>
<path d="M518.463 502.918C517.652 513.457 523.649 531.695 535.986 528.248C547.544 525.015 554.331 516.189 550.82 503.287C550.639 502.625 550.388 502.001 550.1 501.403C541.472 493.735 526.019 495.64 518.463 502.918Z" fill="white"/>
<path d="M492.338 509.364C489.04 518.067 493.432 530.9 504.013 529.166C513.015 527.683 518.895 519.7 514.082 507.673C506.772 503.052 498.421 503.404 492.338 509.37V509.364Z" fill="white"/>
<path d="M431.903 482.786C428.605 493.554 424.63 508.617 437.442 517.235C452.26 527.208 459.468 514.444 464.965 498.313C465.082 497.961 465.162 497.614 465.242 497.267C458.337 485.315 442.324 479.605 431.903 482.786Z" fill="white"/>
<path d="M426.791 481.916C421.636 465.951 399.887 466.041 392.107 474.424C390.362 494.562 418.92 508.34 426.791 481.916Z" fill="white"/>
<path d="M470.541 532.09C487.114 538.936 487.119 521.493 487.424 510.656C484.942 504.354 477.237 499.29 470.268 500.587C464.724 508.5 455.381 525.837 470.541 532.096V532.09Z" fill="white"/>
<path d="M385.405 509.284C395.405 504.631 393.703 487.124 387.219 477.034C375.304 469.296 360.235 474.035 356.079 485.758C356.121 486.254 356.175 486.766 356.249 487.289C359.328 508.948 375.053 514.097 385.405 509.284Z" fill="white"/>
<path d="M321.923 633.596C317.59 631.723 312.393 632.172 307.964 633.346C305.371 650.17 313.556 666.701 329.601 666.567C334.756 656.882 337.435 640.304 321.923 633.591V633.596Z" fill="white"/>
<path d="M409.796 632.268C419.651 629.205 422.143 612.621 415.484 605.177C413.824 603.32 411.445 601.863 408.761 600.999C400.719 598.406 389.978 600.791 388.1 611.116C387.294 615.534 391.968 619.739 396.232 623.762C400.639 627.913 404.785 633.82 409.79 632.268H409.796Z" fill="white"/>
<path d="M578.45 501.75C578.279 501.216 578.093 500.662 577.884 500.069C572.314 494.696 561.268 494.221 555.196 499.594C553.494 506.867 553.616 520.762 560.254 525.565C568.034 531.199 574.896 527.443 577.575 518.713C577.906 517.635 578.199 516.653 578.455 515.746V501.75H578.45Z" fill="white"/>
<path d="M442.927 554.651C440.921 561.956 443.818 567.745 448.796 570.808C453.775 573.871 460.85 574.218 467.259 570.696C474.644 566.646 480.674 543.749 471.517 536.412C462.371 529.081 446.95 540.046 442.927 554.651Z" fill="white"/>
<path d="M401.216 498.858C393.905 499.61 389.695 505.042 391.317 512.059C392.993 519.316 407.736 525.137 412.859 526.386C417.981 527.635 426.311 518.969 423.056 508.409C421.834 504.45 419.459 502.011 416.615 500.555C411.877 498.127 405.789 498.388 401.216 498.858Z" fill="white"/>
<path d="M323.46 510.336C323.567 510.704 323.684 511.072 323.823 511.435C329.623 526.61 343.582 528.729 348.79 517.795C353.715 507.459 359.627 504.205 350.118 489.429C337.872 489.989 327.392 500.058 323.454 510.341L323.46 510.336Z" fill="white"/>
<path d="M578.45 590.53C571.065 594.441 565.323 601.938 566.679 612.493C567.308 617.391 572.506 621.148 578.45 623.117V590.53Z" fill="white"/>
<path d="M304.421 554.789C316.907 560.077 328.593 556.812 331.837 545.403C335.124 533.846 324.911 525.506 318.391 521.002C303.482 525.041 299.752 543.947 304.426 554.789H304.421Z" fill="white"/>
<path d="M536.434 638.5C546.429 644.413 562.421 639.226 561.732 624.397C561.396 616.986 557.602 610.695 552.234 607.456C546.877 604.222 539.93 604.03 533.366 608.8C526.136 614.051 526.451 632.593 536.434 638.5Z" fill="white"/>
<path d="M303.925 590.311C311.635 589.388 312.046 584.1 316.406 583.465C320.989 582.798 334.153 583.156 332.141 567.932C331.741 564.923 330.06 562.975 327.6 561.822C321.63 559.026 311.086 560.76 303.172 562.457C296.342 568.925 295.915 579.671 303.925 590.311Z" fill="white"/>
<path d="M473.758 632.15C479.265 639.226 501.756 626.467 491.756 615.203C490.406 613.682 489.003 612.69 487.589 612.092C477.739 607.914 467.659 624.317 473.758 632.15Z" fill="white"/>
<path d="M358.928 643.409C366.969 628.159 342.984 603.464 331.661 618.197C317.131 637.113 350.092 660.159 358.928 643.409Z" fill="white"/>
<path d="M306.011 625.454C321.181 630.117 335.877 613.384 329.356 596.879C327.713 592.717 325.503 590.482 322.996 589.526C316.304 586.981 307.463 593.576 301.454 597.306C296.924 605.769 297.815 618.362 306.011 625.448V625.454Z" fill="white"/>
<path d="M413.206 663.537C410.943 660.484 408.606 658.462 406.279 657.304C394.044 651.216 382.396 668.638 386.878 681.972C399.572 686.407 411.797 675.009 413.206 663.542V663.537Z" fill="white"/>
<path d="M386.456 587.094C387.209 596.81 405.714 601.394 414.668 587.963C421.375 577.884 414.449 569.896 407.309 567.201C404.929 566.305 402.56 566.001 400.634 566.401C392.934 567.991 385.859 579.367 386.456 587.094Z" fill="white"/>
<path d="M496.89 638.345C502.178 646.28 523.025 646.061 525.805 632.172C527.897 621.756 523.313 613.08 517.076 609.611C514.989 608.453 512.727 607.861 510.464 607.984C501.398 608.48 489.739 627.62 496.89 638.345Z" fill="white"/>
<path d="M535.325 585.637C539.817 598.966 557.442 611.09 569.395 596.213C581.347 581.336 572.602 568.476 558.718 562.201C548.174 557.436 530.826 572.308 535.325 585.637Z" fill="white"/>
<path d="M461.587 588.764C460.253 582.126 454.773 577.702 449.122 575.333C443.471 572.964 437.65 572.633 435.526 574.17C430.723 577.665 428.952 599.243 441.55 604.302C454.159 609.366 464.276 602.045 461.587 588.764Z" fill="white"/>
<path d="M438.429 606.1C425.83 598.971 413.798 629.338 423.627 634.829C430.174 638.479 451.011 613.229 438.429 606.1Z" fill="white"/>
<path d="M365.859 591.474C363.25 601.276 384.93 611.073 389.85 601.863C392.31 597.258 387.102 591.618 380.891 588.662C374.685 585.706 367.476 585.397 365.859 591.474Z" fill="white"/>
<path d="M400.463 524.636C396.066 522.368 390.821 521.882 388.697 522.832C381.766 525.927 376.446 541.972 384.151 548.898C391.856 555.824 410.164 542.282 409.081 535.11C408.537 531.524 404.86 526.903 400.463 524.636Z" fill="white"/>
<path d="M372.225 618.667C375.902 611.484 373.079 605.978 368.682 603.47C364.291 600.962 358.32 601.442 355.774 606.154C349.35 618.053 364.968 632.844 372.225 618.667Z" fill="white"/>
<path d="M370.016 652.667C379.055 660.65 397.091 657.918 397.182 638.778C397.24 629.216 393.377 624.173 388.708 621.831C384.039 619.494 378.559 619.824 375.416 621.1C369.13 623.65 358.501 642.492 370.016 652.667Z" fill="white"/>
<path d="M578.45 529.849C577.521 529.748 576.55 529.679 575.504 529.684C568.792 529.716 559.902 544.843 563.114 553.205C565.569 559.608 571.897 565.648 578.45 564.885V529.844V529.849Z" fill="white"/>
<path d="M462.585 629.317C468.817 627.604 473.139 617.546 467.595 611.874C466.891 611.159 466.042 610.567 465.109 610.065C458.545 606.554 447.084 608.091 445.333 614.312C443.023 622.599 456.342 631.025 462.585 629.317Z" fill="white"/>
<path d="M480.668 606.751C484.249 599.147 480.887 594.014 476.293 592.531C471.698 591.047 465.85 593.208 464.442 600.129C462.633 609.008 475.781 617.114 480.668 606.751Z" fill="white"/>
<path d="M489.825 610.358C495.828 615.23 511.195 604.585 511.366 594.772C511.484 588.641 506.42 581.939 500.555 578.86C497.034 577.009 493.256 576.459 490.129 578.124C482.893 581.982 479.083 601.645 489.825 610.358Z" fill="white"/>
<path d="M467.403 586.816C473.054 594.591 494.168 579.186 485.796 569.245C481.613 564.271 475.146 566.123 470.695 570.499C466.245 574.874 463.748 581.79 467.403 586.816Z" fill="white"/>
<path d="M505.955 540.313C504.803 537.757 502.919 535.831 500.683 534.662C494.014 531.167 484.057 534.118 479.857 544.571C475.871 554.528 485.908 571.379 497.685 567.361C509.467 563.343 510.598 550.542 505.95 540.313H505.955Z" fill="white"/>
<path d="M521.302 548.221C509.418 548.546 500.385 568.882 508.842 579.719C514.578 587.072 530.714 585.444 534.38 572.825C537.139 563.364 535.095 554.048 528.884 550.126C526.808 548.813 524.263 548.141 521.302 548.226V548.221Z" fill="white"/>
<path d="M555.847 527.485C551.188 525.484 545.009 525.959 539.828 529.566C533.868 533.718 531.125 553.317 539.876 558.402C548.627 563.487 560.809 552.746 562.709 540.222C563.664 533.963 560.505 529.481 555.847 527.48V527.485Z" fill="white"/>
<path d="M522.358 586.784C510.032 590.786 515.581 614.531 529.38 607.749C539.737 602.669 535.757 591.736 529.268 587.84C527.091 586.538 524.653 586.042 522.364 586.784H522.358Z" fill="white"/>
<path d="M526.259 530.644C525.272 529.172 523.303 527.219 521.045 526.077C518.788 524.935 516.232 524.609 514.045 526.381C509.653 529.924 507.727 548.002 524.626 544.795C530.549 543.675 528.228 533.595 526.259 530.65V530.644Z" fill="white"/>
</g>
<path d="M578.45 512.315H24.8534L24.9921 652.993H578.45V512.315Z" fill="#FF9775"/>
<mask id="mask0_33_2268" style="mask-type:luminance" maskUnits="userSpaceOnUse" x="24" y="512" width="555" height="141">
<path d="M578.45 512.315H24.8534L24.9921 652.993H578.45V512.315Z" fill="white"/>
</mask>
<g mask="url(#mask0_33_2268)">
<path d="M319.906 663.11C312.74 671.034 289.795 672.272 284.79 661.472C274.166 675.057 248.271 669.94 243.068 656.386C232.679 663.547 220.129 661.536 213.309 648.905C213.427 658.964 199.868 668.814 189.783 663.755C183.204 682.661 157.228 690.889 145.404 682.41C141.215 706.646 106.798 703.743 103.009 689.213C88.01 701.673 66.6341 694.277 64.4356 676.994C43.7001 680.537 25.6591 658.158 27.2493 642.758C4.27789 640.384 0.841519 609.542 11.0706 599.083C-1.46896 592.445 -3.65137 577.089 8.85081 562.393C-1.61303 553.274 -1.92251 531.205 13.1036 522.683C6.14014 499.594 18.1941 473.848 43.0971 480.23C47.9315 447.408 85.961 450.839 95.9072 463.913C112.753 453.86 130.431 471.153 129.497 486.217C139.39 484.243 146.46 488.41 148.627 495.971C156.487 486.217 171.39 479.526 183.951 489.29C191.277 467.749 220.822 464.137 231.26 479.856C241.873 470.198 254.962 470.257 262.742 482.215C277.16 470.417 286.407 474.552 292.789 487.252C297.922 479.867 306.171 476.847 314.149 477.012L319.901 663.104L319.906 663.11Z" fill="#FA8B46"/>
<g opacity="0.43">
<path d="M103.692 591.96C103.346 599.468 99.5037 605.834 94.0716 609.116C88.6396 612.392 81.6122 612.584 74.9635 607.755C67.6426 602.44 67.9574 583.663 78.0744 577.681C88.1914 571.7 104.386 576.95 103.692 591.96Z" fill="white"/>
<path d="M51.6186 546.642C63.7793 546.194 73.3147 558.44 68.6564 571.673C66.9115 576.635 63.4912 579.623 59.4839 580.92C52.8032 583.081 44.5378 580.493 39.7781 574.223C34.186 566.854 39.4526 547.09 51.6133 546.642H51.6186Z" fill="white"/>
<path d="M121.386 610.065C114.722 601.709 131.087 585.765 141.338 582.927C151.599 580.083 159.469 589.927 153.333 599.356C150.398 603.854 145.014 609.809 139.07 613.005C133.11 616.202 126.626 616.639 121.386 610.071V610.065Z" fill="white"/>
<path d="M144.651 612.413C157.89 602.696 172.847 624.051 170.963 630.892C169.304 636.9 156.177 648.34 145.708 642.247C140.212 639.034 131.413 622.125 144.651 612.413Z" fill="white"/>
<path d="M83.6505 615.481C91.7718 622.509 97.2465 645.112 81.6975 650.565C79.4777 651.344 76.8258 651.771 73.6882 651.755C66.1752 651.718 56.2396 634.803 59.8254 625.454C63.4165 616.105 74.3659 607.445 83.6505 615.476V615.481Z" fill="white"/>
<path d="M139.961 511.024C136.994 512.678 133.547 512.977 130.442 511.584C122.592 508.046 120.036 493.565 133.056 485.763C139.049 485.443 143.712 487.62 146.482 491.5C146.578 491.996 146.668 492.471 146.775 493.004C148.483 501.777 144.897 508.271 139.956 511.019L139.961 511.024Z" fill="white"/>
<path d="M50.1566 625.316C40.9734 625.017 40.1303 611.229 40.5411 605.226C40.9467 599.217 48.0702 583.519 61.7036 589.917C68.587 593.15 61.5916 618.069 53.5823 624.051C52.4404 624.905 51.3038 625.358 50.1566 625.321V625.316Z" fill="white"/>
<path d="M176.592 519.194C174.591 520.058 172.206 520.827 169.49 521.445C147.821 526.365 149.358 499.024 151.444 493.442C151.556 493.143 151.727 492.807 151.935 492.455C159.411 485.55 170.515 481.639 180.669 487.178C180.802 487.391 180.936 487.594 181.064 487.824C188.428 501.11 190.674 513.105 176.592 519.194Z" fill="white"/>
<path d="M314.154 523.51C296.252 522.945 289.363 501.201 295.446 485.086C295.707 484.398 296.065 483.741 296.497 483.112C301.46 478.736 307.895 476.906 314.154 477.034V523.51Z" fill="white"/>
<path d="M132.117 554.011C137.282 545.831 155.659 554.827 146.636 567.719C145.703 569.063 144.651 569.986 143.568 570.621C136.007 575.024 126.365 563.135 132.112 554.016L132.117 554.011Z" fill="white"/>
<path d="M216.084 511.462C212.498 512.705 208.619 513.073 204.82 512.561C190.594 510.629 186.485 492.087 187.408 482.455C197.104 468.459 218.133 466.309 228.666 476.735C228.874 477.269 229.077 477.802 229.253 478.379C234.749 496.286 226.809 507.737 216.089 511.467L216.084 511.462Z" fill="white"/>
<path d="M247.07 662.256C246.168 650.475 252.87 630.081 266.664 633.933C279.587 637.551 287.175 647.417 283.253 661.846C283.05 662.587 282.768 663.281 282.448 663.953C272.8 672.528 255.522 670.394 247.07 662.256Z" fill="white"/>
<path d="M217.861 655.047C214.174 645.314 219.083 630.961 230.918 632.903C240.987 634.562 247.561 643.484 242.177 656.936C234.002 662.101 224.664 661.712 217.861 655.037V655.047Z" fill="white"/>
<path d="M150.281 684.769C146.594 672.725 142.149 655.885 156.476 646.248C173.044 635.096 181.107 649.37 187.248 667.406C187.382 667.795 187.467 668.185 187.558 668.574C179.837 681.941 161.929 688.323 150.275 684.769H150.281Z" fill="white"/>
<path d="M193.486 629.637C212.018 621.986 212.023 641.489 212.365 653.607C209.59 660.655 200.973 666.317 193.182 664.865C186.987 656.013 176.534 636.633 193.486 629.632V629.637Z" fill="white"/>
<path d="M98.2817 655.138C109.466 660.341 107.561 679.918 100.309 691.199C86.9855 699.853 70.1344 694.555 65.4868 681.444C65.5348 680.889 65.5935 680.318 65.6789 679.732C69.1206 655.512 86.708 649.754 98.2817 655.138Z" fill="white"/>
<path d="M27.2973 516.136C22.4522 518.233 16.6413 517.732 11.6896 516.414C8.78679 497.599 17.938 479.115 35.8829 479.259C41.6457 490.086 44.6445 508.628 27.2973 516.131V516.136Z" fill="white"/>
<path d="M125.565 517.619C136.583 521.045 139.369 539.593 131.925 547.912C130.068 549.987 127.405 551.615 124.407 552.581C115.416 555.478 103.404 552.81 101.302 541.268C100.4 536.327 105.624 531.626 110.394 527.128C115.319 522.486 119.962 515.88 125.559 517.619H125.565Z" fill="white"/>
<path d="M314.154 663.564C313.962 664.161 313.754 664.78 313.519 665.442C307.292 671.45 294.939 671.984 288.146 665.97C286.241 657.838 286.385 642.305 293.802 636.932C302.505 630.63 309.277 635.582 313.167 644.589C313.663 645.736 313.866 646.894 314.154 647.908V663.558V663.564Z" fill="white"/>
<path d="M162.607 604.409C160.36 596.24 163.605 589.767 169.17 586.342C174.736 582.921 182.649 582.526 189.815 586.464C198.075 590.994 204.814 616.596 194.575 624.798C184.346 632.994 167.105 620.732 162.602 604.404L162.607 604.409Z" fill="white"/>
<path d="M115.965 666.797C107.79 665.954 103.084 659.882 104.898 652.038C106.771 643.927 123.259 637.412 128.985 636.014C134.71 634.616 144.027 644.306 140.388 656.115C139.022 660.543 136.365 663.27 133.184 664.898C127.886 667.614 121.077 667.325 115.965 666.797Z" fill="white"/>
<path d="M29.0208 653.959C29.1382 653.548 29.2716 653.137 29.4263 652.732C35.9095 635.763 51.5226 633.394 57.3495 645.619C62.8562 657.176 69.4675 660.816 58.8382 677.341C45.1461 676.717 33.423 665.458 29.0261 653.959H29.0208Z" fill="white"/>
<path d="M314.154 564.293C305.894 559.918 299.475 551.54 300.995 539.732C301.7 534.257 307.511 530.052 314.154 527.854V564.293Z" fill="white"/>
<path d="M7.73023 604.254C21.6945 598.342 34.7623 601.992 38.3854 614.75C42.0566 627.679 30.6429 636.996 23.3486 642.038C6.67905 637.519 2.50632 616.383 7.73023 604.254Z" fill="white"/>
<path d="M267.171 510.65C278.349 504.039 296.225 509.839 295.462 526.418C295.088 534.705 290.846 541.738 284.843 545.361C278.851 548.973 271.087 549.192 263.745 543.862C255.661 537.987 256.013 517.256 267.176 510.65H267.171Z" fill="white"/>
<path d="M7.17531 564.533C15.7982 565.568 16.2571 571.475 21.1289 572.185C26.2567 572.932 40.9734 572.526 38.7269 589.559C38.284 592.926 36.4004 595.103 33.6471 596.394C26.9718 599.521 15.1793 597.584 6.33222 595.685C-1.30355 588.449 -1.77846 576.438 7.17531 564.539V564.533Z" fill="white"/>
<path d="M197.083 517.748C203.24 509.834 228.389 524.103 217.205 536.696C215.694 538.398 214.126 539.508 212.546 540.175C201.533 544.844 190.263 526.509 197.083 517.742V517.748Z" fill="white"/>
<path d="M68.6777 505.154C77.6742 522.203 50.8449 549.822 38.188 533.344C21.9399 512.193 58.7955 486.42 68.6777 505.154Z" fill="white"/>
<path d="M9.50712 525.234C26.4702 520.021 42.905 538.729 35.6107 557.186C33.7698 561.844 31.3046 564.341 28.4979 565.409C21.0168 568.253 11.1293 560.878 4.41126 556.706C-0.652575 547.24 0.339916 533.163 9.50712 525.234Z" fill="white"/>
<path d="M99.461 568.13C100.304 557.26 120.992 552.138 131.007 567.153C138.504 578.423 130.762 587.361 122.779 590.37C120.122 591.373 117.47 591.715 115.314 591.266C106.702 589.49 98.794 576.769 99.461 568.124V568.13Z" fill="white"/>
<path d="M222.946 510.822C228.858 501.953 252.171 502.193 255.282 517.726C257.619 529.375 252.497 539.076 245.523 542.955C243.191 544.246 240.661 544.913 238.127 544.774C227.994 544.219 214.947 522.812 222.951 510.822H222.946Z" fill="white"/>
<path d="M265.927 569.762C270.954 554.854 290.66 541.3 304.026 557.938C317.393 574.575 307.607 588.956 292.084 595.973C280.297 601.298 260.896 584.671 265.922 569.768L265.927 569.762Z" fill="white"/>
<path d="M183.471 566.262C181.976 573.685 175.856 578.631 169.533 581.278C163.215 583.924 156.7 584.292 154.331 582.58C148.957 578.668 146.978 554.539 161.065 548.883C175.162 543.221 186.475 551.407 183.471 566.262Z" fill="white"/>
<path d="M157.575 546.877C143.488 554.849 130.031 520.89 141.023 514.754C148.344 510.672 171.646 538.91 157.575 546.877Z" fill="white"/>
<path d="M76.4256 563.231C73.5068 552.266 97.7481 541.317 103.25 551.615C106.003 556.764 100.176 563.077 93.2339 566.38C86.2918 569.683 78.2345 570.03 76.4256 563.237V563.231Z" fill="white"/>
<path d="M115.127 637.978C110.213 640.512 104.349 641.057 101.969 639.995C94.221 636.537 88.2661 618.592 96.8837 610.85C105.496 603.107 125.975 618.245 124.764 626.265C124.156 630.273 120.047 635.438 115.133 637.978H115.127Z" fill="white"/>
<path d="M83.5491 532.827C87.6631 540.858 84.5042 547.015 79.5898 549.822C74.6807 552.629 68.0001 552.09 65.1507 546.818C57.9684 533.51 75.4331 516.974 83.5491 532.827Z" fill="white"/>
<path d="M81.0785 494.808C91.1849 485.881 111.355 488.939 111.456 510.341C111.52 521.035 107.198 526.675 101.98 529.289C96.7609 531.904 90.6299 531.536 87.1135 530.111C80.0807 527.256 68.1975 506.19 81.0732 494.814L81.0785 494.808Z" fill="white"/>
<path d="M184.591 520.917C191.56 522.833 196.394 534.081 190.194 540.426C189.404 541.226 188.46 541.888 187.414 542.448C180.071 546.375 167.26 544.652 165.302 537.694C162.714 528.43 177.606 519.007 184.596 520.917H184.591Z" fill="white"/>
<path d="M204.809 546.151C208.816 554.656 205.055 560.398 199.916 562.052C194.777 563.706 188.241 561.294 186.661 553.557C184.639 543.627 199.34 534.561 204.809 546.151Z" fill="white"/>
<path d="M215.049 542.117C221.761 536.669 238.949 548.574 239.135 559.55C239.269 566.401 233.602 573.898 227.044 577.34C223.106 579.405 218.885 580.024 215.385 578.162C207.296 573.845 203.038 551.861 215.049 542.117Z" fill="white"/>
<path d="M189.98 568.439C196.298 559.747 219.91 576.971 210.551 588.092C205.871 593.652 198.641 591.587 193.662 586.688C188.684 581.795 185.893 574.063 189.98 568.439Z" fill="white"/>
<path d="M233.084 620.444C231.793 623.304 229.691 625.454 227.193 626.762C219.734 630.668 208.603 627.37 203.907 615.679C199.446 604.543 210.673 585.701 223.843 590.194C237.017 594.687 238.282 608.998 233.084 620.444Z" fill="white"/>
<path d="M250.25 611.602C236.964 611.239 226.857 588.502 236.318 576.379C242.737 568.156 260.778 569.976 264.871 584.089C267.955 594.671 265.671 605.087 258.724 609.473C256.403 610.94 253.559 611.692 250.245 611.596L250.25 611.602Z" fill="white"/>
<path d="M288.872 634.787C283.664 637.022 276.749 636.494 270.959 632.46C264.294 627.818 261.232 605.903 271.012 600.215C280.793 594.527 294.421 606.538 296.545 620.54C297.612 627.535 294.08 632.551 288.872 634.787Z" fill="white"/>
<path d="M251.424 568.477C237.641 564.005 243.847 537.453 259.273 545.03C270.852 550.713 266.402 562.938 259.145 567.292C256.712 568.749 253.985 569.304 251.424 568.471V568.477Z" fill="white"/>
<path d="M255.789 631.255C254.69 632.903 252.486 635.086 249.957 636.366C247.433 637.647 244.578 638.01 242.129 636.025C237.214 632.066 235.064 611.848 253.964 615.433C260.586 616.687 257.993 627.957 255.789 631.255Z" fill="white"/>
</g>
</g>
<mask id="mask1_33_2268" style="mask-type:luminance" maskUnits="userSpaceOnUse" x="24" y="512" width="555" height="141">
<path d="M578.45 512.315H24.8534L24.9921 652.993H578.45V512.315Z" fill="white"/>
</mask>
<g mask="url(#mask1_33_2268)">
<path d="M786.478 515.372C786.275 500.506 767.205 495.533 756.122 502.203C747.061 488.063 728.369 492.615 721.785 503.847C713.765 495.202 692.794 496.611 685.484 510.042C676.707 499.349 655.64 505.474 650.902 517.587C643.81 509.263 629.563 508.58 622.125 516.365C615.828 497.396 591.817 493.244 580.462 501.84C574.773 493.554 557.965 493.452 553.253 503.623C543.75 491.473 520.597 496.046 515.939 508.169C506.649 501.766 495.428 503.564 489.328 514.86C489.43 505.869 477.307 497.054 468.289 501.579C462.403 484.675 439.176 477.316 428.605 484.899C424.859 463.229 394.081 465.817 390.693 478.81C377.278 467.669 358.16 474.28 356.201 489.738C337.659 486.569 301.107 491.654 302.532 505.426C292.613 506.451 297.02 515.735 298.503 526.957C300.094 538.973 297.959 554.4 307.409 559.416C320.098 575.279 311.422 672.282 333.689 666.578C338.011 695.931 375.448 691.993 384.343 680.297C399.407 689.288 415.217 673.819 414.385 660.346C423.232 662.112 429.555 658.387 431.492 651.621C438.519 660.34 451.849 666.327 463.081 657.597C469.633 676.866 496.052 680.094 505.39 666.034C514.882 674.673 526.584 674.619 533.542 663.926C546.434 674.475 554.705 670.777 560.414 659.422C569.918 673.098 591.406 670.068 597.825 659.577C613.289 671.85 630.193 669.79 634.857 657.971C649.018 664.465 668.068 659.182 673.537 646.296C686.493 650.837 705.361 641.104 704.875 627.524C717.895 628.89 726.801 621.836 728.7 604.072C738.545 606.276 748.78 604.633 749.564 581.501C767.045 582.035 775.988 576.357 779.952 553.786C802.876 543.125 798.89 519.156 786.478 515.378V515.372Z" fill="#FA8B46"/>
<g opacity="0.43">
<path d="M391.307 565.787C390.997 559.074 387.561 553.375 382.705 550.446C377.844 547.517 371.564 547.346 365.619 551.663C359.072 556.417 359.355 573.209 368.399 578.556C377.449 583.908 391.926 579.212 391.307 565.787Z" fill="white"/>
<path d="M344.734 606.314C355.609 606.714 364.136 595.765 359.974 583.929C358.41 579.495 355.353 576.817 351.772 575.659C345.801 573.722 338.406 576.043 334.153 581.646C329.153 588.236 333.865 605.914 344.74 606.314H344.734Z" fill="white"/>
<path d="M312.975 628.874C323.849 629.274 332.376 618.325 328.214 606.489C326.651 602.05 323.593 599.377 320.013 598.219C314.042 596.282 306.646 598.603 302.393 604.206C297.394 610.796 302.105 628.474 312.98 628.874H312.975Z" fill="white"/>
<path d="M310.563 534.918C321.437 535.318 329.964 524.369 325.802 512.534C324.239 508.094 321.181 505.421 317.601 504.263C311.63 502.326 304.234 504.647 299.982 510.25C294.982 516.84 299.693 534.518 310.568 534.918H310.563Z" fill="white"/>
<path d="M407.128 549.592C401.168 557.068 415.804 571.326 424.966 573.866C434.139 576.411 441.177 567.601 435.691 559.176C433.066 555.152 428.253 549.827 422.938 546.972C417.608 544.112 411.807 543.723 407.122 549.598L407.128 549.592Z" fill="white"/>
<path d="M427.933 547.49C439.773 556.177 453.151 537.08 451.464 530.965C449.981 525.591 438.242 515.357 428.877 520.81C423.963 523.681 416.092 538.803 427.933 547.49Z" fill="white"/>
<path d="M373.383 544.747C380.645 538.461 385.539 518.249 371.633 513.372C369.648 512.673 367.273 512.294 364.472 512.304C357.754 512.336 348.864 527.464 352.077 535.825C355.289 544.187 365.08 551.929 373.383 544.747Z" fill="white"/>
<path d="M423.739 638.164C421.081 636.686 418.003 636.414 415.228 637.662C408.206 640.827 405.922 653.777 417.565 660.751C422.928 661.039 427.095 659.092 429.571 655.618C429.656 655.175 429.742 654.753 429.832 654.273C431.358 646.424 428.152 640.624 423.733 638.164H423.739Z" fill="white"/>
<path d="M343.427 535.953C335.215 536.22 334.463 548.552 334.825 553.92C335.188 559.293 341.559 573.332 353.752 567.612C359.91 564.72 353.651 542.437 346.49 537.085C345.465 536.322 344.451 535.916 343.427 535.948V535.953Z" fill="white"/>
<path d="M321.384 537.149C313.172 537.416 312.42 549.747 312.782 555.115C313.145 560.488 319.517 574.527 331.709 568.807C337.867 565.915 331.608 543.632 324.447 538.28C323.422 537.517 322.409 537.111 321.384 537.143V537.149Z" fill="white"/>
<path d="M456.496 630.859C454.709 630.085 452.574 629.397 450.141 628.842C430.761 624.44 432.132 648.895 434.005 653.884C434.107 654.15 434.261 654.449 434.443 654.764C441.129 660.938 451.059 664.438 460.135 659.486C460.253 659.294 460.376 659.113 460.488 658.91C467.072 647.027 469.084 636.302 456.491 630.859H456.496Z" fill="white"/>
<path d="M381.654 681.38C385.704 669.913 381.339 660.938 372.636 656.296C369.733 654.748 366.377 653.724 362.669 653.206C350.012 651.434 341.25 662.112 338.171 670.484C339.857 676.188 342.845 680.366 346.543 683.264C353.053 686.268 361.772 688.487 368.97 688.242C373.122 687.559 376.969 686.134 379.994 684.187C380.699 683.381 381.27 682.463 381.654 681.38Z" fill="white"/>
<path d="M585.958 628.02C584.266 627.369 582.415 626.99 580.339 626.974C563.717 626.825 557.261 646.702 562.789 661.359C563.018 661.973 563.338 662.56 563.728 663.126C572.276 670.665 585.718 669.801 593.513 664.124C594.01 663.478 594.452 662.768 594.831 662C600.215 651.104 597.787 632.583 585.958 628.02Z" fill="white"/>
<path d="M525.576 649.22C521.633 646.776 516.179 647.038 512.049 649.434C504.408 653.863 506.425 663.446 507.903 668.046C514.856 673.088 522.604 673.686 528.703 669.161C529.252 668.024 529.717 666.701 530.069 665.154C531.968 656.792 529.524 651.664 525.581 649.22H525.576Z" fill="white"/>
<path d="M416.727 599.724C421.348 607.039 437.783 598.992 429.715 587.467C428.877 586.266 427.943 585.439 426.972 584.873C420.212 580.936 411.589 591.57 416.727 599.724Z" fill="white"/>
<path d="M312.831 589.105C317.451 596.421 333.886 588.374 325.818 576.849C324.981 575.648 324.047 574.821 323.076 574.255C316.315 570.317 307.692 580.952 312.831 589.105Z" fill="white"/>
<path d="M491.815 637.774C488.608 636.659 485.14 636.334 481.741 636.793C469.02 638.521 465.343 655.106 466.17 663.718C474.841 676.236 493.645 678.157 503.063 668.835C503.25 668.36 503.431 667.88 503.592 667.362C508.511 651.349 501.404 641.104 491.815 637.774Z" fill="white"/>
<path d="M552.805 647.006C549.908 645.362 546.247 644.717 542.208 645.346C531.531 647.006 532.838 659.754 535.965 665.767C546.621 673.344 553.91 670.548 559.171 661.68C560.196 655.031 557.538 649.695 552.8 647.006H552.805Z" fill="white"/>
<path d="M519.53 502.918C518.719 513.457 524.717 531.695 537.053 528.248C548.611 525.015 555.399 516.189 551.887 503.287C551.706 502.625 551.455 502.001 551.167 501.403C542.539 493.735 527.086 495.64 519.53 502.918Z" fill="white"/>
<path d="M493.405 509.364C490.108 518.067 494.499 530.9 505.08 529.166C514.082 527.683 519.962 519.7 515.149 507.673C507.839 503.052 499.488 503.404 493.405 509.37V509.364Z" fill="white"/>
<path d="M432.97 482.786C429.672 493.554 425.697 508.617 438.509 517.235C453.327 527.208 460.536 514.444 466.032 498.313C466.149 497.961 466.229 497.614 466.309 497.267C459.404 485.315 443.391 479.605 432.97 482.786Z" fill="white"/>
<path d="M471.608 532.09C488.181 538.936 488.187 521.493 488.491 510.656C486.01 504.354 478.304 499.29 471.336 500.587C465.792 508.5 456.448 525.837 471.608 532.096V532.09Z" fill="white"/>
<path d="M386.467 509.284C396.467 504.631 394.764 487.124 388.281 477.034C376.366 469.296 361.297 474.035 357.14 485.758C357.183 486.254 357.236 486.766 357.311 487.289C360.39 508.948 376.115 514.097 386.467 509.284Z" fill="white"/>
<path d="M410.863 632.268C420.719 629.205 423.21 612.621 416.551 605.177C414.892 603.32 412.512 601.863 409.828 600.999C401.787 598.406 391.045 600.791 389.167 611.116C388.361 615.534 393.036 619.739 397.299 623.762C401.706 627.913 405.853 633.82 410.858 632.268H410.863Z" fill="white"/>
<path d="M556.263 499.599C554.561 506.872 554.684 520.767 561.321 525.569C569.101 531.204 575.963 527.448 578.642 518.718C581.289 510.09 581.614 507.593 578.957 500.074C573.386 494.701 562.341 494.226 556.268 499.599H556.263Z" fill="white"/>
<path d="M443.994 554.651C441.988 561.956 444.885 567.745 449.864 570.808C454.842 573.871 461.918 574.218 468.326 570.696C475.711 566.646 481.741 543.749 472.584 536.412C463.438 529.081 448.017 540.046 443.994 554.651Z" fill="white"/>
<path d="M402.283 498.858C394.973 499.61 390.762 505.042 392.385 512.059C394.06 519.316 408.803 525.137 413.926 526.386C419.048 527.635 427.378 518.969 424.123 508.409C422.901 504.45 420.527 502.011 417.682 500.555C412.944 498.127 406.856 498.388 402.283 498.858Z" fill="white"/>
<path d="M327.665 510.336C327.771 510.704 327.889 511.072 328.027 511.435C333.828 526.61 347.786 528.729 353 517.795C357.925 507.459 363.837 504.205 354.328 489.429C342.082 489.989 331.602 500.058 327.665 510.341V510.336Z" fill="white"/>
<path d="M594.906 623.458C602.745 619.782 611.288 596.239 600.386 589.575C589.485 582.91 565.099 591.885 567.751 612.487C568.963 621.911 587.068 627.129 594.906 623.453V623.458Z" fill="white"/>
<path d="M537.502 638.5C547.496 644.413 563.488 639.226 562.8 624.397C562.463 616.986 558.669 610.695 553.302 607.456C547.944 604.222 540.997 604.03 534.434 608.8C527.203 614.051 527.518 632.593 537.502 638.5Z" fill="white"/>
<path d="M474.825 632.15C480.332 639.226 502.823 626.467 492.824 615.203C491.474 613.682 490.07 612.69 488.656 612.092C478.806 607.914 468.726 624.317 474.825 632.15Z" fill="white"/>
<path d="M355.449 636.803C360.801 626.66 344.841 610.225 337.307 620.033C327.638 632.62 349.569 647.95 355.449 636.803Z" fill="white"/>
<path d="M414.273 663.537C412.01 660.484 409.673 658.462 407.347 657.304C395.111 651.216 383.463 668.638 387.945 681.972C400.639 686.407 412.864 675.009 414.273 663.542V663.537Z" fill="white"/>
<path d="M387.523 587.094C388.276 596.81 406.781 601.394 415.735 587.963C422.442 577.884 415.516 569.896 408.376 567.201C405.997 566.305 403.627 566.001 401.701 566.401C394.001 567.991 386.926 579.367 387.523 587.094Z" fill="white"/>
<path d="M497.951 638.345C503.239 646.28 524.087 646.061 526.867 632.172C528.959 621.756 524.375 613.08 518.137 609.611C516.051 608.453 513.789 607.861 511.526 607.984C502.46 608.48 490.801 627.62 497.951 638.345Z" fill="white"/>
<path d="M536.392 585.637C540.885 598.966 558.509 611.09 570.462 596.213C582.415 581.336 573.669 568.476 559.785 562.201C549.241 557.436 531.894 572.308 536.392 585.637Z" fill="white"/>
<path d="M462.654 588.764C461.32 582.126 455.84 577.702 450.189 575.333C444.538 572.964 438.717 572.633 436.593 574.17C431.791 577.665 430.019 599.243 442.617 604.302C455.226 609.366 465.343 602.045 462.654 588.764Z" fill="white"/>
<path d="M439.496 606.1C426.898 598.971 414.865 629.338 424.694 634.829C431.241 638.479 452.083 613.229 439.496 606.1Z" fill="white"/>
<path d="M366.921 591.474C364.312 601.276 385.992 611.073 390.912 601.863C393.372 597.258 388.164 591.618 381.953 588.662C375.747 585.706 368.538 585.397 366.921 591.474Z" fill="white"/>
<path d="M401.53 524.636C397.134 522.368 391.888 521.882 389.765 522.832C382.833 525.927 377.513 541.972 385.218 548.898C392.923 555.824 411.231 542.282 410.148 535.11C409.604 531.524 405.927 526.903 401.53 524.636Z" fill="white"/>
<path d="M373.292 618.667C376.969 611.484 374.146 605.978 369.749 603.47C365.358 600.962 359.382 601.442 356.842 606.154C350.417 618.053 366.036 632.844 373.292 618.667Z" fill="white"/>
<path d="M371.083 652.667C380.122 660.65 398.158 657.918 398.249 638.778C398.307 629.216 394.444 624.173 389.775 621.831C385.106 619.494 379.626 619.824 376.483 621.1C370.198 623.65 359.568 642.492 371.083 652.667Z" fill="white"/>
<path d="M583.727 530.751C581.742 530.052 579.378 529.673 576.566 529.684C569.854 529.716 560.964 544.843 564.176 553.205C567.378 561.561 577.175 569.309 585.472 562.121C592.74 555.841 597.633 535.623 583.727 530.746V530.751Z" fill="white"/>
<path d="M463.652 629.317C469.884 627.604 474.206 617.546 468.662 611.874C467.958 611.159 467.11 610.567 466.176 610.065C459.612 606.554 448.151 608.091 446.401 614.312C444.09 622.599 457.409 631.025 463.652 629.317Z" fill="white"/>
<path d="M481.735 606.751C485.316 599.147 481.954 594.014 477.36 592.531C472.766 591.047 466.917 593.208 465.509 600.129C463.7 609.008 476.848 617.114 481.735 606.751Z" fill="white"/>
<path d="M490.887 610.358C496.89 615.23 512.257 604.585 512.428 594.772C512.545 588.641 507.481 581.939 501.617 578.86C498.095 577.009 494.318 576.459 491.191 578.124C483.955 581.982 480.145 601.645 490.887 610.358Z" fill="white"/>
<path d="M468.47 586.816C474.121 594.591 495.235 579.186 486.863 569.245C482.68 564.271 476.213 566.123 471.763 570.499C467.312 574.874 464.815 581.79 468.47 586.816Z" fill="white"/>
<path d="M507.017 540.313C505.865 537.757 503.981 535.831 501.745 534.662C495.075 531.167 485.118 534.118 480.919 544.571C476.933 554.528 486.97 571.379 498.747 567.361C510.528 563.343 511.66 550.542 507.012 540.313H507.017Z" fill="white"/>
<path d="M522.369 548.221C510.486 548.546 501.452 568.882 509.909 579.719C515.646 587.072 531.782 585.444 535.442 572.825C538.201 563.364 536.157 554.048 529.946 550.126C527.87 548.813 525.325 548.141 522.364 548.226L522.369 548.221Z" fill="white"/>
<path d="M556.909 527.485C552.25 525.484 546.071 525.959 540.89 529.566C534.93 533.718 532.187 553.317 540.938 558.402C549.689 563.487 561.871 552.746 563.771 540.222C564.726 533.963 561.567 529.481 556.909 527.48V527.485Z" fill="white"/>
<path d="M523.42 586.784C511.094 590.786 516.643 614.531 530.442 607.749C540.799 602.669 536.819 591.736 530.33 587.84C528.153 586.538 525.715 586.042 523.425 586.784H523.42Z" fill="white"/>
<path d="M527.321 530.644C526.333 529.172 524.365 527.219 522.107 526.077C519.85 524.935 517.294 524.609 515.107 526.381C510.715 529.924 508.789 548.002 525.688 544.795C531.611 543.675 529.29 533.595 527.321 530.65V530.644Z" fill="white"/>
</g>
</g>
<path d="M24.6977 673.948C24.687 687.848 24.6443 701.747 24.6015 715.647H578.972C578.988 709.733 579.02 703.818 579.03 697.906C579.089 674.006 580.094 650.058 578.972 626.162C578.891 624.473 578.753 623.526 577.85 622.977C576.551 622.186 573.671 622.233 567.121 622.1C540.251 621.545 513.514 620.641 486.585 620.84C425.467 621.292 365.155 626.621 304.212 626.888C267.997 627.046 231.953 625.281 196.038 623.476C177.177 622.529 158.369 621.331 139.412 620.807C122.747 620.347 106.008 620.963 89.407 621.598C67.7624 622.424 46.0751 623.129 24.5 624.243C24.5 624.243 24.6336 640.416 24.6496 645.065C24.6923 654.693 24.6977 664.318 24.687 673.946L24.6977 673.948Z" fill="#FFDCD1"/>
<path d="M578.45 491.569H24.8534L68.507 423.647H534.796L578.45 491.569Z" fill="#FFBB75"/>
<path d="M578.45 491.568H24.8534V512.309H578.455V491.568H578.45Z" fill="#FFD5AB"/>
<path d="M331.266 480.336C339.847 490.117 338.87 505.074 329.084 513.745C319.298 522.411 304.41 521.509 295.83 511.728C287.25 501.947 288.226 486.99 298.013 478.319C307.799 469.654 322.686 470.556 331.266 480.336Z" fill="#42210B"/>
<g opacity="0.89">
<path d="M317.457 535.388C325.477 544.533 339.393 545.376 348.539 537.276C357.685 529.176 358.597 515.191 350.577 506.05C342.557 496.904 328.641 496.061 319.495 504.161C310.349 512.261 309.437 526.247 317.457 535.388Z" fill="#42210B"/>
</g>
<g opacity="0.89">
<path d="M322.846 507.657C326.998 512.39 334.196 512.827 338.929 508.633C343.662 504.439 344.131 497.209 339.985 492.476C335.839 487.743 328.636 487.305 323.903 491.5C319.17 495.694 318.7 502.924 322.846 507.657Z" fill="#42210B"/>
</g>
<path d="M314.394 472.578C306.582 463.672 293.029 462.85 284.118 470.737C275.212 478.629 274.321 492.246 282.133 501.152C289.944 510.058 303.498 510.88 312.409 502.993C321.32 495.101 322.206 481.484 314.394 472.578Z" fill="#42210B"/>
<path d="M348.816 460.006C341.004 451.1 327.451 450.279 318.54 458.165C309.629 466.057 308.743 479.675 316.555 488.58C324.367 497.486 337.92 498.308 346.831 490.421C355.742 482.529 356.628 468.912 348.816 460.006Z" fill="#42210B"/>
<path d="M309.602 497.225C301.79 488.319 288.237 487.497 279.326 495.384C270.415 503.276 269.529 516.893 277.341 525.799C285.153 534.705 298.706 535.532 307.617 527.64C316.528 519.748 317.414 506.131 309.602 497.225Z" fill="#42210B"/>
<path d="M318.615 455.14C313.85 449.703 305.579 449.201 300.142 454.02C294.704 458.833 294.165 467.146 298.93 472.578C303.695 478.015 311.966 478.517 317.403 473.699C322.841 468.886 323.38 460.572 318.615 455.14Z" fill="#42210B"/>
<path d="M304.8 460.972C301.758 457.504 296.481 457.184 293.013 460.257C289.544 463.331 289.198 468.635 292.239 472.098C295.281 475.561 300.558 475.886 304.026 472.813C307.495 469.739 307.841 464.435 304.8 460.972Z" fill="#42210B"/>
<path d="M331.053 505.405C323.241 496.499 309.688 495.672 300.777 503.564C291.871 511.456 290.98 525.073 298.792 533.979C306.603 542.885 320.157 543.706 329.068 535.82C337.974 527.928 338.865 514.311 331.053 505.405Z" fill="#42210B"/>
<path d="M339.084 523.793C334.148 518.163 325.583 517.646 319.954 522.629C314.325 527.613 313.764 536.22 318.7 541.85C323.636 547.479 332.2 547.997 337.83 543.013C343.459 538.024 344.019 529.422 339.084 523.793Z" fill="#42210B"/>
<path d="M329.772 535.836C325.941 531.471 319.298 531.065 314.928 534.934C310.557 538.802 310.125 545.478 313.956 549.848C317.788 554.218 324.431 554.618 328.801 550.75C333.171 546.881 333.603 540.201 329.772 535.836Z" fill="#42210B"/>
<path d="M329.772 548.509C325.941 544.144 319.298 543.739 314.928 547.607C310.557 551.476 310.125 558.151 313.956 562.521C317.788 566.891 324.431 567.292 328.801 563.423C333.171 559.555 333.603 552.874 329.772 548.509Z" fill="#42210B"/>
<path d="M317.67 535.836C313.839 531.471 307.196 531.065 302.826 534.934C298.455 538.802 298.023 545.478 301.854 549.848C305.686 554.213 312.329 554.618 316.699 550.75C321.069 546.881 321.501 540.201 317.67 535.836Z" fill="#42210B"/>
<path d="M318.311 546.593C316.005 543.968 312.009 543.722 309.378 546.049C306.753 548.375 306.486 552.393 308.791 555.018C311.096 557.644 315.093 557.889 317.724 555.563C320.349 553.236 320.616 549.218 318.311 546.593Z" fill="#42210B"/>
<path d="M353.64 485.55C348.203 479.349 338.763 478.778 332.563 484.269C326.363 489.765 325.744 499.242 331.181 505.442C336.618 511.642 346.058 512.213 352.258 506.723C358.458 501.227 359.077 491.75 353.64 485.55Z" fill="#42210B"/>
<path d="M368.026 499.834C362.588 493.634 353.149 493.063 346.949 498.554C340.748 504.044 340.129 513.526 345.567 519.727C351.004 525.927 360.443 526.498 366.644 521.007C372.844 515.517 373.463 506.035 368.026 499.834Z" fill="#42210B"/>
<path d="M325.119 510.65C320.621 517.16 322.259 526.124 328.774 530.671C335.29 535.222 344.217 533.632 348.715 527.122C353.213 520.612 351.575 511.648 345.06 507.102C338.545 502.555 329.618 504.14 325.119 510.65Z" fill="#42210B"/>
<g opacity="0.73">
<path d="M351.49 505.666C343.267 507.32 335.279 501.963 333.657 493.692C332.035 485.421 337.387 477.375 345.609 475.715C353.832 474.061 361.82 479.418 363.442 487.689C365.064 495.96 359.712 504.007 351.49 505.666Z" fill="#42210B"/>
</g>
<g opacity="0.73">
<path d="M298.616 541.444C290.393 543.098 282.405 537.741 280.783 529.47C279.161 521.199 284.513 513.153 292.735 511.493C300.958 509.834 308.946 515.196 310.568 523.467C312.19 531.738 306.838 539.785 298.616 541.444Z" fill="#42210B"/>
</g>
<path d="M336.143 464.819C333.529 464.531 331.64 462.178 331.928 459.563C332.216 456.949 334.569 455.06 337.184 455.342C339.799 455.631 341.687 457.984 341.405 460.598C341.117 463.213 338.763 465.102 336.149 464.814L336.143 464.819Z" fill="black"/>
<path d="M283.808 502.934C282.223 502.763 281.082 501.339 281.252 499.754C281.423 498.169 282.848 497.027 284.432 497.198C286.017 497.369 287.159 498.794 286.988 500.378C286.818 501.963 285.393 503.105 283.808 502.934Z" fill="black"/>
<path d="M309.991 475.883C313.811 472.818 314.422 467.236 311.356 463.416C308.291 459.596 302.709 458.985 298.889 462.051C295.069 465.116 294.458 470.698 297.524 474.518C300.589 478.338 306.171 478.949 309.991 475.883Z" fill="black"/>
<path d="M339.233 489.851C337.648 489.68 336.506 488.255 336.677 486.67C336.848 485.086 338.272 483.944 339.857 484.115C341.442 484.285 342.584 485.715 342.413 487.295C342.242 488.88 340.818 490.021 339.233 489.851Z" fill="black"/>
<path d="M349.461 488.152C351.708 482.002 348.544 475.194 342.393 472.947C336.243 470.7 329.435 473.864 327.188 480.015C324.941 486.165 328.105 492.973 334.256 495.22C340.406 497.467 347.214 494.303 349.461 488.152Z" fill="black"/>
<path d="M348.141 521.564C352.654 516.82 352.467 509.315 347.723 504.802C342.978 500.288 335.473 500.476 330.96 505.22C326.447 509.964 326.634 517.469 331.379 521.983C336.123 526.496 343.628 526.308 348.141 521.564Z" fill="black"/>
<path d="M323.46 541.956C328.257 541.956 332.147 538.067 332.147 533.269C332.147 528.471 328.257 524.582 323.46 524.582C318.662 524.582 314.773 528.471 314.773 533.269C314.773 538.067 318.662 541.956 323.46 541.956Z" fill="black"/>
<path d="M321.854 470.54C318.369 470.155 315.851 467.023 316.23 463.533C316.614 460.049 319.746 457.53 323.236 457.909C326.72 458.293 329.239 461.426 328.86 464.915C328.476 468.4 325.343 470.918 321.854 470.54Z" fill="black"/>
<path d="M323.249 495.818C325.984 493.623 326.422 489.627 324.227 486.892C322.031 484.157 318.035 483.719 315.3 485.914C312.565 488.109 312.127 492.106 314.322 494.841C316.517 497.576 320.514 498.013 323.249 495.818Z" fill="black"/>
<path d="M304.901 532.784C301.417 532.399 298.898 529.267 299.277 525.778C299.661 522.293 302.794 519.775 306.283 520.153C309.768 520.538 312.286 523.67 311.907 527.16C311.523 530.644 308.391 533.163 304.901 532.784Z" fill="black"/>
<path d="M304.042 515.869C302.078 515.655 300.659 513.884 300.873 511.92C301.086 509.957 302.858 508.537 304.821 508.751C306.785 508.964 308.204 510.736 307.991 512.699C307.777 514.663 306.006 516.082 304.042 515.869Z" fill="black"/>
<path d="M311.945 548.53C313.922 548.53 315.525 546.927 315.525 544.95C315.525 542.972 313.922 541.369 311.945 541.369C309.967 541.369 308.364 542.972 308.364 544.95C308.364 546.927 309.967 548.53 311.945 548.53Z" fill="black"/>
<path d="M318.017 514.289C314.746 513.932 312.382 510.986 312.74 507.715C313.097 504.444 316.043 502.081 319.314 502.438C322.585 502.796 324.949 505.741 324.591 509.012C324.234 512.283 321.288 514.647 318.017 514.289Z" fill="black"/>
<path d="M321.891 561.443C318.62 561.086 316.256 558.14 316.614 554.869C316.971 551.598 319.917 549.234 323.188 549.592C326.459 549.949 328.822 552.895 328.465 556.166C328.107 559.437 325.162 561.801 321.891 561.443Z" fill="black"/>
<path d="M354.211 503.105C350.94 502.747 348.576 499.802 348.934 496.531C349.291 493.26 352.237 490.896 355.508 491.254C358.779 491.611 361.142 494.557 360.785 497.827C360.427 501.098 357.482 503.462 354.211 503.105Z" fill="black"/>
<path d="M286.551 485.64C283.28 485.283 280.916 482.337 281.274 479.066C281.631 475.796 284.577 473.432 287.847 473.789C291.118 474.147 293.482 477.092 293.125 480.363C292.767 483.634 289.822 485.998 286.551 485.64Z" fill="black"/>
<path d="M309.689 494.5C310.201 489.944 306.922 485.835 302.365 485.323C297.808 484.811 293.699 488.09 293.187 492.647C292.675 497.203 295.954 501.312 300.511 501.824C305.068 502.336 309.177 499.057 309.689 494.5Z" fill="black"/>
<path d="M289.028 522.437C293.5 521.424 296.305 516.978 295.292 512.505C294.279 508.033 289.832 505.229 285.36 506.241C280.888 507.254 278.083 511.701 279.096 516.173C280.109 520.645 284.556 523.45 289.028 522.437Z" fill="black"/>
<rect x="221.5" y="0.646973" width="200" height="200" rx="100" fill="url(#paint0_linear_33_2268)"/>
<rect width="32.3529" height="147.059" transform="translate(302.882 221.647)" fill="url(#paint1_linear_33_2268)"/>
<path d="M319.059 396.647L289.13 365.213L348.988 365.213L319.059 396.647Z" fill="#FF9B4E"/>
<rect width="32.3529" height="147.059" transform="translate(229.882 193.647)" fill="url(#paint2_linear_33_2268)"/>
<path d="M246.059 368.647L216.13 337.213L275.988 337.213L246.059 368.647Z" fill="#FF9B4E"/>
<rect width="32.3529" height="147.059" transform="translate(375.882 193.647)" fill="url(#paint3_linear_33_2268)"/>
<path d="M392.059 368.647L362.13 337.213L421.988 337.213L392.059 368.647Z" fill="#FF9B4E"/>
</g>
<path d="M621 576.647H747" stroke="white" stroke-width="4" stroke-linecap="round"/>
<path d="M800.861 586.647V558.647H818.261V562.467H804.901V570.267H813.401V574.087H804.901V582.787H819.121V586.647H800.861ZM824.502 594.767V566.207H828.482V567.847C829.829 566.434 831.496 565.727 833.482 565.727C835.216 565.727 836.709 566.16 837.962 567.027C839.229 567.894 840.202 569.127 840.882 570.727C841.576 572.327 841.922 574.22 841.922 576.407C841.922 578.58 841.569 580.474 840.862 582.087C840.169 583.687 839.189 584.927 837.922 585.807C836.656 586.687 835.169 587.127 833.462 587.127C832.422 587.127 831.489 586.94 830.662 586.567C829.836 586.194 829.109 585.62 828.482 584.847V592.927L824.502 594.767ZM832.922 583.367C834.522 583.367 835.749 582.767 836.602 581.567C837.456 580.354 837.882 578.634 837.882 576.407C837.882 574.247 837.436 572.547 836.542 571.307C835.649 570.067 834.442 569.447 832.922 569.447C831.949 569.447 831.082 569.66 830.322 570.087C829.576 570.5 828.962 571.1 828.482 571.887V580.927C829.069 581.727 829.736 582.334 830.482 582.747C831.242 583.16 832.056 583.367 832.922 583.367ZM847.316 586.647V566.207H851.296V586.647H847.316ZM849.296 562.867C848.629 562.867 848.056 562.634 847.576 562.167C847.109 561.687 846.876 561.114 846.876 560.447C846.876 559.767 847.109 559.187 847.576 558.707C848.042 558.227 848.616 557.987 849.296 557.987C849.989 557.987 850.569 558.227 851.036 558.707C851.502 559.187 851.736 559.767 851.736 560.447C851.736 561.127 851.502 561.7 851.036 562.167C850.569 562.634 849.989 562.867 849.296 562.867ZM865.083 587.127C862.483 587.127 860.429 586.174 858.923 584.267C857.416 582.347 856.663 579.727 856.663 576.407C856.663 574.234 857.009 572.347 857.703 570.747C858.396 569.147 859.369 567.914 860.623 567.047C861.889 566.167 863.383 565.727 865.103 565.727C867.049 565.727 868.696 566.374 870.043 567.667V559.607L874.023 557.767V586.647H870.043V585.027C868.816 586.427 867.163 587.127 865.083 587.127ZM865.683 583.367C866.603 583.367 867.436 583.16 868.183 582.747C868.929 582.32 869.549 581.714 870.043 580.927V571.787C869.549 571.067 868.916 570.5 868.143 570.087C867.383 569.66 866.563 569.447 865.683 569.447C864.083 569.447 862.849 570.047 861.983 571.247C861.116 572.447 860.683 574.167 860.683 576.407C860.683 577.807 860.889 579.034 861.303 580.087C861.716 581.127 862.296 581.934 863.043 582.507C863.789 583.08 864.669 583.367 865.683 583.367ZM888.578 587.127C886.671 587.127 885.024 586.674 883.638 585.767C882.264 584.86 881.204 583.6 880.458 581.987C879.724 580.374 879.358 578.514 879.358 576.407C879.358 574.167 879.738 572.254 880.498 570.667C881.271 569.067 882.344 567.847 883.718 567.007C885.104 566.154 886.724 565.727 888.578 565.727C890.151 565.727 891.584 566.074 892.878 566.767C894.184 567.447 895.224 568.507 895.998 569.947C896.784 571.374 897.178 573.207 897.178 575.447C897.178 575.767 897.164 576.154 897.138 576.607C897.124 577.047 897.091 577.5 897.038 577.967H883.378C883.484 579.1 883.758 580.1 884.198 580.967C884.651 581.82 885.251 582.487 885.998 582.967C886.744 583.447 887.624 583.687 888.638 583.687C889.531 583.687 890.344 583.534 891.078 583.227C891.811 582.907 892.498 582.414 893.138 581.747L895.458 584.247C894.658 585.087 893.678 585.78 892.518 586.327C891.358 586.86 890.044 587.127 888.578 587.127ZM883.358 574.647H893.218C893.191 573.567 892.991 572.62 892.618 571.807C892.258 570.98 891.731 570.334 891.038 569.867C890.358 569.4 889.524 569.167 888.538 569.167C887.164 569.167 885.984 569.607 884.998 570.487C884.011 571.367 883.464 572.754 883.358 574.647ZM902.627 586.647V566.207H906.607V568.727C907.047 567.767 907.674 567.027 908.487 566.507C909.301 565.987 910.227 565.727 911.267 565.727C912.574 565.727 913.681 566.127 914.587 566.927L914.007 570.627C913.541 570.28 913.061 570.027 912.567 569.867C912.074 569.707 911.541 569.627 910.967 569.627C910.074 569.627 909.301 569.86 908.647 570.327C908.007 570.78 907.507 571.427 907.147 572.267C906.787 573.107 906.607 574.1 906.607 575.247V586.647H902.627ZM918.252 586.647V566.207H922.232V568.127C922.846 567.327 923.592 566.727 924.472 566.327C925.366 565.927 926.366 565.727 927.472 565.727C928.672 565.727 929.739 565.987 930.672 566.507C931.606 567.014 932.326 567.74 932.832 568.687C933.486 567.74 934.332 567.014 935.372 566.507C936.412 565.987 937.579 565.727 938.872 565.727C941.166 565.727 942.959 566.407 944.252 567.767C945.546 569.114 946.192 570.994 946.192 573.407V586.647H942.212V574.647C942.212 572.94 941.879 571.647 941.212 570.767C940.559 569.887 939.599 569.447 938.332 569.447C937.479 569.447 936.739 569.66 936.112 570.087C935.499 570.5 935.026 571.107 934.692 571.907C934.359 572.694 934.192 573.627 934.192 574.707V586.647H930.212V574.647C930.212 572.914 929.892 571.614 929.252 570.747C928.612 569.88 927.646 569.447 926.352 569.447C925.046 569.447 924.032 569.894 923.312 570.787C922.592 571.68 922.232 572.947 922.232 574.587V586.647H918.252ZM952.55 586.647V566.207H956.53V586.647H952.55ZM954.53 562.867C953.863 562.867 953.29 562.634 952.81 562.167C952.343 561.687 952.11 561.114 952.11 560.447C952.11 559.767 952.343 559.187 952.81 558.707C953.277 558.227 953.85 557.987 954.53 557.987C955.223 557.987 955.803 558.227 956.27 558.707C956.737 559.187 956.97 559.767 956.97 560.447C956.97 561.127 956.737 561.7 956.27 562.167C955.803 562.634 955.223 562.867 954.53 562.867ZM969.297 587.127C967.804 587.127 966.37 586.807 964.997 586.167C963.637 585.527 962.53 584.667 961.677 583.587L964.437 581.247C965.144 582.007 965.937 582.6 966.817 583.027C967.697 583.44 968.557 583.647 969.397 583.647C970.544 583.647 971.43 583.44 972.057 583.027C972.684 582.6 972.997 582.014 972.997 581.267C972.997 580.787 972.85 580.354 972.557 579.967C972.277 579.567 971.797 579.187 971.117 578.827C970.437 578.454 969.517 578.054 968.357 577.627C966.09 576.787 964.47 575.88 963.497 574.907C962.524 573.92 962.037 572.687 962.037 571.207C962.037 569.58 962.69 568.26 963.997 567.247C965.304 566.234 966.997 565.727 969.077 565.727C970.517 565.727 971.837 566 973.037 566.547C974.237 567.08 975.27 567.86 976.137 568.887L973.437 571.107C972.224 569.84 970.757 569.207 969.037 569.207C968.064 569.207 967.29 569.394 966.717 569.767C966.144 570.127 965.857 570.627 965.857 571.267C965.857 571.894 966.184 572.44 966.837 572.907C967.49 573.374 968.684 573.92 970.417 574.547C971.91 575.067 973.124 575.64 974.057 576.267C975.004 576.894 975.69 577.614 976.117 578.427C976.557 579.227 976.777 580.154 976.777 581.207C976.777 583.047 976.11 584.494 974.777 585.547C973.457 586.6 971.63 587.127 969.297 587.127Z" fill="white"/>
<path d="M621 488.647H747" stroke="white" stroke-width="4" stroke-linecap="round"/>
<path d="M809.438 499.127C807.772 499.127 806.258 498.847 804.898 498.287C803.552 497.714 802.398 496.927 801.438 495.927C800.492 494.927 799.798 493.774 799.358 492.467L803.118 491.087C803.692 492.34 804.532 493.36 805.638 494.147C806.758 494.92 808.058 495.307 809.538 495.307C811.125 495.307 812.392 494.94 813.338 494.207C814.298 493.474 814.778 492.4 814.778 490.987C814.778 490.014 814.492 489.194 813.918 488.527C813.358 487.86 812.612 487.3 811.678 486.847C810.758 486.38 809.758 485.954 808.678 485.567C807.692 485.207 806.698 484.814 805.698 484.387C804.698 483.947 803.792 483.42 802.978 482.807C802.165 482.194 801.505 481.44 800.998 480.547C800.505 479.654 800.258 478.574 800.258 477.307C800.258 476.014 800.605 474.827 801.298 473.747C802.005 472.667 803.018 471.8 804.338 471.147C805.658 470.494 807.252 470.167 809.118 470.167C810.652 470.167 811.998 470.407 813.158 470.887C814.332 471.354 815.298 472 816.058 472.827C816.818 473.64 817.345 474.567 817.638 475.607L813.958 476.827C813.612 476.027 813.012 475.347 812.158 474.787C811.318 474.227 810.218 473.947 808.858 473.947C807.472 473.947 806.378 474.247 805.578 474.847C804.792 475.447 804.398 476.274 804.398 477.327C804.398 478.1 804.665 478.754 805.198 479.287C805.732 479.807 806.432 480.267 807.298 480.667C808.178 481.067 809.132 481.454 810.158 481.827C811.185 482.2 812.212 482.627 813.238 483.107C814.265 483.574 815.205 484.147 816.058 484.827C816.925 485.507 817.618 486.347 818.138 487.347C818.658 488.334 818.918 489.527 818.918 490.927C818.918 492.674 818.498 494.16 817.658 495.387C816.832 496.6 815.705 497.527 814.278 498.167C812.852 498.807 811.238 499.127 809.438 499.127ZM831.779 499.127C829.339 499.127 827.506 498.394 826.279 496.927C825.052 495.46 824.439 493.26 824.439 490.327V478.207H828.419V490.147C828.419 491.88 828.766 493.187 829.459 494.067C830.166 494.934 831.206 495.367 832.579 495.367C834.072 495.367 835.186 494.94 835.919 494.087C836.666 493.22 837.039 491.934 837.039 490.227V478.207H841.019V498.647H837.039V496.707C836.399 497.534 835.652 498.147 834.799 498.547C833.946 498.934 832.939 499.127 831.779 499.127ZM847.725 498.647V478.207H851.705V480.727C852.145 479.767 852.772 479.027 853.585 478.507C854.398 477.987 855.325 477.727 856.365 477.727C857.672 477.727 858.778 478.127 859.685 478.927L859.105 482.627C858.638 482.28 858.158 482.027 857.665 481.867C857.172 481.707 856.638 481.627 856.065 481.627C855.172 481.627 854.398 481.86 853.745 482.327C853.105 482.78 852.605 483.427 852.245 484.267C851.885 485.107 851.705 486.1 851.705 487.247V498.647H847.725ZM865.115 498.647V481.687H862.055V478.207H865.115V474.887C865.115 473.38 865.515 472.22 866.315 471.407C867.115 470.58 868.255 470.167 869.735 470.167C870.482 470.167 871.182 470.247 871.835 470.407C872.502 470.567 873.142 470.814 873.755 471.147V474.447C873.195 474.194 872.682 474.007 872.215 473.887C871.748 473.767 871.288 473.707 870.835 473.707C870.235 473.707 869.795 473.86 869.515 474.167C869.235 474.46 869.095 474.94 869.095 475.607V478.207H873.755V481.687H869.095V498.647H865.115ZM883.529 499.127C881.302 499.127 879.549 498.52 878.269 497.307C877.002 496.08 876.369 494.414 876.369 492.307C876.369 490.947 876.689 489.76 877.329 488.747C877.969 487.734 878.869 486.954 880.029 486.407C881.202 485.847 882.575 485.567 884.149 485.567C885.109 485.567 886.015 485.667 886.869 485.867C887.735 486.067 888.529 486.367 889.249 486.767V485.387C889.249 483.947 888.902 482.887 888.209 482.207C887.515 481.514 886.455 481.167 885.029 481.167C884.042 481.167 883.022 481.347 881.969 481.707C880.929 482.067 879.922 482.574 878.949 483.227L877.789 479.967C878.869 479.26 880.082 478.714 881.429 478.327C882.789 477.927 884.142 477.727 885.489 477.727C888.022 477.727 889.915 478.354 891.169 479.607C892.435 480.86 893.069 482.734 893.069 485.227V498.647H889.249V496.847C888.489 497.58 887.615 498.147 886.629 498.547C885.642 498.934 884.609 499.127 883.529 499.127ZM884.249 495.687C885.155 495.687 886.042 495.48 886.909 495.067C887.789 494.64 888.569 494.047 889.249 493.287V490.127C888.609 489.754 887.882 489.46 887.069 489.247C886.255 489.034 885.475 488.927 884.729 488.927C883.315 488.927 882.202 489.234 881.389 489.847C880.575 490.447 880.169 491.274 880.169 492.327C880.169 493.367 880.529 494.187 881.249 494.787C881.969 495.387 882.969 495.687 884.249 495.687ZM907.023 499.127C905.223 499.127 903.669 498.7 902.363 497.847C901.069 496.98 900.069 495.754 899.363 494.167C898.669 492.567 898.323 490.66 898.323 488.447C898.323 486.234 898.676 484.327 899.383 482.727C900.103 481.127 901.123 479.894 902.443 479.027C903.763 478.16 905.336 477.727 907.163 477.727C909.043 477.727 910.623 478.16 911.903 479.027C913.196 479.894 914.129 481.167 914.703 482.847L910.943 484.167C910.609 483.3 910.123 482.634 909.483 482.167C908.843 481.7 908.083 481.467 907.203 481.467C905.669 481.467 904.483 482.074 903.643 483.287C902.803 484.5 902.383 486.22 902.383 488.447C902.383 490.634 902.796 492.334 903.623 493.547C904.449 494.747 905.609 495.347 907.103 495.347C908.076 495.347 908.909 495.087 909.603 494.567C910.309 494.047 910.809 493.3 911.103 492.327L914.843 493.527C914.309 495.34 913.369 496.727 912.023 497.687C910.676 498.647 909.009 499.127 907.023 499.127ZM928.285 499.127C926.378 499.127 924.732 498.674 923.345 497.767C921.972 496.86 920.912 495.6 920.165 493.987C919.432 492.374 919.065 490.514 919.065 488.407C919.065 486.167 919.445 484.254 920.205 482.667C920.978 481.067 922.052 479.847 923.425 479.007C924.812 478.154 926.432 477.727 928.285 477.727C929.858 477.727 931.292 478.074 932.585 478.767C933.892 479.447 934.932 480.507 935.705 481.947C936.492 483.374 936.885 485.207 936.885 487.447C936.885 487.767 936.872 488.154 936.845 488.607C936.832 489.047 936.798 489.5 936.745 489.967H923.085C923.192 491.1 923.465 492.1 923.905 492.967C924.358 493.82 924.958 494.487 925.705 494.967C926.452 495.447 927.332 495.687 928.345 495.687C929.238 495.687 930.052 495.534 930.785 495.227C931.518 494.907 932.205 494.414 932.845 493.747L935.165 496.247C934.365 497.087 933.385 497.78 932.225 498.327C931.065 498.86 929.752 499.127 928.285 499.127ZM923.065 486.647H932.925C932.898 485.567 932.698 484.62 932.325 483.807C931.965 482.98 931.438 482.334 930.745 481.867C930.065 481.4 929.232 481.167 928.245 481.167C926.872 481.167 925.692 481.607 924.705 482.487C923.718 483.367 923.172 484.754 923.065 486.647Z" fill="white"/>
<path d="M621 664.647H747" stroke="white" stroke-width="4" stroke-linecap="round"/>
<path d="M800.825 674.647V646.647H809.065C811.479 646.647 813.519 647.047 815.185 647.847C816.865 648.647 818.219 649.72 819.245 651.067C820.272 652.4 821.019 653.9 821.485 655.567C821.965 657.22 822.205 658.914 822.205 660.647C822.205 662.26 821.985 663.887 821.545 665.527C821.105 667.167 820.379 668.68 819.365 670.067C818.365 671.44 817.005 672.547 815.285 673.387C813.579 674.227 811.452 674.647 808.905 674.647H800.825ZM804.865 670.847H809.385C811.025 670.847 812.392 670.547 813.485 669.947C814.592 669.347 815.479 668.554 816.145 667.567C816.812 666.567 817.285 665.467 817.565 664.267C817.859 663.054 818.005 661.847 818.005 660.647C818.005 659.367 817.852 658.12 817.545 656.907C817.239 655.68 816.752 654.58 816.085 653.607C815.419 652.634 814.572 651.86 813.545 651.287C812.519 650.7 811.279 650.407 809.825 650.407H804.865V670.847ZM835.613 675.127C833.706 675.127 832.06 674.674 830.673 673.767C829.3 672.86 828.24 671.6 827.493 669.987C826.76 668.374 826.393 666.514 826.393 664.407C826.393 662.167 826.773 660.254 827.533 658.667C828.306 657.067 829.38 655.847 830.753 655.007C832.14 654.154 833.76 653.727 835.613 653.727C837.186 653.727 838.62 654.074 839.913 654.767C841.22 655.447 842.26 656.507 843.033 657.947C843.82 659.374 844.213 661.207 844.213 663.447C844.213 663.767 844.2 664.154 844.173 664.607C844.16 665.047 844.126 665.5 844.073 665.967H830.413C830.52 667.1 830.793 668.1 831.233 668.967C831.686 669.82 832.286 670.487 833.033 670.967C833.78 671.447 834.66 671.687 835.673 671.687C836.566 671.687 837.38 671.534 838.113 671.227C838.846 670.907 839.533 670.414 840.173 669.747L842.493 672.247C841.693 673.087 840.713 673.78 839.553 674.327C838.393 674.86 837.08 675.127 835.613 675.127ZM830.393 662.647H840.253C840.226 661.567 840.026 660.62 839.653 659.807C839.293 658.98 838.766 658.334 838.073 657.867C837.393 657.4 836.56 657.167 835.573 657.167C834.2 657.167 833.02 657.607 832.033 658.487C831.046 659.367 830.5 660.754 830.393 662.647ZM849.662 674.647V654.207H853.642V656.727C854.082 655.767 854.709 655.027 855.522 654.507C856.336 653.987 857.262 653.727 858.302 653.727C859.609 653.727 860.716 654.127 861.622 654.927L861.042 658.627C860.576 658.28 860.096 658.027 859.602 657.867C859.109 657.707 858.576 657.627 858.002 657.627C857.109 657.627 856.336 657.86 855.682 658.327C855.042 658.78 854.542 659.427 854.182 660.267C853.822 661.107 853.642 662.1 853.642 663.247V674.647H849.662ZM865.287 674.647V654.207H869.267V656.127C869.881 655.327 870.627 654.727 871.507 654.327C872.401 653.927 873.401 653.727 874.507 653.727C875.707 653.727 876.774 653.987 877.707 654.507C878.641 655.014 879.361 655.74 879.867 656.687C880.521 655.74 881.367 655.014 882.407 654.507C883.447 653.987 884.614 653.727 885.907 653.727C888.201 653.727 889.994 654.407 891.287 655.767C892.581 657.114 893.227 658.994 893.227 661.407V674.647H889.247V662.647C889.247 660.94 888.914 659.647 888.247 658.767C887.594 657.887 886.634 657.447 885.367 657.447C884.514 657.447 883.774 657.66 883.147 658.087C882.534 658.5 882.061 659.107 881.727 659.907C881.394 660.694 881.227 661.627 881.227 662.707V674.647H877.247V662.647C877.247 660.914 876.927 659.614 876.287 658.747C875.647 657.88 874.681 657.447 873.387 657.447C872.081 657.447 871.067 657.894 870.347 658.787C869.627 659.68 869.267 660.947 869.267 662.587V674.647H865.287ZM899.585 674.647V654.207H903.565V674.647H899.585ZM901.565 650.867C900.898 650.867 900.325 650.634 899.845 650.167C899.378 649.687 899.145 649.114 899.145 648.447C899.145 647.767 899.378 647.187 899.845 646.707C900.312 646.227 900.885 645.987 901.565 645.987C902.258 645.987 902.838 646.227 903.305 646.707C903.772 647.187 904.005 647.767 904.005 648.447C904.005 649.127 903.772 649.7 903.305 650.167C902.838 650.634 902.258 650.867 901.565 650.867ZM916.332 675.127C914.839 675.127 913.405 674.807 912.032 674.167C910.672 673.527 909.565 672.667 908.712 671.587L911.472 669.247C912.179 670.007 912.972 670.6 913.852 671.027C914.732 671.44 915.592 671.647 916.432 671.647C917.579 671.647 918.465 671.44 919.092 671.027C919.719 670.6 920.032 670.014 920.032 669.267C920.032 668.787 919.885 668.354 919.592 667.967C919.312 667.567 918.832 667.187 918.152 666.827C917.472 666.454 916.552 666.054 915.392 665.627C913.125 664.787 911.505 663.88 910.532 662.907C909.559 661.92 909.072 660.687 909.072 659.207C909.072 657.58 909.725 656.26 911.032 655.247C912.339 654.234 914.032 653.727 916.112 653.727C917.552 653.727 918.872 654 920.072 654.547C921.272 655.08 922.305 655.86 923.172 656.887L920.472 659.107C919.259 657.84 917.792 657.207 916.072 657.207C915.099 657.207 914.325 657.394 913.752 657.767C913.179 658.127 912.892 658.627 912.892 659.267C912.892 659.894 913.219 660.44 913.872 660.907C914.525 661.374 915.719 661.92 917.452 662.547C918.945 663.067 920.159 663.64 921.092 664.267C922.039 664.894 922.725 665.614 923.152 666.427C923.592 667.227 923.812 668.154 923.812 669.207C923.812 671.047 923.145 672.494 921.812 673.547C920.492 674.6 918.665 675.127 916.332 675.127Z" fill="white"/>
<defs>
<linearGradient id="paint0_linear_33_2268" x1="321.5" y1="0.646973" x2="321.5" y2="200.647" gradientUnits="userSpaceOnUse">
<stop stop-color="#FF7936"/>
<stop offset="1" stop-color="#FFF48B"/>
</linearGradient>
<linearGradient id="paint1_linear_33_2268" x1="16.1765" y1="0" x2="16.1765" y2="147.059" gradientUnits="userSpaceOnUse">
<stop stop-color="#FF9B4E" stop-opacity="0"/>
<stop offset="1" stop-color="#FF9B4E"/>
</linearGradient>
<linearGradient id="paint2_linear_33_2268" x1="16.1765" y1="0" x2="16.1765" y2="147.059" gradientUnits="userSpaceOnUse">
<stop stop-color="#FF9B4E" stop-opacity="0"/>
<stop offset="1" stop-color="#FF9B4E"/>
</linearGradient>
<linearGradient id="paint3_linear_33_2268" x1="16.1765" y1="0" x2="16.1765" y2="147.059" gradientUnits="userSpaceOnUse">
<stop stop-color="#FF9B4E" stop-opacity="0"/>
<stop offset="1" stop-color="#FF9B4E"/>
</linearGradient>
<clipPath id="clip0_33_2268">
<rect width="620" height="766" fill="white" transform="translate(0.5 0.646973)"/>
</clipPath>
</defs>
</svg>
